<svg width="8"
    height="8"
    viewBox="0 0 8 8"
    fill="none"
    xmlns="http://www.w3.org/2000/svg">
<g clip-path="url(#clip0_100_4449)">
    <path d="M7.33145 0.00164127H1.98285C1.61361 0.00164127 1.31427 0.30098 1.31427 0.670222C1.31427 1.03946 1.61361 1.3388 1.98285 1.3388H6.66287V6.0188C6.66287 6.38804 6.96221 6.68738 7.33145 6.68738C7.70069 6.68738 8.00003 6.38804 8.00003 6.0188V0.670222C8.00001 0.300958 7.70069 0.00164127 7.33145 0.00164127Z"
        fill="currentColor" />
    <path d="M7.29133 0.0417404C7.11267 0.0424891 6.94171 0.114704 6.81665 0.242313L0.197757 6.85449C-0.0643959 7.11451 -0.0661352 7.53782 0.193882 7.8C0.195159 7.8013 0.196458 7.8026 0.197757 7.80387C0.458522 8.0631 0.879679 8.0631 1.14044 7.80387L7.75932 1.185C8.02149 0.924984 8.02323 0.501669 7.76321 0.239495C7.63836 0.113604 7.46863 0.0424671 7.29133 0.0417404Z"
        fill="currentColor" />
</g>
<defs>
    <clipPath id="clip0_100_4449">
    <rect width="8"
            height="8"
            fill="white"
            transform="matrix(1 0 0 -1 0 8)" />
    </clipPath>
</defs>
</svg>