<svg width="16" height="16" viewBox="0 0 16 16" fill="none" xmlns="http://www.w3.org/2000/svg">
    <path
        d="M13.4 6.2V11.6C13.4 11.9183 13.2736 12.2235 13.0485 12.4485C12.8235 12.6736 12.5183 12.8 12.2 12.8H3.8C3.48174 12.8 3.17652 12.6736 2.95147 12.4485C2.72643 12.2235 2.6 11.9183 2.6 11.6V6.2H13.4ZM9.2 8H6.8C6.64087 8 6.48826 8.06321 6.37574 8.17574C6.26321 8.28826 6.2 8.44087 6.2 8.6C6.2 8.75913 6.26321 8.91174 6.37574 9.02426C6.48826 9.13679 6.64087 9.2 6.8 9.2H9.2C9.35913 9.2 9.51174 9.13679 9.62426 9.02426C9.73679 8.91174 9.8 8.75913 9.8 8.6C9.8 8.44087 9.73679 8.28826 9.62426 8.17574C9.51174 8.06321 9.35913 8 9.2 8ZM12.8 2C13.1183 2 13.4235 2.12643 13.6485 2.35147C13.8736 2.57652 14 2.88174 14 3.2V5H2V3.2C2 2.88174 2.12643 2.57652 2.35147 2.35147C2.57652 2.12643 2.88174 2 3.2 2H12.8Z"
        fill="#00B162" />
</svg>