<svg width="40" height="40" fill="none" xmlns="http://www.w3.org/2000/svg"><path d="M6.11 32.598h10.748M18.117 39.414H6.5a.39.39 0 01-.39-.39V11.212M16.827 8.13H5.603a.368.368 0 00-.369.369v2.152c0 .204.165.369.369.369H12.5M12.2 11.02h4.628" stroke="#333" stroke-miterlimit="10" stroke-linecap="round" stroke-linejoin="round"/><path d="M17.008 36.613v2.41c0 .216.175.391.39.391h17.746a.39.39 0 00.39-.39V1.366a.781.781 0 00-.781-.781H17.789a.781.781 0 00-.781.781v35.246zM11.484 32.597v6.696M11.482 17.78H9.639a.39.39 0 01-.391-.391v-2.64a.39.39 0 01.39-.39h1.844a.39.39 0 01.39.39v2.64a.39.39 0 01-.39.39zM11.482 23.564H9.639a.39.39 0 01-.391-.39v-2.64a.39.39 0 01.39-.39h1.844a.39.39 0 01.39.39v2.64a.39.39 0 01-.39.39zM11.482 29.35H9.639a.39.39 0 01-.391-.391v-2.64a.39.39 0 01.39-.39h1.844a.39.39 0 01.39.39v2.64a.39.39 0 01-.39.39zM16.617 17.78h-1.844a.39.39 0 01-.39-.391v-2.64a.39.39 0 01.39-.39h1.844a.39.39 0 01.39.39v2.64a.39.39 0 01-.39.39zM16.617 23.564h-1.844a.39.39 0 01-.39-.39v-2.64a.39.39 0 01.39-.39h1.844a.39.39 0 01.39.39v2.64a.39.39 0 01-.39.39zM16.617 29.35h-1.844a.39.39 0 01-.39-.391v-2.64a.39.39 0 01.39-.39h1.844a.39.39 0 01.39.39v2.64a.39.39 0 01-.39.39z" stroke="#333" stroke-miterlimit="10" stroke-linecap="round" stroke-linejoin="round"/><path d="M22.046 7.139h-1.843a.39.39 0 01-.39-.391v-2.64a.39.39 0 01.39-.39h1.843a.39.39 0 01.391.39v2.64a.39.39 0 01-.39.39zM22.046 12.924h-1.843a.39.39 0 01-.39-.39v-2.64a.39.39 0 01.39-.39h1.843a.39.39 0 01.391.39v2.64a.39.39 0 01-.39.39zM27.193 7.139H25.35a.39.39 0 01-.391-.391v-2.64a.39.39 0 01.39-.39h1.844a.39.39 0 01.39.39v2.64a.39.39 0 01-.39.39zM27.193 12.924H25.35a.39.39 0 01-.391-.39v-2.64a.39.39 0 01.39-.39h1.844a.39.39 0 01.39.39v2.64a.39.39 0 01-.39.39zM32.34 7.139h-1.844a.39.39 0 01-.39-.391v-2.64a.39.39 0 01.39-.39h1.844a.39.39 0 01.39.39v2.64a.39.39 0 01-.39.39zM32.34 12.924h-1.844a.39.39 0 01-.39-.39v-2.64a.39.39 0 01.39-.39h1.844a.39.39 0 01.39.39v2.64a.39.39 0 01-.39.39zM35.534 19.178H17.008v-3.42h18.526v3.42zM22.046 25.432h-1.843a.39.39 0 01-.39-.391v-2.64a.39.39 0 01.39-.39h1.843a.39.39 0 01.391.39v2.64a.39.39 0 01-.39.39zM22.046 31.215h-1.843a.39.39 0 01-.39-.39v-2.64a.39.39 0 01.39-.39h1.843a.39.39 0 01.391.39v2.64a.39.39 0 01-.39.39zM22.046 36.82h-1.843a.39.39 0 01-.39-.39v-2.64a.39.39 0 01.39-.39h1.843a.39.39 0 01.391.39v2.64a.39.39 0 01-.39.39zM27.193 25.432H25.35a.39.39 0 01-.391-.391v-2.64a.39.39 0 01.39-.39h1.844a.39.39 0 01.39.39v2.64a.39.39 0 01-.39.39zM27.195 31.215h-1.843a.39.39 0 01-.391-.39v-2.64a.39.39 0 01.39-.39h1.844a.39.39 0 01.39.39v2.64a.39.39 0 01-.39.39zM27.195 36.82h-1.843a.39.39 0 01-.391-.39v-2.64a.39.39 0 01.39-.39h1.844a.39.39 0 01.39.39v2.64a.39.39 0 01-.39.39zM32.34 25.432h-1.844a.39.39 0 01-.39-.391v-2.64a.39.39 0 01.39-.39h1.844a.39.39 0 01.39.39v2.64a.39.39 0 01-.39.39zM32.343 31.215H30.5a.39.39 0 01-.39-.39v-2.64a.39.39 0 01.39-.39h1.843a.39.39 0 01.391.39v2.64a.39.39 0 01-.39.39zM32.343 36.82H30.5a.39.39 0 01-.39-.39v-2.64a.39.39 0 01.39-.39h1.843a.39.39 0 01.391.39v2.64a.39.39 0 01-.39.39z" stroke="#333" stroke-miterlimit="10" stroke-linecap="round" stroke-linejoin="round"/></svg>