<svg width="16" height="16" viewBox="0 0 16 16" fill="none" xmlns="http://www.w3.org/2000/svg">
    <path fill-rule="evenodd" clip-rule="evenodd"
        d="M8 14C8.78793 14 9.56815 13.8448 10.2961 13.5433C11.0241 13.2417 11.6855 12.7998 12.2426 12.2426C12.7998 11.6855 13.2417 11.0241 13.5433 10.2961C13.8448 9.56815 14 8.78793 14 8C14 7.21207 13.8448 6.43185 13.5433 5.7039C13.2417 4.97595 12.7998 4.31451 12.2426 3.75736C11.6855 3.20021 11.0241 2.75825 10.2961 2.45672C9.56815 2.15519 8.78793 2 8 2C6.4087 2 4.88258 2.63214 3.75736 3.75736C2.63214 4.88258 2 6.4087 2 8C2 9.5913 2.63214 11.1174 3.75736 12.2426C4.88258 13.3679 6.4087 14 8 14ZM11.1787 6.42667C11.2372 6.35976 11.2818 6.28183 11.3097 6.19745C11.3377 6.11306 11.3485 6.02394 11.3415 5.93532C11.3345 5.8467 11.3099 5.76038 11.2691 5.68142C11.2282 5.60246 11.172 5.53247 11.1037 5.47556C11.0354 5.41865 10.9564 5.37598 10.8714 5.35004C10.7864 5.32411 10.697 5.31544 10.6086 5.32455C10.5202 5.33366 10.4345 5.36036 10.3565 5.40309C10.2785 5.44581 10.2099 5.5037 10.1547 5.57333L7.756 8.45133C7.52467 8.72867 7.39467 8.88267 7.29133 8.97667L7.28733 8.98067L7.28267 8.97733C7.17067 8.89267 7.02733 8.75133 6.77267 8.496L5.80467 7.52867C5.67893 7.40723 5.51053 7.34003 5.33573 7.34155C5.16093 7.34307 4.99373 7.41318 4.87012 7.53679C4.74652 7.66039 4.6764 7.8276 4.67488 8.0024C4.67336 8.1772 4.74056 8.3456 4.862 8.47133L5.82933 9.43867L5.85667 9.466C6.07467 9.684 6.28333 9.89333 6.47867 10.0407C6.69667 10.206 6.98267 10.3607 7.34867 10.3447C7.71533 10.328 7.986 10.1473 8.18867 9.96333C8.36867 9.79867 8.55867 9.57133 8.75533 9.33467L8.78 9.30533L11.1787 6.42667Z"
        fill="#00B162" />
</svg>