<svg width="40" height="40" viewBox="0 0 40 40" fill="none" xmlns="http://www.w3.org/2000/svg">
<path d="M18.8052 29.8066H13.0215V36.4987H18.8052V29.8066Z" stroke="#333333" stroke-miterlimit="10" stroke-linecap="round" stroke-linejoin="round"/>
<path d="M24.5865 29.8066H18.8027V36.4987H24.5865V29.8066Z" stroke="#333333" stroke-miterlimit="10" stroke-linecap="round" stroke-linejoin="round"/>
<path d="M6.61719 36.4986V29.9531" stroke="#333333" stroke-miterlimit="10" stroke-linecap="round" stroke-linejoin="round"/>
<path d="M30.9863 29.9531V36.4986" stroke="#333333" stroke-miterlimit="10" stroke-linecap="round" stroke-linejoin="round"/>
<path d="M13.0166 29.8066H10.332V36.4987H13.0166V29.8066Z" stroke="#333333" stroke-miterlimit="10" stroke-linecap="round" stroke-linejoin="round"/>
<path d="M24.587 36.5L27.2715 36.5L27.2715 29.8079L24.587 29.8079L24.587 36.5Z" stroke="#333333" stroke-miterlimit="10" stroke-linecap="round" stroke-linejoin="round"/>
<path d="M6.61719 20.4368V26.9058H30.9849V3.64087C30.9849 3.28692 30.6979 3 30.344 3H7.25806C6.9041 3 6.61719 3.28692 6.61719 3.64087V20.4368Z" stroke="#333333" stroke-miterlimit="10" stroke-linecap="round" stroke-linejoin="round"/>
<path d="M32.5826 29.8077H5.01972C4.59895 29.8077 4.25781 29.4666 4.25781 29.0458V27.6682C4.25781 27.2474 4.59895 26.9062 5.01972 26.9062H32.5826C33.0034 26.9062 33.3445 27.2474 33.3445 27.6682V29.0458C33.3445 29.4666 33.0035 29.8077 32.5826 29.8077Z" stroke="#333333" stroke-miterlimit="10" stroke-linecap="round" stroke-linejoin="round"/>
<path d="M30.9863 22.5728V6.8457H35.0356C35.4202 6.8457 35.732 7.15746 35.732 7.54204V21.8764C35.732 22.261 35.4202 22.5728 35.0356 22.5728H30.9863Z" stroke="#333333" stroke-miterlimit="10" stroke-linecap="round" stroke-linejoin="round"/>
<circle cx="33.3601" cy="10.0632" r="0.549508" fill="#333333"/>
<circle cx="33.3601" cy="12.3854" r="0.549508" fill="#333333"/>
<circle cx="33.3601" cy="14.7077" r="0.549508" fill="#333333"/>
<circle cx="33.3601" cy="17.0319" r="0.549508" fill="#333333"/>
<circle cx="33.3601" cy="19.3542" r="0.549508" fill="#333333"/>
<path d="M13.3369 10.3149H10.5254C10.2687 10.3149 10.0605 10.1068 10.0605 9.85006V6.15817C10.0605 5.90151 10.2686 5.69336 10.5254 5.69336H13.3369C13.5936 5.69336 13.8017 5.90144 13.8017 6.15817V9.85006C13.8017 10.1067 13.5936 10.3149 13.3369 10.3149Z" stroke="#333333" stroke-miterlimit="10" stroke-linecap="round" stroke-linejoin="round"/>
<path d="M20.21 10.3149H17.3984C17.1417 10.3149 16.9336 10.1068 16.9336 9.85006V6.15817C16.9336 5.90151 17.1417 5.69336 17.3984 5.69336H20.21C20.4667 5.69336 20.6748 5.90144 20.6748 6.15817V9.85006C20.6747 10.1067 20.4666 10.3149 20.21 10.3149Z" stroke="#333333" stroke-miterlimit="10" stroke-linecap="round" stroke-linejoin="round"/>
<path d="M27.0752 10.3149H24.2636C24.0069 10.3149 23.7988 10.1068 23.7988 9.85006V6.15817C23.7988 5.90151 24.0069 5.69336 24.2636 5.69336H27.0752C27.3319 5.69336 27.54 5.90144 27.54 6.15817V9.85006C27.54 10.1067 27.3319 10.3149 27.0752 10.3149Z" stroke="#333333" stroke-miterlimit="10" stroke-linecap="round" stroke-linejoin="round"/>
<path d="M13.3369 17.2641H10.5254C10.2687 17.2641 10.0605 17.056 10.0605 16.7993V13.1074C10.0605 12.8507 10.2686 12.6426 10.5254 12.6426H13.3369C13.5936 12.6426 13.8017 12.8507 13.8017 13.1074V16.7993C13.8017 17.056 13.5936 17.2641 13.3369 17.2641Z" stroke="#333333" stroke-miterlimit="10" stroke-linecap="round" stroke-linejoin="round"/>
<path d="M20.21 17.2641H17.3984C17.1417 17.2641 16.9336 17.056 16.9336 16.7993V13.1074C16.9336 12.8507 17.1417 12.6426 17.3984 12.6426H20.21C20.4667 12.6426 20.6748 12.8507 20.6748 13.1074V16.7993C20.6747 17.056 20.4666 17.2641 20.21 17.2641Z" stroke="#333333" stroke-miterlimit="10" stroke-linecap="round" stroke-linejoin="round"/>
<path d="M27.0752 17.2641H24.2636C24.0069 17.2641 23.7988 17.056 23.7988 16.7993V13.1074C23.7988 12.8507 24.0069 12.6426 24.2636 12.6426H27.0752C27.3319 12.6426 27.54 12.8507 27.54 13.1074V16.7993C27.54 17.056 27.3319 17.2641 27.0752 17.2641Z" stroke="#333333" stroke-miterlimit="10" stroke-linecap="round" stroke-linejoin="round"/>
<path d="M13.3369 24.2133H10.5254C10.2687 24.2133 10.0605 24.0052 10.0605 23.7485V20.0566C10.0605 19.8 10.2686 19.5918 10.5254 19.5918H13.3369C13.5936 19.5918 13.8017 19.7999 13.8017 20.0566V23.7485C13.8017 24.0052 13.5936 24.2133 13.3369 24.2133Z" stroke="#333333" stroke-miterlimit="10" stroke-linecap="round" stroke-linejoin="round"/>
<path d="M20.21 24.2133H17.3984C17.1417 24.2133 16.9336 24.0052 16.9336 23.7485V20.0566C16.9336 19.8 17.1417 19.5918 17.3984 19.5918H20.21C20.4667 19.5918 20.6748 19.7999 20.6748 20.0566V23.7485C20.6747 24.0052 20.4666 24.2133 20.21 24.2133Z" stroke="#333333" stroke-miterlimit="10" stroke-linecap="round" stroke-linejoin="round"/>
<path d="M27.0752 24.2133H24.2636C24.0069 24.2133 23.7988 24.0052 23.7988 23.7485V20.0566C23.7988 19.8 24.0069 19.5918 24.2636 19.5918H27.0752C27.3319 19.5918 27.54 19.7999 27.54 20.0566V23.7485C27.54 24.0052 27.3319 24.2133 27.0752 24.2133Z" stroke="#333333" stroke-miterlimit="10" stroke-linecap="round" stroke-linejoin="round"/>
<path d="M5.35339 39.4137H2.52174C2.11708 39.4137 1.78906 39.0857 1.78906 38.681V37.2268C1.78906 36.8222 2.11708 36.4941 2.52174 36.4941H37.4704C37.8751 36.4941 38.2031 36.8222 38.2031 37.2268V38.681C38.2031 39.0857 37.8751 39.4137 37.4704 39.4137H5.35339Z" stroke="#333333" stroke-miterlimit="10" stroke-linecap="round" stroke-linejoin="round"/>
</svg>
