<svg width="24" height="24" viewBox="0 0 18 18" fill="none" xmlns="http://www.w3.org/2000/svg">
  <path d="M15.2227 10.5029C14.9314 10.5029 14.6953 10.2668 14.6953 9.97559C14.6953 9.68433 14.9314 9.44824 15.2227 9.44824C15.5139 9.44824 15.75 9.68433 15.75 9.97559C15.75 10.2668 15.5139 10.5029 15.2227 10.5029Z" fill="#333333"/>
  <path d="M14.6953 12.0059C14.6953 11.7146 14.9314 11.4785 15.2227 11.4785C15.5139 11.4785 15.75 11.7146 15.75 12.0059C15.75 12.2971 15.5139 12.5332 15.2227 12.5332C14.9314 12.5332 14.6953 12.2971 14.6953 12.0059Z" fill="#333333"/>
  <path d="M9.92188 14.6953C10.2131 14.6953 10.4492 14.9314 10.4492 15.2227C10.4492 15.5139 10.2131 15.75 9.92188 15.75C9.63062 15.75 9.39453 15.5139 9.39453 15.2227C9.39453 14.9314 9.63062 14.6953 9.92188 14.6953Z" fill="#333333"/>
  <path d="M11.5312 15.2227C11.5312 14.9314 11.7673 14.6953 12.0586 14.6953C12.3498 14.6953 12.5859 14.9314 12.5859 15.2227C12.5859 15.5139 12.3498 15.75 12.0586 15.75C11.7673 15.75 11.5312 15.5139 11.5312 15.2227Z" fill="#333333"/>
  <path d="M10.5029 12.085H4.35937C3.48565 12.085 2.77734 11.3767 2.77734 10.5029V4.35938C2.77734 3.48565 3.48565 2.77734 4.35937 2.77734H10.5029C11.3767 2.77734 12.085 3.48565 12.085 4.35938V10.5029C12.085 11.3767 11.3767 12.085 10.5029 12.085Z" stroke="#333333" stroke-width="1.5" stroke-miterlimit="10" stroke-linecap="round" stroke-linejoin="round"/>
  <path d="M7.3125 9.97559H8.89453C9.47703 9.97559 9.94922 9.50338 9.94922 8.9209V7.33887" stroke="#333333" stroke-width="1.5" stroke-miterlimit="10" stroke-linecap="round" stroke-linejoin="round"/>
  <path d="M9.4751 9.50098L7.16797 7.19385" stroke="#333333" stroke-width="1.5" stroke-miterlimit="10" stroke-linecap="round" stroke-linejoin="round"/>
  <path d="M14.168 6.81152C14.7505 6.81152 15.2227 7.28373 15.2227 7.86621" stroke="#333333" stroke-width="1.5" stroke-miterlimit="10" stroke-linecap="round"/>
  <path d="M7.76172 15.2217C7.17921 15.2217 6.70703 14.7495 6.70703 14.167" stroke="#333333" stroke-width="1.5" stroke-miterlimit="10" stroke-linecap="round"/>
  <path d="M15.2227 14.168C15.2227 14.7504 14.7505 15.2227 14.168 15.2227" stroke="#333333" stroke-width="1.5" stroke-miterlimit="10" stroke-linecap="round"/>
</svg>
