<svg width="40" height="40" viewBox="0 0 40 40" fill="none" xmlns="http://www.w3.org/2000/svg">
<g clip-path="url(#clip0_144_1228)">
                <path d="M39.659 13.9544L33.9158 1.45969C33.7858 1.17749 33.549 0.958419 33.2576 0.850559C32.9662 0.742699 32.6439 0.754863 32.3615 0.88438L19.8668 6.6275C19.7915 6.66218 19.7331 6.7253 19.7044 6.803C19.6757 6.8807 19.679 6.96662 19.7136 7.04188L22.0218 12.0625C22.0481 12.1197 22.091 12.1675 22.145 12.1999C22.199 12.2322 22.2614 12.2475 22.3242 12.2438C22.387 12.24 22.4473 12.2174 22.497 12.1789C22.5467 12.1403 22.5837 12.0877 22.603 12.0278C22.7468 11.5853 23.0207 11.1964 23.389 10.912C23.7573 10.6276 24.2028 10.4609 24.6673 10.4337C25.1318 10.4065 25.5938 10.5201 25.9927 10.7596C26.3916 10.9991 26.709 11.3534 26.9034 11.7762C27.0978 12.199 27.1602 12.6705 27.0823 13.1293C27.0044 13.588 26.7899 14.0126 26.4669 14.3476C26.1439 14.6825 25.7273 14.9122 25.2717 15.0066C24.8161 15.1011 24.3425 15.0558 23.913 14.8769C23.8549 14.8521 23.7906 14.8455 23.7287 14.8579C23.6667 14.8704 23.61 14.9013 23.566 14.9467C23.522 14.992 23.4928 15.0497 23.4822 15.112C23.4717 15.1743 23.4802 15.2383 23.5068 15.2956L25.8158 20.3175C25.833 20.3548 25.8573 20.3884 25.8874 20.4163C25.9175 20.4442 25.9529 20.4659 25.9914 20.4802C26.0299 20.4944 26.0708 20.5009 26.1119 20.4994C26.1529 20.4978 26.1932 20.4881 26.2305 20.4709L30.6396 18.4441C30.5593 18.9683 30.6225 19.5046 30.8224 19.9958C31.0223 20.4871 31.3515 20.9151 31.7751 21.2343C32.1986 21.5536 32.7007 21.7522 33.228 21.8091C33.7553 21.8661 34.2882 21.7791 34.7701 21.5576C35.2521 21.3361 35.665 20.9882 35.9651 20.5509C36.2653 20.1136 36.4414 19.6032 36.4749 19.0739C36.5084 18.5446 36.3979 18.0161 36.1552 17.5445C35.9125 17.0729 35.5466 16.6758 35.0965 16.3953L39.5058 14.3688C39.5811 14.3341 39.6394 14.271 39.6682 14.1933C39.6969 14.1156 39.6936 14.0296 39.659 13.9544ZM34.2233 16.1088C34.1661 16.135 34.1181 16.178 34.0857 16.232C34.0533 16.286 34.0379 16.3485 34.0417 16.4114C34.0454 16.4743 34.0681 16.5346 34.1067 16.5843C34.1453 16.6341 34.198 16.671 34.258 16.6903C34.7006 16.8341 35.0895 17.108 35.3738 17.4764C35.6582 17.8447 35.8249 18.2902 35.852 18.7547C35.8792 19.2193 35.7656 19.6812 35.526 20.0801C35.2865 20.479 34.9321 20.7964 34.5093 20.9908C34.0866 21.1851 33.615 21.2474 33.1562 21.1695C32.6974 21.0916 32.2729 20.8771 31.938 20.554C31.6031 20.2309 31.3734 19.8144 31.279 19.3587C31.1847 18.903 31.2299 18.4295 31.409 18C31.4338 17.9419 31.4404 17.8776 31.4279 17.8157C31.4154 17.7537 31.3845 17.697 31.3391 17.653C31.2938 17.609 31.2362 17.5798 31.1739 17.5692C31.1116 17.5586 31.0475 17.5672 30.9902 17.5938L26.2533 19.7725L24.3568 15.6475C24.881 15.7278 25.4173 15.6647 25.9086 15.4648C26.3999 15.2649 26.8279 14.9358 27.1472 14.5122C27.4665 14.0887 27.6651 13.5866 27.7221 13.0593C27.7791 12.532 27.6922 11.9991 27.4707 11.5171C27.2492 11.0352 26.9013 10.6222 26.464 10.3221C26.0267 10.0219 25.5163 9.84572 24.987 9.81224C24.4577 9.77876 23.9291 9.88922 23.4575 10.1319C22.9859 10.3746 22.5888 10.7404 22.3083 11.1906L20.4118 7.06563L32.6227 1.45313C32.7545 1.3927 32.905 1.38703 33.041 1.43735C33.177 1.48767 33.2875 1.58988 33.3483 1.72157L38.9608 13.9322L34.2233 16.1088Z" fill="currentColor"/>
                <path d="M1.48438 39.2225H28.9872C29.2979 39.2222 29.5958 39.0986 29.8156 38.8789C30.0353 38.6592 30.159 38.3614 30.1594 38.0506V24.3006C30.1594 24.2177 30.1265 24.1383 30.0678 24.0797C30.0092 24.021 29.9298 23.9881 29.8469 23.9881H24.3203C24.2574 23.9881 24.1959 24.0071 24.1439 24.0427C24.0919 24.0782 24.0519 24.1286 24.0291 24.1873C24.0062 24.246 24.0016 24.3102 24.0159 24.3715C24.0302 24.4328 24.0627 24.4884 24.1091 24.5309C24.4511 24.8464 24.69 25.2578 24.7945 25.7112C24.899 26.1646 24.8643 26.639 24.695 27.0724C24.5256 27.5058 24.2294 27.878 23.8452 28.1404C23.4609 28.4028 23.0064 28.5432 22.5411 28.5432C22.0758 28.5432 21.6213 28.4028 21.237 28.1404C20.8528 27.878 20.5566 27.5058 20.3872 27.0724C20.2179 26.639 20.1832 26.1646 20.2877 25.7112C20.3922 25.2578 20.6311 24.8464 20.9731 24.5309C21.0195 24.4884 21.052 24.4328 21.0663 24.3715C21.0805 24.3102 21.076 24.246 21.0531 24.1873C21.0303 24.1286 20.9903 24.0782 20.9383 24.0427C20.8863 24.0071 20.8248 23.9881 20.7619 23.9881H15.5484V19.4462C15.9913 19.738 16.5049 19.9044 17.0347 19.9278C17.5645 19.9512 18.0907 19.8307 18.5576 19.5792C19.0244 19.3277 19.4145 18.9545 19.6864 18.4992C19.9583 18.0438 20.1018 17.5234 20.1018 16.9931C20.1018 16.4628 19.9583 15.9424 19.6864 15.4871C19.4145 15.0318 19.0244 14.6586 18.5576 14.407C18.0907 14.1555 17.5645 14.0351 17.0347 14.0585C16.5049 14.0819 15.9913 14.2483 15.5484 14.54V9.6875C15.5484 9.60462 15.5155 9.52513 15.4569 9.46653C15.3983 9.40792 15.3188 9.375 15.2359 9.375H1.48594C1.17483 9.375 0.876457 9.49854 0.656413 9.71847C0.436369 9.9384 0.312666 10.2367 0.3125 10.5478V38.0506C0.312913 38.3613 0.436511 38.6591 0.656191 38.8788C0.87587 39.0985 1.1737 39.2221 1.48438 39.2225ZM0.9375 38.0506V24.6131H6.15156C6.21443 24.613 6.27579 24.5939 6.32764 24.5584C6.3795 24.5228 6.41942 24.4725 6.4422 24.4139C6.46498 24.3553 6.46956 24.2912 6.45535 24.2299C6.44113 24.1687 6.40877 24.1132 6.3625 24.0706C6.02049 23.7551 5.7816 23.3438 5.67707 22.8904C5.57255 22.437 5.60723 21.9625 5.7766 21.5292C5.94597 21.0958 6.24214 20.7235 6.6264 20.4611C7.01067 20.1988 7.46516 20.0584 7.93047 20.0584C8.39578 20.0584 8.85027 20.1988 9.23453 20.4611C9.6188 20.7235 9.91497 21.0958 10.0843 21.5292C10.2537 21.9625 10.2884 22.437 10.1839 22.8904C10.0793 23.3438 9.84045 23.7551 9.49844 24.0706C9.45217 24.1132 9.41981 24.1687 9.40559 24.2299C9.39137 24.2912 9.39595 24.3553 9.41874 24.4139C9.44152 24.4725 9.48144 24.5228 9.53329 24.5584C9.58514 24.5939 9.64651 24.613 9.70938 24.6131H14.9234V29.1519C14.4806 28.8602 13.967 28.6938 13.4372 28.6704C12.9074 28.647 12.3812 28.7674 11.9143 29.0189C11.4474 29.2704 11.0574 29.6437 10.7855 30.099C10.5136 30.5543 10.3701 31.0747 10.3701 31.605C10.3701 32.1353 10.5136 32.6557 10.7855 33.111C11.0574 33.5663 11.4474 33.9396 11.9143 34.1911C12.3812 34.4426 12.9074 34.563 13.4372 34.5396C13.967 34.5162 14.4806 34.3498 14.9234 34.0581V38.5984H1.48594C1.41393 38.5986 1.34261 38.5845 1.27606 38.557C1.2095 38.5295 1.14902 38.4892 1.09808 38.4383C1.04714 38.3874 1.00673 38.327 0.979176 38.2605C0.951621 38.1939 0.937459 38.1226 0.9375 38.0506ZM20.0887 24.6131C19.797 25.056 19.6306 25.5696 19.6072 26.0993C19.5838 26.6291 19.7043 27.1554 19.9558 27.6223C20.2073 28.0891 20.5805 28.4792 21.0358 28.7511C21.4911 29.023 22.0116 29.1665 22.5419 29.1665C23.0722 29.1665 23.5926 29.023 24.0479 28.7511C24.5032 28.4792 24.8764 28.0891 25.1279 27.6223C25.3795 27.1554 25.4999 26.6291 25.4765 26.0993C25.4531 25.5696 25.2867 25.056 24.995 24.6131H29.5344V38.0522C29.5342 38.1972 29.4765 38.3363 29.3739 38.4388C29.2713 38.5413 29.1322 38.599 28.9872 38.5991H15.5497V33.3838C15.5497 33.3208 15.5307 33.2593 15.4951 33.2073C15.4596 33.1554 15.4092 33.1153 15.3505 33.0925C15.2919 33.0697 15.2276 33.0651 15.1663 33.0794C15.105 33.0936 15.0494 33.1261 15.0069 33.1725C14.6914 33.5145 14.28 33.7534 13.8266 33.8579C13.3732 33.9625 12.8988 33.9278 12.4654 33.7584C12.032 33.589 11.6598 33.2929 11.3974 32.9086C11.135 32.5243 10.9946 32.0698 10.9946 31.6045C10.9946 31.1392 11.135 30.6847 11.3974 30.3005C11.6598 29.9162 12.032 29.62 12.4654 29.4507C12.8988 29.2813 13.3732 29.2466 13.8266 29.3511C14.28 29.4557 14.6914 29.6945 15.0069 30.0366C15.0494 30.083 15.105 30.1154 15.1663 30.1297C15.2276 30.144 15.2919 30.1394 15.3505 30.1166C15.4092 30.0937 15.4596 30.0537 15.4951 30.0017C15.5307 29.9498 15.5497 29.8883 15.5497 29.8253V24.6116L20.0887 24.6131ZM1.48438 10H14.9234V15.2147C14.9234 15.2776 14.9424 15.3391 14.978 15.3911C15.0135 15.4431 15.0639 15.4831 15.1226 15.5059C15.1813 15.5288 15.2455 15.5334 15.3068 15.5191C15.3681 15.5048 15.4237 15.4723 15.4663 15.4259C15.7817 15.0839 16.1931 14.845 16.6465 14.7404C17.0999 14.6358 17.5743 14.6705 18.0078 14.8398C18.4412 15.0092 18.8134 15.3054 19.0758 15.6896C19.3383 16.0739 19.4786 16.5284 19.4786 16.9938C19.4786 17.4591 19.3383 17.9136 19.0758 18.2979C18.8134 18.6821 18.4412 18.9783 18.0078 19.1477C17.5743 19.317 17.0999 19.3517 16.6465 19.2471C16.1931 19.1425 15.7817 18.9036 15.4663 18.5616C15.4237 18.5152 15.3681 18.4827 15.3068 18.4684C15.2455 18.4541 15.1813 18.4587 15.1226 18.4816C15.0639 18.5044 15.0135 18.5444 14.978 18.5964C14.9424 18.6484 14.9234 18.7099 14.9234 18.7728V23.9866H10.3831C10.6748 23.5437 10.8412 23.0301 10.8646 22.5003C10.888 21.9705 10.7676 21.4443 10.5161 20.9774C10.2646 20.5106 9.89134 20.1205 9.43603 19.8486C8.98072 19.5767 8.46031 19.4332 7.93 19.4332C7.39969 19.4332 6.87928 19.5767 6.42397 19.8486C5.96866 20.1205 5.59545 20.5106 5.34392 20.9774C5.0924 21.4443 4.97196 21.9705 4.99536 22.5003C5.01877 23.0301 5.18516 23.5437 5.47687 23.9866H0.9375V10.5491C0.937336 10.4771 0.951353 10.4058 0.978751 10.3393C1.00615 10.2727 1.04639 10.2122 1.09718 10.1612C1.14796 10.1102 1.2083 10.0698 1.27474 10.0421C1.34117 10.0144 1.41241 10.0001 1.48438 10Z" fill="currentColor"/>
                </g>
                <defs>
                <clipPath id="clip0_144_1228">
                <rect width="40" height="40" fill="white"/>
                </clipPath>
                </defs>
</svg>
