<svg width="12" height="12" fill="none" xmlns="http://www.w3.org/2000/svg"><path d="M2.5 1.5V1a.5.5 0 00-.5.5h.5zm7 9v.5a.5.5 0 00.5-.5h-.5zm-7 0H2a.5.5 0 00.5.5v-.5zm4.5-9l.354-.354A.5.5 0 007 1v.5zM9.5 4h.5a.5.5 0 00-.146-.354L9.5 4zM7.854 6.354a.5.5 0 10-.707-.708L7.5 6l.354.354zM5.4 8.1l-.354.354a.5.5 0 00.708 0L5.4 8.1zm-.546-1.254a.5.5 0 00-.708.708L4.5 7.2l.354-.354zM9.5 10.5V10h-7v1h7v-.5zm-7 0H3v-9H2v9h.5zm0-9V2H7V1H2.5v.5zm7 2.5H9v6.5h1V4h-.5zM7 1.5l-.354.354 2.5 2.5L9.5 4l.354-.354-2.5-2.5L7 1.5zm-.5 0H6v2h1v-2h-.5zm1 3V5h2V4h-2v.5zm-1-1H6A1.5 1.5 0 007.5 5V4a.5.5 0 01-.5-.5h-.5zm1 2.5l-.353-.354-2.1 2.1.353.354.354.354 2.1-2.1L7.5 6zm-3 1.2l-.354.354.9.9L5.4 8.1l.354-.354-.9-.9L4.5 7.2z" fill="#333"/></svg>