<svg width="24" height="24" viewBox="0 0 24 24" fill="none" xmlns="http://www.w3.org/2000/svg">
    <path
        d="M5 3V2.25C4.58579 2.25 4.25 2.58579 4.25 3H5ZM19 21V21.75C19.4142 21.75 19.75 21.4142 19.75 21H19ZM5 21H4.25C4.25 21.4142 4.58579 21.75 5 21.75V21ZM14 3L14.5303 2.46967C14.3897 2.32902 14.1989 2.25 14 2.25V3ZM19 8H19.75C19.75 7.80109 19.671 7.61032 19.5303 7.46967L19 8ZM8 16.25C7.58579 16.25 7.25 16.5858 7.25 17C7.25 17.4142 7.58579 17.75 8 17.75V17V16.25ZM16 17.75C16.4142 17.75 16.75 17.4142 16.75 17C16.75 16.5858 16.4142 16.25 16 16.25V17V17.75ZM8 12.25C7.58579 12.25 7.25 12.5858 7.25 13C7.25 13.4142 7.58579 13.75 8 13.75V13V12.25ZM14 13.75C14.4142 13.75 14.75 13.4142 14.75 13C14.75 12.5858 14.4142 12.25 14 12.25V13V13.75ZM19 21V20.25H5V21V21.75H19V21ZM5 21H5.75V3H5H4.25V21H5ZM5 3V3.75H14V3V2.25H5V3ZM19 8H18.25V21H19H19.75V8H19ZM14 3L13.4697 3.53033L18.4697 8.53033L19 8L19.5303 7.46967L14.5303 2.46967L14 3ZM13 3H12.25V7H13H13.75V3H13ZM15 9V9.75H19V9V8.25H15V9ZM13 7H12.25C12.25 8.51878 13.4812 9.75 15 9.75V9V8.25C14.3096 8.25 13.75 7.69036 13.75 7H13ZM8 17V17.75H16V17V16.25H8V17ZM8 13V13.75H14V13V12.25H8V13Z"
        fill="#333333" stroke="#333333" />
</svg>