<svg width="32" height="32" fill="none" xmlns="http://www.w3.org/2000/svg"><path d="M6.666 4v-.5a.5.5 0 00-.5.5h.5zm18.667 24v.5a.5.5 0 00.5-.5h-.5zM6.666 28h-.5a.5.5 0 00.5.5V28zm12-24l.354-.354a.5.5 0 00-.354-.146V4zm6.667 6.667h.5a.5.5 0 00-.147-.354l-.353.354zm-14.667 11.5a.5.5 0 100 1v-1zm10.667 1a.5.5 0 000-1v1zm-10.667-6.334a.5.5 0 000 1v-1zm8 1a.5.5 0 100-1v1zM25.333 28v-.5H6.666v1h18.667V28zM6.666 28h.5V4h-1v24h.5zm0-24v.5h12v-1h-12V4zm18.667 6.667h-.5V28h1V10.667h-.5zM18.666 4l-.354.354 6.667 6.666.354-.353.353-.354-6.666-6.667-.354.354zm-1.333 0h-.5v5.333h1V4h-.5zm2.666 8v.5h5.334v-1h-5.334v.5zm-2.666-2.667h-.5a3.167 3.167 0 003.166 3.167v-1a2.167 2.167 0 01-2.166-2.167h-.5zm-6.667 13.334v.5h10.667v-1H10.666v.5zm0-5.334v.5h8v-1h-8v.5z" fill="#333" /></svg>