<svg width="12" height="12" fill="none" xmlns="http://www.w3.org/2000/svg"><path d="M2 8l-.354-.354A.5.5 0 001.5 8H2zm6.5-6.5l.354-.354a.5.5 0 00-.708 0L8.5 1.5zm2 2l.354.354a.5.5 0 000-.708L10.5 3.5zM4 10v.5a.5.5 0 00.354-.146L4 10zm-2 0h-.5a.5.5 0 00.5.5V10zm4-.5a.5.5 0 000 1v-1zm4.25 1a.5.5 0 000-1v1zM2 8l.354.354 6.5-6.5L8.5 1.5l-.354-.354-6.5 6.5L2 8zm6.5-6.5l-.354.354 2 2L10.5 3.5l.354-.354-2-2L8.5 1.5zm2 2l-.354-.354-6.5 6.5L4 10l.354.354 6.5-6.5L10.5 3.5zM4 10v-.5H2v1h2V10zm-2 0h.5V8h-1v2H2zm5-7l-.354.354 2 2L9 5l.354-.354-2-2L7 3zm-1 7v.5h4.25v-1H6v.5z" fill="#333"/></svg>