<svg width="16" height="16" viewBox="0 0 16 16" fill="none" xmlns="http://www.w3.org/2000/svg">
    <path
        d="M12.6667 9.33329C13.403 9.33329 14 8.73634 14 7.99996C14 7.26358 13.403 6.66663 12.6667 6.66663M12.6667 9.33329C11.9303 9.33329 11.3333 8.73634 11.3333 7.99996C11.3333 7.26358 11.9303 6.66663 12.6667 6.66663M12.6667 9.33329V13.3333M12.6667 6.66663V2.66663M8 10.6666C7.26362 10.6666 6.66667 11.2636 6.66667 12C6.66667 12.7363 7.26362 13.3333 8 13.3333C8.73638 13.3333 9.33333 12.7363 9.33333 12C9.33333 11.2636 8.73638 10.6666 8 10.6666ZM8 10.6666V2.66663M3.33333 5.33329C4.06971 5.33329 4.66667 4.73634 4.66667 3.99996C4.66667 3.26358 4.06971 2.66663 3.33333 2.66663C2.59695 2.66663 2 3.26358 2 3.99996C2 4.73634 2.59695 5.33329 3.33333 5.33329ZM3.33333 5.33329V13.3333"
        stroke="#333333" stroke-width="1.5" stroke-linecap="round" />
</svg>