<svg width="16"
    height="16"
    viewBox="0 0 16 16"
    fill="none"
    xmlns="http://www.w3.org/2000/svg">
<path d="M11.7733 7.46667C11.62 7.26667 11.4333 7.09333 11.26 6.92C10.8133 6.52 10.3066 6.23333 9.87997 5.81333C8.88664 4.84 8.66664 3.23333 9.29997 2C8.66664 2.15333 8.11331 2.5 7.63997 2.88C5.91331 4.26667 5.2333 6.71333 6.04664 8.81333C6.0733 8.88 6.09997 8.94667 6.09997 9.03333C6.09997 9.18 5.99997 9.31333 5.86664 9.36667C5.71331 9.43333 5.55331 9.39333 5.42664 9.28667C5.3888 9.25497 5.35716 9.21655 5.33331 9.17333C4.57997 8.22 4.45997 6.85333 4.96664 5.76C3.85331 6.66667 3.24664 8.2 3.33331 9.64667C3.37331 9.98 3.41331 10.3133 3.52664 10.6467C3.61997 11.0467 3.79997 11.4467 3.99997 11.8C4.71997 12.9533 5.96664 13.78 7.30664 13.9467C8.7333 14.1267 10.26 13.8667 11.3533 12.88C12.5733 11.7733 13 10 12.3733 8.48L12.2866 8.30667C12.1466 8 11.7733 7.46667 11.7733 7.46667ZM9.66664 11.6667C9.47997 11.8267 9.1733 12 8.9333 12.0667C8.18664 12.3333 7.43997 11.96 6.99997 11.52C7.7933 11.3333 8.26664 10.7467 8.40664 10.1533C8.51997 9.62 8.30664 9.18 8.21997 8.66667C8.13997 8.17333 8.15331 7.75333 8.3333 7.29333C8.45997 7.54667 8.59331 7.8 8.7533 8C9.26664 8.66667 10.0733 8.96 10.2466 9.86667C10.2733 9.96 10.2866 10.0533 10.2866 10.1533C10.3066 10.7 10.0666 11.3 9.66664 11.6667Z"
        fill="white" />
</svg>