<svg width="40"
    height="40"
    viewBox="0 0 40 40"
    fill="none"
    xmlns="http://www.w3.org/2000/svg">
    <path d="M24.6138 7.81251L29.2388 8.42688C29.2661 8.43062 29.2937 8.4325 29.3213 8.43251C29.487 8.43251 29.646 8.36666 29.7632 8.24945C29.8804 8.13224 29.9463 7.97327 29.9463 7.80751V3.50438C29.9462 3.41535 29.9272 3.32735 29.8904 3.24628C29.8536 3.16521 29.7999 3.09293 29.7329 3.03428C29.6659 2.97564 29.5872 2.93198 29.502 2.90624C29.4167 2.88049 29.327 2.87326 29.2388 2.88501L24.6138 3.49938H21.5706C21.512 2.88078 21.2237 2.30662 20.7625 1.8902C20.3013 1.47378 19.7007 1.24536 19.0794 1.25001C18.461 1.25291 17.8654 1.48423 17.4072 1.89954C16.949 2.31485 16.6604 2.88485 16.5969 3.50001H10.6769C10.5111 3.50001 10.3521 3.56586 10.2349 3.68307C10.1177 3.80028 10.0519 3.95925 10.0519 4.12501V7.18751C10.0519 7.35327 10.1177 7.51224 10.2349 7.62945C10.3521 7.74666 10.5111 7.81251 10.6769 7.81251H16.57V9.40938C14.8452 9.96315 13.3405 11.0497 12.2723 12.5127C11.204 13.9757 10.6273 15.7398 10.625 17.5513V38.125C10.625 38.2908 10.6909 38.4497 10.8081 38.567C10.9253 38.6842 11.0842 38.75 11.25 38.75H27.1019C27.2676 38.75 27.4266 38.6842 27.5438 38.567C27.661 38.4497 27.7269 38.2908 27.7269 38.125V17.5513C27.7241 15.707 27.126 13.913 26.0215 12.4361C24.917 10.9591 23.3651 9.87831 21.5969 9.35438V7.81251H24.6138ZM24.655 4.75001C24.6826 4.75 24.7102 4.74812 24.7375 4.74438L28.6981 4.21876V7.09376L24.7375 6.56751C24.7102 6.56377 24.6826 6.56189 24.655 6.56188H21.5969V4.75001H24.655ZM11.3019 6.56251V4.75001H16.57V6.56251H11.3019ZM26.4769 31.4125H11.875V19.4375H26.4769V31.4125ZM11.875 37.5V32.6625H26.4769V37.5H11.875ZM26.4769 17.5513V18.1875H11.875V17.5513C11.8661 16.5868 12.0483 15.6301 12.4112 14.7365C12.7741 13.8429 13.3105 13.03 13.9894 12.3449C14.6682 11.6597 15.4761 11.1159 16.3663 10.7447C17.2565 10.3736 18.2114 10.1825 19.1759 10.1825C20.1404 10.1825 21.0954 10.3736 21.9856 10.7447C22.8758 11.1159 23.6837 11.6597 24.3625 12.3449C25.0414 13.03 25.5777 13.8429 25.9406 14.7365C26.3035 15.6301 26.4858 16.5868 26.4769 17.5513ZM19.1763 9.00001C18.7218 9.00344 18.2682 9.04293 17.82 9.11813V3.76751C17.8196 3.51791 17.893 3.27376 18.031 3.06576C18.169 2.85777 18.3654 2.69522 18.5955 2.59856C18.8256 2.5019 19.0792 2.47545 19.3243 2.52252C19.5694 2.5696 19.7952 2.6881 19.9731 2.86313C20.2118 3.10383 20.3464 3.42857 20.3481 3.76751V9.09001C19.96 9.03303 19.5685 9.00296 19.1763 9.00001Z"
        fill="currentColor" />
    <path d="M19.0838 30.2819C19.9731 30.2819 20.8424 30.0182 21.5818 29.5241C22.3212 29.03 22.8975 28.3277 23.2378 27.5061C23.5781 26.6845 23.6671 25.7804 23.4936 24.9082C23.32 24.036 22.8918 23.2349 22.2629 22.6061C21.634 21.9773 20.8328 21.5491 19.9606 21.3757C19.0883 21.2023 18.1843 21.2914 17.3627 21.6318C16.5411 21.9722 15.839 22.5486 15.345 23.2881C14.851 24.0276 14.5874 24.8969 14.5875 25.7862C14.5887 26.9783 15.0628 28.1212 15.9058 28.9641C16.7487 29.8069 17.8917 30.2809 19.0838 30.2819ZM19.0838 22.54C19.7258 22.54 20.3535 22.7304 20.8873 23.0871C21.4211 23.4438 21.8372 23.9508 22.0829 24.544C22.3286 25.1371 22.3929 25.7898 22.2676 26.4196C22.1424 27.0493 21.8332 27.6277 21.3792 28.0817C20.9252 28.5357 20.3468 28.8449 19.7171 28.9701C19.0874 29.0954 18.4347 29.0311 17.8415 28.7854C17.2483 28.5397 16.7413 28.1236 16.3846 27.5898C16.0279 27.0559 15.8375 26.4283 15.8375 25.7862C15.8385 24.9256 16.1808 24.1005 16.7894 23.4919C17.398 22.8833 18.2231 22.541 19.0838 22.54Z"
        fill="currentColor" />
</svg>