<svg width="16" height="16" viewBox="0 0 16 16" fill="none" xmlns="http://www.w3.org/2000/svg">
    <path
        d="M1.20312 0H6.14375C6.80625 0 7.34375 0.5375 7.34375 1.20312V6.14375C7.34375 6.80625 6.80625 7.34687 6.14062 7.34687H1.20312C0.5375 7.34375 0 6.80625 0 6.14062V1.20312C0 0.5375 0.5375 0 1.20312 0Z"
        fill="#AAAAAA" fill-opacity="0.8" />
    <path
        d="M9.85938 0H14.8C15.4625 0 16 0.5375 16 1.20312V6.14375C16 6.80625 15.4625 7.34687 14.7969 7.34687H9.85938C9.19687 7.34687 8.65625 6.80937 8.65625 6.14375V1.20312C8.65625 0.5375 9.19375 0 9.85938 0Z"
        fill="#AAAAAA" fill-opacity="0.8" />
    <path
        d="M1.20312 8.65625H6.14375C6.80625 8.65625 7.34687 9.19375 7.34687 9.85938V14.8C7.34687 15.4625 6.80937 16.0031 6.14375 16.0031H1.20312C0.5375 16 0 15.4625 0 14.7969V9.85938C0 9.19375 0.5375 8.65625 1.20312 8.65625Z"
        fill="#AAAAAA" fill-opacity="0.8" />
    <path
        d="M9.85938 8.65625H14.8C15.4625 8.65625 16.0031 9.19375 16.0031 9.85938V14.8C16.0031 15.4625 15.4656 16.0031 14.8 16.0031H9.85938C9.19687 16.0031 8.65625 15.4656 8.65625 14.8V9.85938C8.65625 9.19375 9.19375 8.65625 9.85938 8.65625Z"
        fill="#AAAAAA" fill-opacity="0.8" />
</svg>