<svg width="40" height="40" viewBox="0 0 40 40" fill="none" xmlns="http://www.w3.org/2000/svg">
<path d="M18.4107 34.6607H2.71484V33.1551C2.71484 32.7394 3.05187 32.4023 3.46764 32.4023H37.1177C37.5335 32.4023 37.8705 32.7394 37.8705 33.1551V34.6607H18.4107Z" stroke="#333333" stroke-miterlimit="10" stroke-linecap="round" stroke-linejoin="round"/>
<path d="M18.4107 38.8268H2.71484V37.3212C2.71484 36.9054 3.05187 36.5684 3.46764 36.5684H37.1177C37.5335 36.5684 37.8705 36.9054 37.8705 37.3212V38.8268H18.4107Z" stroke="#333333" stroke-miterlimit="10" stroke-linecap="round" stroke-linejoin="round"/>
<path d="M21.9115 5.83984H36.0767L38.8988 10.7527C39.1872 11.2546 38.8248 11.8804 38.2461 11.8804H15.8891L10.9959 8.09824L6.10272 11.8804H2.33985C1.7611 11.8804 1.39878 11.2546 1.6871 10.7527L4.50919 5.83984H21.9115Z" stroke="#333333" stroke-miterlimit="10" stroke-linecap="round" stroke-linejoin="round"/>
<path d="M3.84375 23.9258V32.4023" stroke="#333333" stroke-miterlimit="10" stroke-linecap="round" stroke-linejoin="round"/>
<path d="M3.84375 12.0312V19.4087" stroke="#333333" stroke-miterlimit="10" stroke-linecap="round" stroke-linejoin="round"/>
<path d="M36.6738 24.0977L36.7416 32.401" stroke="#333333" stroke-miterlimit="10" stroke-linecap="round" stroke-linejoin="round"/>
<path d="M36.7422 11.8809V19.4088" stroke="#333333" stroke-miterlimit="10" stroke-linecap="round" stroke-linejoin="round"/>
<path d="M29.168 5.83957V1.00977H32.9425V5.83957" stroke="#333333" stroke-miterlimit="10" stroke-linecap="round" stroke-linejoin="round"/>
<path d="M12.8773 11.8809H9.11328V17.1504H12.8773V11.8809Z" stroke="#333333" stroke-miterlimit="10" stroke-linecap="round" stroke-linejoin="round"/>
<path d="M9.11328 14.8906H12.8773" stroke="#333333" stroke-miterlimit="10" stroke-linecap="round" stroke-linejoin="round"/>
<path d="M23.4163 11.8809V17.1504H19.6523V11.8809" stroke="#333333" stroke-miterlimit="10" stroke-linecap="round" stroke-linejoin="round"/>
<path d="M19.6523 14.8906H23.4163" stroke="#333333" stroke-miterlimit="10" stroke-linecap="round" stroke-linejoin="round"/>
<path d="M32.932 11.8809V17.1504H29.168V11.8809" stroke="#333333" stroke-miterlimit="10" stroke-linecap="round" stroke-linejoin="round"/>
<path d="M29.168 14.8906H32.932" stroke="#333333" stroke-miterlimit="10" stroke-linecap="round" stroke-linejoin="round"/>
<path d="M11.4183 23.9434V29.2129H7.6543V23.9434" stroke="#333333" stroke-miterlimit="10" stroke-linecap="round" stroke-linejoin="round"/>
<path d="M7.6543 26.9551H11.4183" stroke="#333333" stroke-miterlimit="10" stroke-linecap="round" stroke-linejoin="round"/>
<path d="M32.932 23.9434V29.2129H29.168V23.9434" stroke="#333333" stroke-miterlimit="10" stroke-linecap="round" stroke-linejoin="round"/>
<path d="M29.168 26.9551H32.932" stroke="#333333" stroke-miterlimit="10" stroke-linecap="round" stroke-linejoin="round"/>
<path d="M9.07887 19.4082H3.84707L1.8898 22.8154C1.5956 23.3173 1.93165 23.9432 2.5104 23.9432H14.4286L20.2957 19.4082L26.1628 23.9432H38.0488C38.6276 23.9432 38.9899 23.3173 38.7016 22.8154L36.7443 19.4082H9.07887Z" stroke="#333333" stroke-miterlimit="10" stroke-linecap="round" stroke-linejoin="round"/>
<path d="M22.1741 32.4017V23.9434H18.4102V32.4017" stroke="#333333" stroke-miterlimit="10" stroke-linecap="round" stroke-linejoin="round"/>
<path d="M14.4277 23.9434V32.3515" stroke="#333333" stroke-miterlimit="10" stroke-linecap="round" stroke-linejoin="round"/>
<path d="M26.1582 23.9434V32.3515" stroke="#333333" stroke-miterlimit="10" stroke-linecap="round" stroke-linejoin="round"/>
</svg>
