<svg width="16" height="16" viewBox="0 0 16 16" fill="none" xmlns="http://www.w3.org/2000/svg">
    <path
        d="M16 6.47773V9.51836C16 9.95273 15.65 10.3027 15.2156 10.3027H6.7375C6.30313 10.3027 5.95312 9.95273 5.95312 9.51836V6.47773C5.95312 6.04336 6.30313 5.69336 6.7375 5.69336H15.2156C15.65 5.69336 16 6.04648 16 6.47773Z"
        fill="#AAAAAA" />
    <path
        d="M16 1.2375V4.27812C16 4.7125 15.65 5.0625 15.2156 5.0625H6.7375C6.30313 5.0625 5.95312 4.7125 5.95312 4.27812V1.2375C5.95312 0.803125 6.30313 0.453125 6.7375 0.453125H15.2156C15.65 0.453125 16 0.803125 16 1.2375Z"
        fill="#AAAAAA" />
    <path
        d="M16 11.7219V14.7625C16 15.1969 15.65 15.5469 15.2156 15.5469H6.7375C6.30313 15.5469 5.95312 15.1969 5.95312 14.7625V11.7219C5.95312 11.2875 6.30313 10.9375 6.7375 10.9375H15.2156C15.65 10.9375 16 11.2875 16 11.7219Z"
        fill="#AAAAAA" />
    <path
        d="M4.77187 6.47854V9.51916C4.77187 9.95354 4.42188 10.3035 3.9875 10.3035H0.784375C0.35 10.3067 0 9.95354 0 9.52229V6.48166C0 6.04729 0.35 5.69729 0.784375 5.69729H3.9875C4.42188 5.69416 4.77187 6.04729 4.77187 6.47854Z"
        fill="#AAAAAA" />
    <path
        d="M4.77187 11.7219V14.7625C4.77187 15.1969 4.42188 15.5469 3.9875 15.5469H0.784375C0.35 15.5469 0 15.1969 0 14.7625V11.7219C0 11.2875 0.35 10.9375 0.784375 10.9375H3.9875C4.42188 10.9375 4.77187 11.2875 4.77187 11.7219Z"
        fill="#AAAAAA" />
    <path
        d="M4.77187 1.2375V4.27812C4.77187 4.7125 4.42188 5.0625 3.9875 5.0625H0.784375C0.35 5.0625 0 4.7125 0 4.27812V1.2375C0 0.803125 0.35 0.453125 0.784375 0.453125H3.9875C4.42188 0.453125 4.77187 0.803125 4.77187 1.2375Z"
        fill="#AAAAAA" />
</svg>