<svg width="16" height="16" viewBox="0 0 16 16" fill="none" xmlns="http://www.w3.org/2000/svg">
    <path
        d="M8.00001 11.3333C8.1889 11.3333 8.34734 11.2693 8.47534 11.1413C8.60334 11.0133 8.66712 10.855 8.66668 10.6666V7.99992C8.66668 7.81103 8.60268 7.65281 8.47468 7.52525C8.34668 7.3977 8.18846 7.3337 8.00001 7.33325C7.81157 7.33281 7.65334 7.39681 7.52534 7.52525C7.39734 7.6537 7.33334 7.81192 7.33334 7.99992V10.6666C7.33334 10.8555 7.39734 11.0139 7.52534 11.1419C7.65334 11.2699 7.81157 11.3337 8.00001 11.3333ZM8.00001 5.99992C8.1889 5.99992 8.34734 5.93592 8.47534 5.80792C8.60334 5.67992 8.66712 5.5217 8.66668 5.33325C8.66623 5.14481 8.60223 4.98659 8.47468 4.85859C8.34712 4.73059 8.1889 4.66658 8.00001 4.66658C7.81112 4.66658 7.6529 4.73059 7.52534 4.85859C7.39779 4.98659 7.33379 5.14481 7.33334 5.33325C7.3329 5.5217 7.3969 5.68014 7.52534 5.80859C7.65379 5.93703 7.81201 6.00081 8.00001 5.99992ZM8.00001 14.6666C7.07779 14.6666 6.21112 14.4915 5.40001 14.1413C4.5889 13.791 3.88334 13.3161 3.28334 12.7166C2.68334 12.117 2.20846 11.4115 1.85868 10.5999C1.5089 9.78836 1.33379 8.9217 1.33334 7.99992C1.3329 7.07814 1.50801 6.21147 1.85868 5.39992C2.20934 4.58836 2.68423 3.88281 3.28334 3.28325C3.88246 2.6837 4.58801 2.20881 5.40001 1.85859C6.21201 1.50836 7.07868 1.33325 8.00001 1.33325C8.92134 1.33325 9.78801 1.50836 10.6 1.85859C11.412 2.20881 12.1176 2.6837 12.7167 3.28325C13.3158 3.88281 13.7909 4.58836 14.142 5.39992C14.4931 6.21147 14.668 7.07814 14.6667 7.99992C14.6653 8.9217 14.4902 9.78836 14.1413 10.5999C13.7925 11.4115 13.3176 12.117 12.7167 12.7166C12.1158 13.3161 11.4102 13.7913 10.6 14.1419C9.78979 14.4926 8.92312 14.6675 8.00001 14.6666Z"
        fill="#DD6E00" />
</svg>