<svg width="40" height="40" viewBox="0 0 40 40" fill="none" xmlns="http://www.w3.org/2000/svg">
<path d="M13.7038 19.4897C13.677 19.4896 13.6504 19.4862 13.6244 19.4797L9.7813 18.4756C9.74159 18.4653 9.70432 18.4471 9.67162 18.4224C9.63891 18.3976 9.6114 18.3666 9.59067 18.3312C9.56993 18.2958 9.55638 18.2566 9.55078 18.2159C9.54517 18.1753 9.54764 18.1339 9.55802 18.0942C9.5684 18.0545 9.5865 18.0173 9.61129 17.9845C9.63607 17.9518 9.66706 17.9243 9.70248 17.9036C9.73789 17.8829 9.77705 17.8693 9.8177 17.8637C9.85836 17.8581 9.89972 17.8606 9.93942 17.8709L13.7813 18.875C13.8549 18.8941 13.9191 18.9394 13.9617 19.0024C14.0043 19.0654 14.0225 19.1418 14.0128 19.2172C14.0032 19.2926 13.9663 19.362 13.9092 19.4122C13.8521 19.4624 13.7786 19.4901 13.7025 19.49L13.7038 19.4897Z" fill="#0E0E0E"/>
                <path d="M10.9587 29.6797C10.8952 29.6797 10.8332 29.6604 10.7809 29.6244C10.7287 29.5883 10.6887 29.5372 10.6662 29.4778C10.6437 29.4184 10.6399 29.3536 10.6552 29.2919C10.6705 29.2303 10.7042 29.1748 10.7518 29.1328L15.0315 25.3547C15.0623 25.3275 15.0981 25.3067 15.1369 25.2934C15.1758 25.2801 15.2168 25.2745 15.2578 25.2771C15.2988 25.2796 15.3388 25.2902 15.3757 25.3083C15.4126 25.3263 15.4456 25.3514 15.4727 25.3822C15.4999 25.413 15.5207 25.4488 15.5341 25.4876C15.5474 25.5265 15.5529 25.5675 15.5504 25.6085C15.5478 25.6495 15.5372 25.6896 15.5192 25.7264C15.5011 25.7633 15.476 25.7963 15.4452 25.8235L11.1655 29.6016C11.1084 29.652 11.0348 29.6797 10.9587 29.6797Z" fill="#0E0E0E"/>
                <path d="M28.7086 29.6222C28.6258 29.6222 28.5463 29.5892 28.4877 29.5306L25.1536 26.1969C25.0967 26.1379 25.0652 26.059 25.0659 25.9771C25.0666 25.8951 25.0995 25.8167 25.1574 25.7588C25.2154 25.7009 25.2938 25.668 25.3757 25.6673C25.4576 25.6666 25.5366 25.6981 25.5955 25.755L28.9296 29.0887C28.9733 29.1324 29.003 29.1881 29.0151 29.2487C29.0271 29.3093 29.0209 29.3722 28.9973 29.4293C28.9736 29.4864 28.9336 29.5352 28.8822 29.5695C28.8308 29.6038 28.7704 29.6222 28.7086 29.6222Z" fill="#0E0E0E"/>
                <path d="M17.3749 14.9775C17.3164 14.9776 17.2589 14.9613 17.2092 14.9303C17.1595 14.8994 17.1194 14.8551 17.0937 14.8025L14.9121 10.3469C14.8941 10.3099 14.8835 10.2698 14.881 10.2288C14.8784 10.1878 14.884 10.1467 14.8974 10.1078C14.9107 10.0689 14.9316 10.0331 14.9588 10.0023C14.9861 9.97146 15.0191 9.94633 15.056 9.92829C15.093 9.91025 15.1331 9.89967 15.1741 9.89714C15.2151 9.89461 15.2563 9.90019 15.2951 9.91355C15.334 9.92691 15.3698 9.9478 15.4006 9.97502C15.4314 10.0022 15.4566 10.0353 15.4746 10.0722L17.6562 14.5275C17.6742 14.5644 17.6849 14.6044 17.6874 14.6454C17.69 14.6863 17.6845 14.7274 17.6712 14.7662C17.6579 14.805 17.6371 14.8409 17.61 14.8717C17.5828 14.9024 17.5499 14.9276 17.5131 14.9456C17.4701 14.9668 17.4228 14.9777 17.3749 14.9775Z" fill="#0E0E0E"/>
                <path d="M20.4896 28.2722C19.041 28.2721 17.6249 27.8425 16.4205 27.0377C15.216 26.2328 14.2773 25.0889 13.723 23.7505C13.1687 22.4122 13.0237 20.9395 13.3063 19.5187C13.589 18.0979 14.2866 16.7929 15.3109 15.7686C16.3352 14.7443 17.6403 14.0467 19.0611 13.7642C20.4819 13.4816 21.9546 13.6266 23.2929 14.181C24.6312 14.7354 25.7751 15.6742 26.5799 16.8787C27.3847 18.0831 27.8143 19.4992 27.8143 20.9478C27.8121 22.8898 27.0397 24.7515 25.6665 26.1247C24.2933 27.4978 22.4315 28.2701 20.4896 28.2722ZM20.4896 14.2484C19.1646 14.2485 17.8694 14.6415 16.7677 15.3776C15.666 16.1138 14.8074 17.1601 14.3004 18.3843C13.7934 19.6085 13.6608 20.9555 13.9193 22.255C14.1778 23.5545 14.8159 24.7482 15.7528 25.6851C16.6898 26.622 17.8835 27.26 19.183 27.5185C20.4826 27.777 21.8296 27.6443 23.0537 27.1372C24.2779 26.6301 25.3241 25.7715 26.0603 24.6698C26.7964 23.5681 27.1893 22.2728 27.1893 20.9478C27.1869 19.1719 26.4802 17.4694 25.2242 16.2137C23.9683 14.9581 22.2656 14.2519 20.4896 14.25V14.2484Z" fill="#0E0E0E"/>
                <path d="M25.1152 15.9922C25.0551 15.9922 24.9964 15.9749 24.9459 15.9423C24.8954 15.9098 24.8554 15.8634 24.8306 15.8087C24.8058 15.754 24.7973 15.6933 24.8061 15.6339C24.8149 15.5745 24.8406 15.5189 24.8802 15.4738L28.7161 11.0988C28.7423 11.0653 28.7751 11.0375 28.8124 11.0171C28.8498 10.9967 28.8909 10.9842 28.9332 10.9802C28.9756 10.9763 29.0183 10.981 29.0587 10.9942C29.0992 11.0073 29.1365 11.0286 29.1685 11.0566C29.2004 11.0847 29.2263 11.119 29.2445 11.1574C29.2628 11.1959 29.273 11.2376 29.2745 11.2801C29.276 11.3226 29.2689 11.365 29.2535 11.4046C29.2381 11.4443 29.2147 11.4803 29.1849 11.5106L25.3489 15.8856C25.3198 15.919 25.2838 15.9457 25.2435 15.964C25.2032 15.9824 25.1595 15.992 25.1152 15.9922Z" fill="#0E0E0E"/>
                <path d="M31.1564 12.4687C30.4472 12.4687 29.754 12.2584 29.1643 11.8644C28.5747 11.4704 28.1151 10.9104 27.8437 10.2552C27.5723 9.59999 27.5013 8.87903 27.6397 8.18348C27.7781 7.48792 28.1196 6.84903 28.6211 6.34758C29.1226 5.84614 29.7615 5.50466 30.4571 5.36635C31.1527 5.22803 31.8736 5.29908 32.5288 5.57052C33.184 5.84195 33.744 6.30158 34.1379 6.89127C34.5319 7.48097 34.7421 8.17424 34.7421 8.88342C34.7409 9.83401 34.3627 10.7453 33.6905 11.4175C33.0184 12.0896 32.107 12.4677 31.1564 12.4687ZM31.1564 5.92249C30.5709 5.92249 29.9985 6.09612 29.5116 6.42142C29.0248 6.74672 28.6453 7.20909 28.4212 7.75006C28.1971 8.29102 28.1385 8.88629 28.2527 9.46059C28.3669 10.0349 28.6488 10.5624 29.0628 10.9765C29.4769 11.3905 30.0044 11.6725 30.5786 11.7868C31.1529 11.9011 31.7482 11.8425 32.2892 11.6185C32.8302 11.3944 33.2926 11.015 33.6179 10.5282C33.9433 10.0413 34.117 9.46897 34.1171 8.88342C34.1161 8.0985 33.8039 7.34598 33.2489 6.79095C32.6939 6.23592 31.9414 5.9234 31.1564 5.92249Z" fill="#0E0E0E"/>
                <path d="M6.68768 20.9553C5.97846 20.9553 5.28519 20.7449 4.69552 20.3508C4.10586 19.9568 3.64629 19.3967 3.37493 18.7414C3.10356 18.0862 3.03259 17.3652 3.17099 16.6696C3.30939 15.974 3.65094 15.3351 4.15246 14.8336C4.65397 14.3322 5.29293 13.9907 5.98852 13.8523C6.68412 13.714 7.40511 13.785 8.06034 14.0564C8.71557 14.3279 9.2756 14.7875 9.66961 15.3772C10.0636 15.9669 10.2739 16.6602 10.2739 17.3694C10.2729 18.3202 9.89466 19.2317 9.22233 19.904C8.55 20.5762 7.63845 20.9543 6.68768 20.9553ZM6.68768 14.4084C6.10205 14.4084 5.52955 14.582 5.04258 14.9073C4.55562 15.2326 4.17606 15.695 3.95191 16.2361C3.72775 16.7771 3.66907 17.3725 3.78328 17.9468C3.8975 18.5212 4.17947 19.0488 4.59356 19.463C5.00764 19.8771 5.53523 20.1591 6.1096 20.2734C6.68397 20.3877 7.27934 20.3291 7.82039 20.105C8.36145 19.8809 8.82391 19.5014 9.14927 19.0144C9.47464 18.5275 9.6483 17.955 9.6483 17.3694C9.64748 16.5844 9.3353 15.8318 8.78026 15.2767C8.22522 14.7216 7.47266 14.4094 6.68768 14.4084Z" fill="#0E0E0E"/>
                <path d="M8.5052 35.1203C7.79595 35.1204 7.10262 34.9101 6.51287 34.5161C5.92313 34.1221 5.46346 33.5621 5.192 32.9069C4.92054 32.2516 4.84948 31.5306 4.98781 30.835C5.12614 30.1393 5.46764 29.5004 5.96913 28.9988C6.47062 28.4973 7.10958 28.1557 7.80519 28.0174C8.5008 27.879 9.22183 27.95 9.87709 28.2214C10.5324 28.4928 11.0924 28.9524 11.4865 29.5421C11.8805 30.1318 12.0908 30.8251 12.0908 31.5344C12.0897 32.485 11.7116 33.3965 11.0394 34.0687C10.3673 34.741 9.45586 35.1191 8.5052 35.1203ZM8.5052 28.5737C7.91955 28.5737 7.34704 28.7473 6.86007 29.0726C6.3731 29.3979 5.99354 29.8604 5.76939 30.4014C5.54525 30.9425 5.48659 31.5379 5.60083 32.1123C5.71506 32.6866 5.99707 33.2143 6.41119 33.6284C6.8253 34.0425 7.35292 34.3245 7.92731 34.4387C8.50171 34.553 9.09708 34.4943 9.63813 34.2702C10.1792 34.046 10.6416 33.6665 10.9669 33.1795C11.2923 32.6925 11.4659 32.12 11.4658 31.5344C11.4649 30.7494 11.1527 29.9969 10.5977 29.4419C10.0426 28.8869 9.29012 28.5746 8.5052 28.5737Z" fill="#0E0E0E"/>
                <path d="M13.478 10.9181C12.6455 10.918 11.8318 10.671 11.1397 10.2084C10.4476 9.74586 9.90819 9.08843 9.58972 8.3193C9.27125 7.55016 9.188 6.70386 9.35051 5.88742C9.51301 5.07097 9.91397 4.32105 10.5027 3.73248C11.0914 3.1439 11.8414 2.74312 12.6579 2.58079C13.4744 2.41847 14.3206 2.50191 15.0897 2.82055C15.8588 3.13919 16.5161 3.67872 16.9785 4.37093C17.4409 5.06313 17.6877 5.87692 17.6877 6.70938C17.6863 7.82534 17.2423 8.89517 16.4531 9.68419C15.6639 10.4732 14.5939 10.917 13.478 10.9181ZM13.478 3.125C12.7692 3.12513 12.0763 3.33542 11.487 3.72931C10.8977 4.12319 10.4384 4.68297 10.1672 5.33786C9.89602 5.99276 9.82512 6.71336 9.96345 7.40855C10.1018 8.10374 10.4432 8.7423 10.9444 9.24349C11.4456 9.74468 12.0842 10.086 12.7794 10.2243C13.4746 10.3625 14.1952 10.2916 14.8501 10.0203C15.505 9.7491 16.0647 9.28977 16.4585 8.70042C16.8524 8.11108 17.0626 7.4182 17.0627 6.70938C17.0615 5.75904 16.6834 4.84797 16.0114 4.17601C15.3394 3.50405 14.4283 3.12608 13.478 3.125Z" fill="#0E0E0E"/>
                <path d="M31.9713 37.5C30.9969 37.5001 30.0444 37.2112 29.2342 36.6699C28.424 36.1286 27.7925 35.3592 27.4195 34.459C27.0466 33.5588 26.949 32.5682 27.1391 31.6125C27.3291 30.6568 27.7983 29.779 28.4873 29.0899C29.1763 28.4009 30.0541 27.9317 31.0098 27.7416C31.9654 27.5515 32.956 27.649 33.8562 28.0219C34.7565 28.3947 35.5259 29.0262 36.0673 29.8364C36.6086 30.6465 36.8976 31.599 36.8976 32.5734C36.8961 33.8795 36.3766 35.1317 35.4531 36.0553C34.5296 36.9789 33.2774 37.4984 31.9713 37.5ZM31.9713 28.2722C31.1205 28.2721 30.2888 28.5244 29.5814 28.997C28.8739 29.4696 28.3225 30.1415 27.9969 30.9275C27.6713 31.7135 27.5861 32.5784 27.7521 33.4129C27.918 34.2473 28.3277 35.0138 28.9293 35.6154C29.5309 36.217 30.2974 36.6267 31.1319 36.7927C31.9663 36.9586 32.8313 36.8734 33.6173 36.5478C34.4033 36.2222 35.0751 35.6708 35.5477 34.9634C36.0204 34.2559 36.2726 33.4242 36.2726 32.5734C36.2712 31.4331 35.8176 30.3398 35.0113 29.5335C34.2049 28.7271 33.1117 28.2735 31.9713 28.2722Z" fill="#0E0E0E"/>
</svg>
