<svg width="40" height="40" viewBox="0 0 40 40" fill="none" xmlns="http://www.w3.org/2000/svg">
<path d="M18.0256 36.8925C16.2387 36.888 14.4641 36.5959 12.77 36.0275C9.86941 35.0501 7.22576 33.4329 5.03467 31.2956C4.52078 30.7137 4.06799 30.0806 3.68342 29.4063C2.10166 26.5954 1.62226 23.2965 2.33851 20.1516C3.05476 17.0068 4.91543 14.2409 7.55842 12.3922C12.3175 9.08782 18.1484 8.55938 18.3941 8.53844C30.1669 7.11344 35.3094 1.87844 35.3597 1.82563C35.3961 1.78745 35.4416 1.75913 35.492 1.7433C35.5423 1.72747 35.5959 1.72465 35.6476 1.7351C35.6993 1.74555 35.7476 1.76894 35.7878 1.80308C35.8281 1.83721 35.859 1.88099 35.8778 1.93032C39.7372 12.0416 38.21 19.4884 36.2497 23.9553C34.1531 28.7309 31.2075 31.1484 30.9944 31.3191C26.2722 35.5734 21.7812 36.8925 18.0256 36.8925ZM35.4591 2.59375C34.1087 3.80875 28.8769 7.89907 18.459 9.16032C18.3897 9.16625 12.534 9.69907 7.91561 12.9063C5.40035 14.665 3.62937 17.2966 2.94726 20.289C2.26515 23.2814 2.72071 26.4206 4.2253 29.0956C4.58689 29.7299 5.01244 30.3255 5.4953 30.8731C7.6279 32.9277 10.1867 34.4875 12.99 35.4419C19.0559 37.4488 24.9753 35.9041 30.5837 30.8481L30.5991 30.8353C30.6303 30.8116 33.6272 28.3944 35.6928 23.6728C37.5662 19.3831 39.0275 12.2656 35.4591 2.59375Z" fill="#0E0E0E"/>
                <path d="M2.03146 38.2706C2.01482 38.2706 1.99822 38.2694 1.98177 38.2669C1.94124 38.2604 1.90239 38.246 1.86744 38.2245C1.83248 38.2029 1.80211 38.1747 1.77805 38.1415C1.754 38.1082 1.73673 38.0706 1.72723 38.0306C1.71773 37.9907 1.7162 37.9493 1.72271 37.9088C3.50677 26.7838 18.7227 23.101 18.8761 23.065C30.0611 19.9653 31.893 11.6497 31.9102 11.565C31.9284 11.4855 31.9771 11.4163 32.0456 11.3721C32.1142 11.328 32.1974 11.3124 32.2773 11.3287C32.3572 11.345 32.4276 11.392 32.4734 11.4595C32.5192 11.527 32.5368 11.6097 32.5224 11.69C32.5049 11.7772 30.6136 20.46 19.0305 23.6697C18.8693 23.7078 4.05708 27.2978 2.33958 38.0069C2.32798 38.0803 2.29059 38.1472 2.23412 38.1955C2.17765 38.2439 2.10579 38.2705 2.03146 38.2706Z" fill="#0E0E0E"/>
                <path d="M32.0429 19.6485H27.0063C26.9235 19.6485 26.844 19.6155 26.7854 19.5569C26.7268 19.4983 26.6938 19.4188 26.6938 19.336V14.2338C26.6938 14.1509 26.7268 14.0714 26.7854 14.0128C26.844 13.9542 26.9235 13.9213 27.0063 13.9213C27.0892 13.9213 27.1687 13.9542 27.2273 14.0128C27.2859 14.0714 27.3188 14.1509 27.3188 14.2338V19.0235H32.0429C32.1258 19.0235 32.2053 19.0564 32.2639 19.115C32.3225 19.1736 32.3554 19.2531 32.3554 19.336C32.3554 19.4188 32.3225 19.4983 32.2639 19.5569C32.2053 19.6155 32.1258 19.6485 32.0429 19.6485Z" fill="#0E0E0E"/>
                <path d="M25.8251 25.8009C25.7933 25.801 25.7617 25.7963 25.7314 25.7869L18.8551 23.6678C18.7771 23.6437 18.7116 23.59 18.6726 23.5183C18.6337 23.4465 18.6243 23.3623 18.6467 23.2837L20.5217 16.6994C20.5444 16.6196 20.5978 16.5522 20.6703 16.5119C20.7061 16.4919 20.7456 16.4792 20.7864 16.4745C20.8271 16.4698 20.8684 16.4731 20.9079 16.4844C20.9474 16.4956 20.9843 16.5145 21.0165 16.54C21.0486 16.5655 21.0755 16.5971 21.0954 16.633C21.1154 16.6688 21.1281 16.7083 21.1328 16.7491C21.1375 16.7898 21.1342 16.8311 21.1229 16.8706L19.3314 23.1606L25.9173 25.1897C25.989 25.2117 26.0505 25.2588 26.0903 25.3223C26.1302 25.3859 26.1459 25.4616 26.1345 25.5358C26.1232 25.61 26.0855 25.6776 26.0284 25.7262C25.9713 25.7749 25.8986 25.8014 25.8236 25.8009H25.8251Z" fill="#0E0E0E"/>
                <path d="M17.1249 30.5937C17.0991 30.5938 17.0734 30.5907 17.0483 30.5844L8.54834 28.4462C8.50853 28.4362 8.47108 28.4185 8.43813 28.394C8.40518 28.3695 8.37738 28.3388 8.35631 28.3036C8.33524 28.2683 8.32132 28.2293 8.31534 28.1887C8.30937 28.1481 8.31145 28.1067 8.32147 28.0669L10.6215 18.9506C10.6417 18.8702 10.6931 18.8012 10.7643 18.7587C10.8355 18.7161 10.9206 18.7036 11.001 18.7239C11.0814 18.7442 11.1504 18.7955 11.193 18.8667C11.2355 18.9379 11.248 19.023 11.2277 19.1034L9.00428 27.9159L17.2012 29.9784C17.2749 29.9972 17.3392 30.0422 17.3821 30.1051C17.4249 30.1679 17.4434 30.2442 17.4341 30.3197C17.4247 30.3952 17.3882 30.4646 17.3312 30.5151C17.2743 30.5655 17.201 30.5935 17.1249 30.5937Z" fill="#0E0E0E"/>
</svg>
