<svg width="20" height="20" viewBox="0 0 20 20" fill="none" xmlns="http://www.w3.org/2000/svg">
<path fill-rule="evenodd" clip-rule="evenodd" d="M7.83275 2.0805C7.69069 2.20799 7.54198 2.32786 7.38723 2.4396C7.11903 2.61959 6.81752 2.74379 6.50071 2.80679C6.36301 2.83379 6.21901 2.84549 5.9319 2.86799C5.21098 2.92559 4.85007 2.95439 4.54946 3.06059C4.20565 3.18177 3.89337 3.37847 3.6356 3.63623C3.37782 3.894 3.18111 4.20626 3.05993 4.55006C2.95372 4.85066 2.92492 5.21155 2.86732 5.93244C2.85699 6.12298 2.83656 6.31285 2.80612 6.50123C2.74312 6.81803 2.61892 7.11952 2.43891 7.38772C2.36061 7.50471 2.26701 7.61451 2.0798 7.83321C1.61089 8.384 1.37598 8.65939 1.23828 8.94739C0.920573 9.61338 0.920573 10.3874 1.23828 11.0534C1.37598 11.3414 1.61089 11.6167 2.0798 12.1675C2.26701 12.3862 2.36061 12.496 2.43891 12.613C2.61892 12.8812 2.74312 13.1827 2.80612 13.4995C2.83312 13.6372 2.84482 13.7812 2.86732 14.0683C2.92492 14.7892 2.95372 15.1501 3.05993 15.4507C3.18111 15.7945 3.37782 16.1067 3.6356 16.3645C3.89337 16.6223 4.20565 16.819 4.54946 16.9402C4.85007 17.0464 5.21098 17.0752 5.9319 17.1328C6.21901 17.1553 6.36301 17.167 6.50071 17.194C6.81752 17.257 7.11903 17.3821 7.38723 17.5611C7.50424 17.6394 7.61404 17.733 7.83275 17.9202C8.38356 18.3891 8.65897 18.624 8.94697 18.7617C9.61299 19.0794 10.387 19.0794 11.053 18.7617C11.341 18.624 11.6164 18.3891 12.1673 17.9202C12.386 17.733 12.4958 17.6394 12.6128 17.5611C12.881 17.3812 13.1825 17.257 13.4993 17.194C13.637 17.167 13.781 17.1553 14.0681 17.1328C14.789 17.0752 15.1499 17.0464 15.4505 16.9402C15.7944 16.819 16.1066 16.6223 16.3644 16.3645C16.6222 16.1067 16.8189 15.7945 16.9401 15.4507C17.0463 15.1501 17.0751 14.7892 17.1327 14.0683C17.1552 13.7812 17.1669 13.6372 17.1939 13.4995C17.2569 13.1827 17.382 12.8812 17.5611 12.613C17.6394 12.496 17.733 12.3862 17.9202 12.1675C18.3891 11.6167 18.624 11.3414 18.7617 11.0534C19.0794 10.3874 19.0794 9.61338 18.7617 8.94739C18.624 8.65939 18.3891 8.384 17.9202 7.83321C17.7927 7.69116 17.6728 7.54246 17.5611 7.38772C17.381 7.11956 17.2561 6.81819 17.1939 6.50123C17.1634 6.31285 17.143 6.12298 17.1327 5.93244C17.0751 5.21155 17.0463 4.85066 16.9401 4.55006C16.8189 4.20626 16.6222 3.894 16.3644 3.63623C16.1066 3.37847 15.7944 3.18177 15.4505 3.06059C15.1499 2.95439 14.789 2.92559 14.0681 2.86799C13.8775 2.85765 13.6877 2.83723 13.4993 2.80679C13.1823 2.74453 12.8809 2.6197 12.6128 2.4396C12.458 2.32786 12.3093 2.20799 12.1673 2.0805C11.6164 1.61161 11.341 1.37671 11.053 1.23902C10.7243 1.08167 10.3645 1 10 1C9.63554 1 9.27572 1.08167 8.94697 1.23902C8.65897 1.37671 8.38356 1.61161 7.83275 2.0805ZM13.448 6.55343C13.5851 6.69077 13.662 6.87688 13.662 7.07092C13.662 7.26496 13.5851 7.45107 13.448 7.58841L7.58794 13.4491C7.52117 13.5222 7.44028 13.581 7.35016 13.6219C7.26004 13.6629 7.16256 13.6851 7.06359 13.6874C6.96463 13.6896 6.86624 13.6718 6.77436 13.6349C6.68249 13.5981 6.59903 13.543 6.52904 13.473C6.45904 13.403 6.40396 13.3195 6.36711 13.2277C6.33026 13.1358 6.31241 13.0374 6.31465 12.9385C6.31688 12.8395 6.33914 12.742 6.38009 12.6519C6.42104 12.5618 6.47983 12.4809 6.55291 12.4141L12.4121 6.55433C12.5494 6.41726 12.7355 6.34028 12.9296 6.34028C13.1236 6.34028 13.3097 6.41726 13.4471 6.55433M13.4174 12.4429C13.4174 12.7019 13.3145 12.9503 13.1314 13.1334C12.9482 13.3165 12.6999 13.4194 12.4409 13.4194C12.1819 13.4194 11.9335 13.3165 11.7504 13.1334C11.5672 12.9503 11.4643 12.7019 11.4643 12.4429C11.4643 12.184 11.5672 11.9356 11.7504 11.7525C11.9335 11.5693 12.1819 11.4664 12.4409 11.4664C12.6999 11.4664 12.9482 11.5693 13.1314 11.7525C13.3145 11.9356 13.4174 12.184 13.4174 12.4429ZM7.55824 8.537C7.81723 8.537 8.06561 8.43412 8.24875 8.25099C8.43188 8.06786 8.53476 7.81949 8.53476 7.56051C8.53476 7.30153 8.43188 7.05316 8.24875 6.87003C8.06561 6.68691 7.81723 6.58403 7.55824 6.58403C7.29925 6.58403 7.05087 6.68691 6.86773 6.87003C6.6846 7.05316 6.58171 7.30153 6.58171 7.56051C6.58171 7.81949 6.6846 8.06786 6.86773 8.25099C7.05087 8.43412 7.29925 8.537 7.55824 8.537Z" fill="#333333"/>
</svg>
