<svg width="20" height="20" viewBox="0 0 20 20" fill="none" xmlns="http://www.w3.org/2000/svg">
<path d="M10.1029 1.56174C10.0396 1.52374 9.96044 1.52374 9.8971 1.56174L2.11916 6.2285C1.94523 6.33286 2.01922 6.6 2.22206 6.6H17.7779C17.9808 6.6 18.0548 6.33286 17.8808 6.2285L10.1029 1.56174Z" fill="#333333"/>
<path d="M3.19531 8.29883V18.4988H8.29531V14.2488C8.29531 13.7388 8.63531 13.3988 9.14531 13.3988H10.8453C11.3553 13.3988 11.6953 13.7388 11.6953 14.2488V18.4988H16.7953V8.29883H3.19531ZM6.59531 15.0988H4.89531V13.3988H6.59531V15.0988ZM6.59531 11.6988H4.89531V9.99883H6.59531V11.6988ZM10.8453 11.6988H9.14531V9.99883H10.8453V11.6988ZM15.0953 15.0988H13.3953V13.3988H15.0953V15.0988ZM15.0953 11.6988H13.3953V9.99883H15.0953V11.6988Z" fill="#333333"/>
</svg>
