<svg width="60" height="60" viewBox="0 0 60 60" fill="none" xmlns="http://www.w3.org/2000/svg">
<path d="M13.5 51.5776V42.7499C13.5 41.8672 13.9904 41.1806 14.8732 40.8863L25.7607 37.1591V32.9414" stroke="#333333" stroke-miterlimit="10"/>
<path d="M47.4364 51.5776V42.7499C47.4364 41.8672 46.946 41.1806 46.0632 40.8863L35.1758 37.1591V32.9414" stroke="#333333" stroke-miterlimit="10"/>
<path d="M38.7088 19.2099C38.7088 14.6979 34.9816 10.9707 30.4696 10.9707C25.9577 10.9707 22.2305 14.6979 22.2305 19.2099L23.0152 29.1165C23.1132 30.4897 23.8979 31.6667 25.0749 32.2552L29.0964 34.9035H31.7447L35.8643 32.2552C36.7471 31.7648 37.4337 30.9801 37.7279 29.9992C37.826 29.705 37.826 29.4107 37.9241 29.1165L38.7088 19.2099Z" stroke="#333333" stroke-miterlimit="10"/>
<path d="M28.7035 44.6141L27.7227 41.4754L30.371 39.5137L33.0193 41.4754L32.0384 44.6141H28.7035Z" stroke="#333333" stroke-miterlimit="10"/>
<path d="M28.7035 44.6133L27.7227 51.5773" stroke="#333333" stroke-miterlimit="10"/>
<path d="M31.8438 44.6133L32.9227 51.5773" stroke="#333333" stroke-miterlimit="10"/>
<path d="M25.6641 37.2578L28.7047 40.6908" stroke="#333333" stroke-miterlimit="10"/>
<path d="M35.4708 37.2578L32.332 40.6908" stroke="#333333" stroke-miterlimit="10"/>
<path d="M19.875 20.1902V19.0131C19.875 13.2261 24.5831 8.41992 30.3701 8.41992C36.1572 8.41992 40.8652 13.128 40.8652 18.915V20.1902" stroke="#333333" stroke-miterlimit="10"/>
<path d="M22.8234 26.2707C20.8617 26.4669 19.1942 24.9956 18.998 23.132C18.8019 21.1703 20.2732 19.5028 22.1368 19.3066L22.8234 26.2707Z" stroke="#333333" stroke-miterlimit="10"/>
<path d="M38.2188 26.2707C40.1805 26.4669 41.8479 24.9956 42.0441 23.132C42.2402 21.1703 40.769 19.5028 38.9053 19.3066L38.2188 26.2707Z" stroke="#333333" stroke-miterlimit="10"/>
<path d="M40.9622 25.291V29.8029L40.1775 31.078H30.8594" stroke="#333333" stroke-miterlimit="10"/>
</svg>
