<svg width="60" height="60" viewBox="0 0 60 60" fill="none" xmlns="http://www.w3.org/2000/svg">
<path d="M44.8125 19.3125H48.75C49.3125 19.3125 49.6875 19.6875 49.6875 20.25V43.5C49.6875 44.0625 49.3125 44.4375 48.75 44.4375H10.3125C9.75 44.4375 9.375 44.0625 9.375 43.5V20.25C9.375 19.6875 9.75 19.3125 10.3125 19.3125H14.0625" stroke="#333333" stroke-miterlimit="10"/>
<path d="M9.375 38.9062H49.6875" stroke="#333333" stroke-miterlimit="10"/>
<path d="M19.5 43.875V50.8125" stroke="#333333" stroke-miterlimit="10"/>
<path d="M39.1875 43.875V50.8125" stroke="#333333" stroke-miterlimit="10"/>
<path d="M15.9375 50.8125H42.8438" stroke="#333333" stroke-miterlimit="10"/>
<path d="M16.0312 38.625V9.375H43.0312V38.625" stroke="#333333" stroke-miterlimit="10"/>
<path d="M16.125 14.8125H43.0313" stroke="#333333" stroke-miterlimit="10"/>
<path d="M18.2812 12.1875H20.4375" stroke="#333333" stroke-miterlimit="10"/>
<path d="M21.1875 12.1875H23.3437" stroke="#333333" stroke-miterlimit="10"/>
<path d="M24.1875 12.1875H26.25" stroke="#333333" stroke-miterlimit="10"/>
<path d="M26.625 25.2188L30.75 29.4375" stroke="#333333" stroke-miterlimit="10"/>
<path d="M29.8125 24.4688H25.875V28.4063" stroke="#333333" stroke-miterlimit="10"/>
<path d="M25.8745 32.3432C23.9057 32.1557 22.0307 31.1245 20.812 29.2495C18.6557 26.062 19.4995 21.6557 22.687 19.4995C25.8745 17.3432 30.2807 18.187 32.4369 21.3745C33.4682 22.8745 33.7495 24.562 33.562 26.2495" stroke="#333333" stroke-miterlimit="10" stroke-dasharray="1.99 1.99"/>
<path d="M36.0938 21.6562H40.125" stroke="#333333" stroke-miterlimit="10"/>
<path d="M36.0938 25.5938H40.125" stroke="#333333" stroke-miterlimit="10"/>
<path d="M33.5625 29.4375H40.125" stroke="#333333" stroke-miterlimit="10"/>
<path d="M28.6875 33.375H40.125" stroke="#333333" stroke-miterlimit="10"/>
</svg>
