<svg width="22" height="40" fill="none" xmlns="http://www.w3.org/2000/svg"><mask id="prefix__a" fill="#fff"><path d="M10.998 15l5 5-5 5-1.06-1.06L13.877 20l-3.94-3.94L10.998 15z"/></mask><path d="M10.998 15l5 5-5 5-1.06-1.06L13.877 20l-3.94-3.94L10.998 15z" fill="#fff"/><path d="M15.998 20l1.06 1.06L18.12 20l-1.06-1.06-1.06 1.06zm-5-5l1.06-1.06-1.06-1.061-1.06 1.06L10.998 15zm0 10l-1.06 1.06 1.06 1.061 1.06-1.06L10.999 25zm-1.06-8.94L8.877 15l-1.06 1.06 1.06 1.061 1.06-1.06zm0 7.88l-1.061-1.061-1.06 1.06L8.876 25l1.06-1.06zM13.877 20l1.06 1.06L15.998 20l-1.06-1.06L13.877 20zm2.121 0l1.06-1.06-5-5-1.06 1.06-1.06 1.06 5 5 1.06-1.06zm-5 5l1.06 1.06 5-5-1.06-1.06-1.06-1.06-5 5 1.06 1.06zm0-10l-1.06-1.06L8.877 15l1.06 1.06 1.061 1.061 1.06-1.06L10.999 15zm-1.06 8.94L8.877 25l1.06 1.06L10.998 25l1.06-1.06-1.06-1.061-1.06 1.06zM13.877 20l-1.06-1.06-3.94 3.939 1.06 1.06L10.998 25l3.94-3.94L13.877 20zm-3.94-3.94l-1.06 1.061 3.94 3.94L13.876 20l1.06-1.06L10.998 15l-1.06 1.06z" fill="#AAA" mask="url(#prefix__a)"/><mask id="prefix__b" fill="#fff"><path d="M4.936 15l5 5-5 5-1.061-1.06L7.815 20l-3.94-3.94L4.935 15z"/></mask><path d="M4.936 15l5 5-5 5-1.061-1.06L7.815 20l-3.94-3.94L4.935 15z" fill="#fff"/><path d="M9.936 20l1.06 1.06L12.057 20l-1.06-1.06L9.935 20zm-5-5l1.06-1.06-1.06-1.061-1.061 1.06L4.935 15zm0 10l-1.061 1.06 1.06 1.061 1.061-1.06L4.936 25zm-1.061-8.94L2.815 15l-1.061 1.06 1.06 1.061 1.061-1.06zm0 7.88l-1.06-1.061-1.061 1.06L2.814 25l1.061-1.06zM7.815 20l1.06 1.06L9.935 20l-1.06-1.06L7.815 20zm2.12 0l1.061-1.06-5-5L4.936 15l-1.061 1.06 5 5L9.935 20zm-5 5l1.061 1.06 5-5L9.936 20l-1.061-1.06-5 5L4.935 25zm0-10l-1.06-1.06L2.815 15l1.06 1.06 1.06 1.061 1.061-1.06L4.936 15zm-1.06 8.94L2.815 25l1.06 1.06L4.935 25l1.061-1.06-1.06-1.061-1.061 1.06zM7.815 20l-1.061-1.06-3.94 3.939 1.061 1.06L4.935 25l3.94-3.94L7.815 20zm-3.94-3.94l-1.06 1.061 3.939 3.94L7.814 20l1.061-1.06L4.935 15l-1.06 1.06z" fill="#AAA" mask="url(#prefix__b)"/></svg>