<svg width="40"
    height="40"
    viewBox="0 0 40 40"
    fill="none"
    xmlns="http://www.w3.org/2000/svg">
    <path d="M12.335 15.7332C11.7911 15.7332 11.2594 15.8944 10.8072 16.1966C10.3549 16.4988 10.0025 16.9283 9.79433 17.4308C9.58619 17.9333 9.53173 18.4862 9.63784 19.0197C9.74395 19.5531 10.0059 20.0431 10.3905 20.4277C10.7751 20.8123 11.2651 21.0742 11.7985 21.1803C12.332 21.2864 12.8849 21.232 13.3874 21.0238C13.8899 20.8157 14.3194 20.4632 14.6215 20.011C14.9237 19.5587 15.085 19.0271 15.085 18.4832C15.0842 17.7541 14.7942 17.0551 14.2786 16.5395C13.7631 16.024 13.0641 15.734 12.335 15.7332ZM12.335 19.9832C12.0383 19.9832 11.7483 19.8952 11.5016 19.7304C11.255 19.5655 11.0627 19.3313 10.9492 19.0572C10.8356 18.7831 10.8059 18.4815 10.8638 18.1905C10.9217 17.8995 11.0646 17.6323 11.2743 17.4225C11.4841 17.2127 11.7514 17.0699 12.0424 17.012C12.3333 16.9541 12.6349 16.9838 12.909 17.0973C13.1831 17.2109 13.4174 17.4031 13.5822 17.6498C13.747 17.8965 13.835 18.1865 13.835 18.4832C13.835 18.881 13.677 19.2625 13.3957 19.5438C13.1144 19.8251 12.7328 19.9832 12.335 19.9832Z"
        fill="currentColor" />
    <path d="M6.89188 25.5206C7.33992 25.5204 7.77783 25.3873 8.15025 25.1382C8.52266 24.8891 8.81286 24.5352 8.98415 24.1212C9.15544 23.7071 9.20012 23.2516 9.11256 22.8122C9.025 22.3728 8.80912 21.9693 8.49222 21.6525C8.17532 21.3358 7.77162 21.1201 7.33217 21.0328C6.89271 20.9455 6.43724 20.9904 6.02332 21.162C5.6094 21.3335 5.25563 21.6239 5.00674 21.9964C4.75785 22.369 4.625 22.807 4.625 23.255C4.6255 23.856 4.86453 24.4321 5.28958 24.8569C5.71463 25.2818 6.29093 25.5205 6.89188 25.5206ZM6.89188 22.24C7.09272 22.2403 7.28898 22.3 7.45585 22.4118C7.62272 22.5236 7.7527 22.6823 7.82936 22.868C7.90602 23.0536 7.92592 23.2578 7.88654 23.4548C7.84716 23.6517 7.75027 23.8326 7.60812 23.9744C7.46597 24.1163 7.28494 24.2129 7.08792 24.2519C6.8909 24.2909 6.68674 24.2706 6.50124 24.1936C6.31574 24.1166 6.15724 23.9864 6.04577 23.8193C5.93431 23.6522 5.87488 23.4559 5.875 23.255C5.87533 22.9856 5.98263 22.7273 6.17332 22.537C6.364 22.3467 6.62246 22.2398 6.89188 22.24Z"
        fill="currentColor" />
    <path d="M9.19437 28.4375C9.19425 28.0412 9.07665 27.6539 8.85645 27.3244C8.63624 26.9949 8.3233 26.7381 7.95718 26.5864C7.59107 26.4347 7.1882 26.395 6.7995 26.4722C6.4108 26.5494 6.05371 26.7401 5.77335 27.0202C5.493 27.3003 5.30197 27.6572 5.2244 28.0458C5.14683 28.4344 5.1862 28.8373 5.33754 29.2036C5.48888 29.5699 5.7454 29.883 6.07468 30.1036C6.40395 30.3241 6.7912 30.442 7.1875 30.4425C7.71948 30.4427 8.22975 30.2316 8.60609 29.8556C8.98244 29.4796 9.19404 28.9695 9.19437 28.4375ZM7.1875 29.1925C7.03825 29.1922 6.89247 29.1476 6.76856 29.0644C6.64464 28.9812 6.54817 28.8631 6.49131 28.7252C6.43445 28.5872 6.41977 28.4354 6.44911 28.2891C6.47845 28.1428 6.55051 28.0084 6.65617 27.903C6.76183 27.7976 6.89636 27.7259 7.04277 27.6969C7.18917 27.6679 7.34088 27.683 7.47873 27.7402C7.61658 27.7974 7.73438 27.8941 7.81726 28.0183C7.90014 28.1424 7.94437 28.2883 7.94437 28.4375C7.94429 28.5368 7.92465 28.6351 7.88656 28.7268C7.84847 28.8185 7.79268 28.9018 7.72239 28.9719C7.6521 29.042 7.56868 29.0976 7.4769 29.1354C7.38512 29.1733 7.28678 29.1927 7.1875 29.1925Z"
        fill="currentColor" />
    <path d="M10.21 30.9819C9.82828 30.9819 9.45514 31.0951 9.13775 31.3071C8.82036 31.5192 8.57299 31.8206 8.42691 32.1733C8.28084 32.526 8.24261 32.914 8.31708 33.2884C8.39155 33.6628 8.57537 34.0067 8.84528 34.2766C9.1152 34.5465 9.45909 34.7303 9.83348 34.8048C10.2079 34.8793 10.5959 34.841 10.9486 34.695C11.3012 34.5489 11.6027 34.3015 11.8147 33.9841C12.0268 33.6667 12.14 33.2936 12.14 32.9119C12.1395 32.4002 11.936 31.9095 11.5742 31.5477C11.2123 31.1859 10.7217 30.9824 10.21 30.9819ZM10.21 33.5919C10.0755 33.5919 9.94404 33.552 9.83221 33.4773C9.72039 33.4026 9.63323 33.2964 9.58176 33.1721C9.53029 33.0478 9.51683 32.9111 9.54307 32.7792C9.5693 32.6473 9.63407 32.5261 9.72917 32.431C9.82427 32.3359 9.94543 32.2712 10.0773 32.2449C10.2092 32.2187 10.346 32.2322 10.4702 32.2836C10.5945 32.3351 10.7007 32.4223 10.7754 32.5341C10.8501 32.6459 10.89 32.7774 10.89 32.9119C10.8898 33.0922 10.8181 33.265 10.6906 33.3925C10.5632 33.52 10.3903 33.5917 10.21 33.5919Z"
        fill="currentColor" />
    <path d="M38.75 6.59002C38.75 6.58564 38.75 6.58127 38.75 6.57689C38.73 3.81127 32.5788 2.36377 26.5 2.36377C20.4412 2.36377 14.3125 3.80127 14.2531 6.55127C14.2531 6.56439 14.2456 6.57564 14.2456 6.58877V8.74127C12.8792 8.90684 11.6202 9.56577 10.7053 10.5942C9.7905 11.6227 9.28274 12.9498 9.2775 14.3263C9.2775 14.3963 9.2875 14.4556 9.28938 14.5225C7.36386 15.1791 5.63876 16.3183 4.27875 17.8313C3.15469 19.0769 2.30963 20.5482 1.80013 22.1468C1.29062 23.7454 1.12842 25.4343 1.32438 27.1006C1.63332 29.7676 2.83413 32.2521 4.73207 34.151C6.63002 36.05 9.1138 37.2521 11.7806 37.5625C12.2372 37.6134 12.6962 37.6391 13.1556 37.6394C15.5743 37.6435 17.9349 36.8986 19.9131 35.5069C22.08 35.9384 24.285 36.1495 26.4944 36.1369C32.1194 36.1369 37.8131 34.8975 38.6444 32.5206C38.7133 32.4181 38.7501 32.2973 38.75 32.1738V31.9106C38.75 31.9063 38.75 31.9025 38.75 31.8981V6.59002ZM13.2038 13.875C13.2746 13.612 13.4051 13.3688 13.5851 13.1644C13.7652 12.9599 13.9899 12.7998 14.2419 12.6963V13.9294C13.8969 13.895 13.5513 13.875 13.2038 13.875ZM15.4919 8.55877C17.5963 10.0475 22.065 10.8181 26.4963 10.8181C30.9275 10.8181 35.3919 10.0469 37.5 8.56252V10.1938C37.5 11.4056 33.2144 13.1656 26.5 13.1656C19.7856 13.1656 15.5 11.4056 15.5 10.1938C15.5 10.19 15.5 10.1869 15.5 10.1831L15.4919 8.55877ZM26.4963 3.61377C33.2106 3.61377 37.4963 5.37689 37.4963 6.59002C37.4963 7.80314 33.2113 9.56627 26.4963 9.56627C19.7812 9.56627 15.4963 7.80314 15.4963 6.59002C15.4963 5.37689 19.7819 3.61377 26.4963 3.61377ZM14.2419 10.0063V11.3875C13.6429 11.5265 13.1006 11.8449 12.6874 12.3002C12.2742 12.7555 12.0098 13.3261 11.9294 13.9356C11.4604 13.9851 10.9948 14.0626 10.535 14.1675C10.5756 13.152 10.9673 12.182 11.6433 11.4232C12.3194 10.6643 13.2378 10.1635 14.2419 10.0063ZM11.9181 36.3188C10.4796 36.1513 9.09035 35.6918 7.83569 34.9684C6.58102 34.245 5.48734 33.2729 4.62172 32.1118C3.75609 30.9507 3.13675 29.625 2.80169 28.216C2.46663 26.807 2.42289 25.3444 2.67318 23.9179C2.92346 22.4915 3.46248 21.1311 4.25718 19.9204C5.05189 18.7096 6.08553 17.6739 7.29474 16.8768C8.50394 16.0797 9.86321 15.538 11.2892 15.285C12.7152 15.0319 14.1779 15.0727 15.5875 15.405C16.0813 15.5269 16.5362 15.772 16.9096 16.1173C17.2829 16.4627 17.5626 16.8972 17.7225 17.38C17.8224 17.6783 17.8536 17.9953 17.8138 18.3073C17.7739 18.6193 17.6641 18.9183 17.4925 19.1819L14.9838 23.0144C14.5408 23.6976 14.3623 24.5189 14.4816 25.3243C14.6009 26.1297 15.0099 26.864 15.6319 27.3894C16.2407 27.8796 16.9992 28.1463 17.7809 28.145C18.5626 28.1438 19.3202 27.8747 19.9275 27.3825L22.205 25.4563C22.543 25.1743 22.96 25.0038 23.3988 24.9681C23.4448 24.9636 23.4914 24.9689 23.5353 24.9835C23.5792 24.9981 23.6196 25.0219 23.6538 25.0531C23.685 25.0796 23.7105 25.1123 23.7285 25.1491C23.7466 25.1859 23.7569 25.226 23.7588 25.2669C23.7663 25.4288 23.7706 25.5913 23.7706 25.755C23.7696 27.2507 23.4535 28.7294 22.8431 30.0949C22.2326 31.4603 21.3414 32.6819 20.2275 33.68C19.9725 33.9075 19.7069 34.1175 19.4369 34.3169C17.277 35.9172 14.5878 36.6336 11.9181 36.3188ZM24.9306 18.025C24.9306 17.716 25.0223 17.4139 25.194 17.1569C25.3656 16.9 25.6097 16.6997 25.8952 16.5815C26.1807 16.4632 26.4949 16.4323 26.798 16.4925C27.101 16.5528 27.3795 16.7016 27.598 16.9202C27.8165 17.1387 27.9653 17.4171 28.0256 17.7202C28.0859 18.0233 28.0549 18.3375 27.9367 18.623C27.8184 18.9085 27.6182 19.1525 27.3612 19.3242C27.1043 19.4959 26.8022 19.5875 26.4931 19.5875C26.0791 19.5862 25.6825 19.4212 25.3897 19.1284C25.097 18.8357 24.9319 18.439 24.9306 18.025ZM23.7744 18.7088H19.0094C19.1031 18.2592 19.1031 17.7952 19.0094 17.3456H23.7762C23.6521 17.7915 23.6521 18.2629 23.7762 18.7088H23.7744ZM26.4963 34.885C24.7218 34.8904 22.9498 34.7529 21.1975 34.4738C22.401 33.362 23.3619 32.0136 24.0198 30.513C24.6776 29.0125 25.0184 27.3922 25.0206 25.7538C25.0206 25.5706 25.0156 25.3888 25.0075 25.2075C24.9983 24.9991 24.9468 24.7948 24.8563 24.6069C24.7657 24.419 24.6379 24.2514 24.4806 24.1144C24.3198 23.973 24.1324 23.8654 23.9293 23.7977C23.7261 23.7301 23.5115 23.7039 23.2981 23.7206C22.6016 23.7775 21.9396 24.0484 21.4031 24.4963L19.1194 26.4275C18.7402 26.7349 18.2671 26.903 17.779 26.9039C17.2909 26.9048 16.8172 26.7385 16.4369 26.4325C16.0482 26.1041 15.7925 25.6453 15.7177 25.142C15.6429 24.6387 15.7542 24.1254 16.0306 23.6981L18.4781 19.9588H24.46C24.8473 20.3687 25.3487 20.6529 25.8994 20.7746C26.45 20.8962 27.0245 20.8497 27.5484 20.6411C28.0723 20.4324 28.5215 20.0713 28.8378 19.6044C29.1541 19.1375 29.3229 18.5864 29.3224 18.0225C29.3218 17.4586 29.1519 16.9078 28.8347 16.4415C28.5176 15.9752 28.0677 15.615 27.5433 15.4074C27.019 15.1997 26.4444 15.1544 25.894 15.2771C25.3436 15.3998 24.8427 15.685 24.4563 16.0956H18.4862C17.9019 15.1398 16.9632 14.4538 15.875 14.1875C15.75 14.1575 15.62 14.1344 15.4919 14.1088V12.1606C17.5981 13.6469 22.0656 14.4156 26.4963 14.4156C30.9269 14.4156 35.3906 13.6475 37.5 12.1625V31.9125V31.9169C37.4819 33.13 33.2 34.885 26.4963 34.885Z"
        fill="currentColor" />
    <path d="M35.9675 22.6944C35.8017 22.6944 35.6428 22.7602 35.5256 22.8775C35.4083 22.9947 35.3425 23.1536 35.3425 23.3194V24.2963C35.3425 24.462 35.4083 24.621 35.5256 24.7382C35.6428 24.8554 35.8017 24.9213 35.9675 24.9213C36.1333 24.9213 36.2922 24.8554 36.4094 24.7382C36.5267 24.621 36.5925 24.462 36.5925 24.2963V23.3194C36.5925 23.1536 36.5267 22.9947 36.4094 22.8775C36.2922 22.7602 36.1333 22.6944 35.9675 22.6944Z"
        fill="currentColor" />
    <path d="M35.9675 25.625C35.8017 25.625 35.6428 25.6908 35.5256 25.8081C35.4083 25.9253 35.3425 26.0842 35.3425 26.25V27.95C35.3425 28.1158 35.4083 28.2747 35.5256 28.3919C35.6428 28.5092 35.8017 28.575 35.9675 28.575C36.1333 28.575 36.2922 28.5092 36.4094 28.3919C36.5267 28.2747 36.5925 28.1158 36.5925 27.95V26.25C36.5925 26.0842 36.5267 25.9253 36.4094 25.8081C36.2922 25.6908 36.1333 25.625 35.9675 25.625Z"
        fill="currentColor" />
</svg>