<svg width="40" height="40" viewBox="0 0 40 40" fill="none" xmlns="http://www.w3.org/2000/svg">
<path d="M18.6695 18.4094H18.6582C18.5753 18.4094 18.4958 18.3765 18.4372 18.3179C18.3786 18.2592 18.3457 18.1798 18.3457 18.0969C18.3457 18.014 18.3786 17.9345 18.4372 17.8759C18.4958 17.8173 18.5753 17.7844 18.6582 17.7844C18.7417 17.7841 18.8219 17.8168 18.8815 17.8753C18.941 17.9338 18.9751 18.0134 18.9763 18.0969C18.977 18.1376 18.9695 18.1781 18.9544 18.2159C18.9393 18.2538 18.9168 18.2883 18.8883 18.3173C18.8597 18.3464 18.8257 18.3695 18.7881 18.3853C18.7505 18.4011 18.7102 18.4093 18.6695 18.4094Z" fill="currentColor"/>
                <path d="M16.046 25.2944C14.921 25.2944 13.796 25.2556 12.7004 25.1797C11.5201 25.0928 10.3929 24.9609 9.34758 24.7903C8.20514 24.6133 7.07857 24.3458 5.97852 23.9903C3.95477 23.3219 2.88477 22.4622 2.88477 21.5041C2.88546 21.3085 2.92787 21.1154 3.00914 20.9375C3.0432 20.8619 3.1059 20.8029 3.18343 20.7736C3.26097 20.7442 3.34699 20.7469 3.42258 20.7809C3.49816 20.815 3.55712 20.8777 3.58649 20.9552C3.61585 21.0328 3.6132 21.1188 3.57914 21.1944C3.53377 21.2923 3.51001 21.3989 3.50945 21.5069C3.50945 22.1503 4.48133 22.8403 6.17602 23.4C7.24465 23.7451 8.33904 24.0047 9.44883 24.1762C10.4754 24.3453 11.5845 24.4737 12.7448 24.5591C14.9432 24.7097 17.1494 24.7097 19.3479 24.5591C19.8632 24.5225 20.3673 24.4756 20.8457 24.4197C20.8866 24.4142 20.9281 24.4171 20.9678 24.428C21.0076 24.4389 21.0447 24.4577 21.077 24.4833C21.1094 24.5089 21.1362 24.5407 21.156 24.5768C21.1758 24.613 21.1881 24.6527 21.1923 24.6937C21.2019 24.776 21.1784 24.8588 21.127 24.9238C21.0756 24.9888 21.0005 25.0307 20.9182 25.0403C20.4304 25.0975 19.9166 25.145 19.392 25.1825C18.2973 25.2556 17.1716 25.2944 16.046 25.2944Z" fill="currentColor"/>
                <path d="M10.5715 18.6722H10.5527C10.4699 18.6722 10.3904 18.6393 10.3318 18.5807C10.2732 18.522 10.2402 18.4426 10.2402 18.3597C10.2402 18.2768 10.2732 18.1973 10.3318 18.1387C10.3904 18.0801 10.4699 18.0472 10.5527 18.0472C10.6366 18.0468 10.7173 18.0793 10.7774 18.1378C10.8376 18.1962 10.8725 18.2758 10.8746 18.3597C10.8757 18.4002 10.8687 18.4406 10.8539 18.4784C10.8392 18.5162 10.8171 18.5506 10.7888 18.5797C10.7606 18.6088 10.7268 18.632 10.6895 18.6479C10.6522 18.6638 10.612 18.672 10.5715 18.6722Z" fill="currentColor"/>
                <path d="M16.046 29.1781C14.8876 29.1781 13.761 29.1372 12.6982 29.0562C11.5107 28.9725 10.3829 28.8441 9.34789 28.6747C8.20549 28.4983 7.07885 28.2317 5.97852 27.8775C3.95477 27.2069 2.88477 26.3462 2.88477 25.3875C2.88477 25.3046 2.91769 25.2251 2.97629 25.1665C3.0349 25.1079 3.11439 25.075 3.19727 25.075C3.28015 25.075 3.35963 25.1079 3.41824 25.1665C3.47684 25.2251 3.50977 25.3046 3.50977 25.3875C3.50977 26.0316 4.48164 26.7228 6.17664 27.2847C7.24542 27.6281 8.33966 27.8867 9.44914 28.0578C10.4651 28.2241 11.5741 28.3506 12.7441 28.4328C13.7932 28.5125 14.9032 28.5528 16.0463 28.5528C17.1895 28.5528 18.2991 28.5125 19.346 28.4328C19.9113 28.3956 20.482 28.3425 21.0941 28.27C21.1352 28.2645 21.177 28.2672 21.2171 28.278C21.2571 28.2888 21.2946 28.3074 21.3273 28.3328C21.3601 28.3583 21.3875 28.39 21.4078 28.4261C21.4282 28.4622 21.4412 28.502 21.4461 28.5432C21.4509 28.5843 21.4475 28.6261 21.4361 28.6659C21.4247 28.7058 21.4054 28.743 21.3795 28.7753C21.3535 28.8076 21.3214 28.8345 21.285 28.8543C21.2485 28.8741 21.2085 28.8864 21.1673 28.8906C20.5448 28.9647 19.9635 29.0184 19.3904 29.0562C18.3304 29.1372 17.2045 29.1781 16.046 29.1781Z" fill="currentColor"/>
                <path d="M3.19629 25.6991C3.11341 25.6991 3.03392 25.6661 2.97532 25.6075C2.91671 25.5489 2.88379 25.4694 2.88379 25.3866V21.5034C2.88379 21.4206 2.91671 21.3411 2.97532 21.2825C3.03392 21.2239 3.11341 21.1909 3.19629 21.1909C3.27917 21.1909 3.35866 21.2239 3.41726 21.2825C3.47587 21.3411 3.50879 21.4206 3.50879 21.5034V25.3866C3.50879 25.4694 3.47587 25.5489 3.41726 25.6075C3.35866 25.6661 3.27917 25.6991 3.19629 25.6991Z" fill="currentColor"/>
                <path d="M19.3682 29.0625C19.2853 29.0625 19.2058 29.0296 19.1472 28.971C19.0886 28.9124 19.0557 28.8329 19.0557 28.75V24.8662C19.0557 24.7834 19.0886 24.7039 19.1472 24.6453C19.2058 24.5867 19.2853 24.5537 19.3682 24.5537C19.451 24.5537 19.5305 24.5867 19.5891 24.6453C19.6477 24.7039 19.6807 24.7834 19.6807 24.8662V28.75C19.6807 28.8329 19.6477 28.9124 19.5891 28.971C19.5305 29.0296 19.451 29.0625 19.3682 29.0625Z" fill="currentColor"/>
                <path d="M16.0454 29.1772C15.9625 29.1772 15.883 29.1443 15.8244 29.0857C15.7658 29.0271 15.7329 28.9476 15.7329 28.8647V24.9825C15.7329 24.8996 15.7658 24.8201 15.8244 24.7615C15.883 24.7029 15.9625 24.67 16.0454 24.67C16.1283 24.67 16.2078 24.7029 16.2664 24.7615C16.325 24.8201 16.3579 24.8996 16.3579 24.9825V28.8647C16.3579 28.9476 16.325 29.0271 16.2664 29.0857C16.2078 29.1443 16.1283 29.1772 16.0454 29.1772Z" fill="currentColor"/>
                <path d="M12.7227 29.0625C12.6398 29.0625 12.5603 29.0296 12.5017 28.971C12.4431 28.9124 12.4102 28.8329 12.4102 28.75V24.8662C12.4102 24.7834 12.4431 24.7039 12.5017 24.6453C12.5603 24.5867 12.6398 24.5537 12.7227 24.5537C12.8055 24.5537 12.885 24.5867 12.9436 24.6453C13.0022 24.7039 13.0352 24.7834 13.0352 24.8662V28.75C13.0352 28.8329 13.0022 28.9124 12.9436 28.971C12.885 29.0296 12.8055 29.0625 12.7227 29.0625Z" fill="currentColor"/>
                <path d="M9.3999 28.6781C9.31702 28.6781 9.23754 28.6452 9.17893 28.5866C9.12033 28.528 9.0874 28.4485 9.0874 28.3656V24.4834C9.0874 24.4006 9.12033 24.3211 9.17893 24.2625C9.23754 24.2039 9.31702 24.1709 9.3999 24.1709C9.48278 24.1709 9.56227 24.2039 9.62087 24.2625C9.67948 24.3211 9.7124 24.4006 9.7124 24.4834V28.3656C9.7124 28.4485 9.67948 28.528 9.62087 28.5866C9.56227 28.6452 9.48278 28.6781 9.3999 28.6781Z" fill="currentColor"/>
                <path d="M6.07715 27.8931C5.99427 27.8931 5.91478 27.8602 5.85618 27.8016C5.79757 27.743 5.76465 27.6635 5.76465 27.5806V23.6947C5.76465 23.6118 5.79757 23.5323 5.85618 23.4737C5.91478 23.4151 5.99427 23.3822 6.07715 23.3822C6.16003 23.3822 6.23951 23.4151 6.29812 23.4737C6.35672 23.5323 6.38965 23.6118 6.38965 23.6947V27.5806C6.38965 27.6635 6.35672 27.743 6.29812 27.8016C6.23951 27.8602 6.16003 27.8931 6.07715 27.8931Z" fill="currentColor"/>
                <path d="M13.1616 18.7434C12.0366 18.7434 10.9116 18.7044 9.81789 18.6263C8.65695 18.5422 7.52977 18.4122 6.46695 18.2403C5.32455 18.0611 4.19752 17.7948 3.0957 17.4438C1.07133 16.7716 0.00195312 15.9097 0.00195312 14.9509C0.00195312 13.5263 2.2832 12.6341 4.19664 12.1366C4.23691 12.1245 4.2792 12.1207 4.32098 12.1254C4.36276 12.13 4.40316 12.1431 4.43978 12.1638C4.47639 12.1844 4.50847 12.2122 4.53408 12.2456C4.55969 12.2789 4.57831 12.3171 4.58882 12.3578C4.59934 12.3985 4.60154 12.4409 4.59528 12.4824C4.58903 12.524 4.57445 12.5639 4.55243 12.5997C4.5304 12.6355 4.50137 12.6665 4.46709 12.6908C4.4328 12.7151 4.39396 12.7323 4.35289 12.7413C2.01977 13.3481 0.626641 14.1741 0.626641 14.9509C0.626641 15.5956 1.5982 16.2881 3.29227 16.8506C4.36282 17.1914 5.45775 17.4503 6.56758 17.625C7.61102 17.7938 8.71977 17.9213 9.86195 18.0044C12.0595 18.1578 14.265 18.1578 16.4626 18.0044C17.6073 17.9209 18.716 17.7931 19.7576 17.6247C20.8673 17.4522 21.9618 17.1935 23.0313 16.8509C24.7285 16.2884 25.7013 15.5959 25.7013 14.9509C25.6977 14.7997 25.6505 14.6526 25.5654 14.5275C25.5413 14.4928 25.5244 14.4536 25.5159 14.4122C25.5074 14.3709 25.5073 14.3282 25.5158 14.2868C25.5242 14.2454 25.5409 14.2061 25.5649 14.1714C25.589 14.1366 25.6198 14.1071 25.6556 14.0846C25.6913 14.0621 25.7313 14.0471 25.773 14.0405C25.8147 14.0339 25.8573 14.0358 25.8983 14.0461C25.9393 14.0564 25.9777 14.0749 26.0113 14.1005C26.0449 14.1261 26.073 14.1583 26.0938 14.195C26.2415 14.4198 26.322 14.682 26.3257 14.9509C26.3257 15.9103 25.2545 16.7722 23.2282 17.4438C22.1273 17.7963 21.0005 18.0626 19.8582 18.24C18.7976 18.4116 17.6707 18.5416 16.5073 18.6263C15.411 18.7044 14.286 18.7434 13.1616 18.7434Z" fill="currentColor"/>
                <path d="M13.1613 22.6278C12.0003 22.6278 10.8741 22.5869 9.81375 22.5066C8.66437 22.4284 7.5375 22.2994 6.46656 22.1244C5.35973 21.9507 4.26719 21.6958 3.19781 21.3616L3.10406 21.3303C1.07 20.6525 0 19.7916 0 18.8375C0 18.7546 0.032924 18.6751 0.0915291 18.6165C0.150134 18.5579 0.22962 18.525 0.3125 18.525C0.39538 18.525 0.474866 18.5579 0.533471 18.6165C0.592076 18.6751 0.625 18.7546 0.625 18.8375C0.625 19.4781 1.59719 20.1694 3.2925 20.7347L3.38438 20.7659C4.42598 21.0911 5.4901 21.3392 6.56812 21.5081C7.61906 21.6803 8.72625 21.8066 9.85906 21.8831C10.9056 21.9628 12.0153 22.0031 13.1613 22.0031C14.3072 22.0031 15.4169 21.9628 16.4613 21.8834C17.5966 21.8062 18.7038 21.68 19.755 21.5084C20.5588 21.3756 21.3056 21.2194 21.9738 21.045C22.0135 21.0346 22.0548 21.0322 22.0955 21.0378C22.1361 21.0434 22.1753 21.0569 22.2107 21.0776C22.2461 21.0984 22.2771 21.1259 22.3019 21.1586C22.3267 21.1913 22.3448 21.2286 22.3552 21.2683C22.3655 21.308 22.368 21.3493 22.3624 21.39C22.3568 21.4307 22.3432 21.4698 22.3225 21.5052C22.3018 21.5406 22.2743 21.5716 22.2416 21.5964C22.2089 21.6212 22.1716 21.6393 22.1319 21.6497C21.4444 21.8294 20.68 21.9891 19.8569 22.1253C18.7856 22.3006 17.6588 22.4297 16.5066 22.5078C15.4487 22.5869 14.3222 22.6278 13.1613 22.6278Z" fill="currentColor"/>
                <path d="M26.0137 17.9256C25.9308 17.9256 25.8513 17.8927 25.7927 17.8341C25.7341 17.7755 25.7012 17.696 25.7012 17.6131V14.9538C25.7012 14.8709 25.7341 14.7914 25.7927 14.7328C25.8513 14.6742 25.9308 14.6413 26.0137 14.6413C26.0966 14.6413 26.176 14.6742 26.2346 14.7328C26.2932 14.7914 26.3262 14.8709 26.3262 14.9538V17.6131C26.3262 17.696 26.2932 17.7755 26.2346 17.8341C26.176 17.8927 26.0966 17.9256 26.0137 17.9256Z" fill="currentColor"/>
                <path d="M0.3125 19.1481C0.22962 19.1481 0.150134 19.1152 0.0915291 19.0566C0.032924 18.998 0 18.9185 0 18.8356V14.9525C0 14.8696 0.032924 14.7901 0.0915291 14.7315C0.150134 14.6729 0.22962 14.64 0.3125 14.64C0.39538 14.64 0.474866 14.6729 0.533471 14.7315C0.592076 14.7901 0.625 14.8696 0.625 14.9525V18.8356C0.625 18.9185 0.592076 18.998 0.533471 19.0566C0.474866 19.1152 0.39538 19.1481 0.3125 19.1481Z" fill="currentColor"/>
                <path d="M23.1294 20.1562C23.0465 20.1562 22.967 20.1233 22.9084 20.0647C22.8498 20.0061 22.8169 19.9266 22.8169 19.8437V17.1472C22.8164 17.0643 22.8489 16.9846 22.9072 16.9257C22.9655 16.8668 23.0448 16.8334 23.1277 16.833C23.2106 16.8325 23.2902 16.865 23.3492 16.9233C23.4081 16.9816 23.4414 17.0609 23.4419 17.1437V19.8437C23.4419 19.9266 23.409 20.0061 23.3504 20.0647C23.2918 20.1233 23.2123 20.1562 23.1294 20.1562Z" fill="currentColor"/>
                <path d="M19.8066 22.1272C19.7238 22.1272 19.6443 22.0943 19.5857 22.0357C19.5271 21.977 19.4941 21.8976 19.4941 21.8147V17.9325C19.4941 17.8496 19.5271 17.7701 19.5857 17.7115C19.6443 17.6529 19.7238 17.62 19.8066 17.62C19.8895 17.62 19.969 17.6529 20.0276 17.7115C20.0862 17.7701 20.1191 17.8496 20.1191 17.9325V21.8147C20.1191 21.8976 20.0862 21.977 20.0276 22.0357C19.969 22.0943 19.8895 22.1272 19.8066 22.1272Z" fill="currentColor"/>
                <path d="M16.4844 22.51C16.4015 22.51 16.322 22.4771 16.2634 22.4185C16.2048 22.3599 16.1719 22.2804 16.1719 22.1975V18.3153C16.1719 18.2324 16.2048 18.1529 16.2634 18.0943C16.322 18.0357 16.4015 18.0028 16.4844 18.0028C16.5673 18.0028 16.6467 18.0357 16.7053 18.0943C16.764 18.1529 16.7969 18.2324 16.7969 18.3153V22.1975C16.7969 22.2804 16.764 22.3599 16.7053 22.4185C16.6467 22.4771 16.5673 22.51 16.4844 22.51Z" fill="currentColor"/>
                <path d="M13.1616 22.625C13.0787 22.625 12.9993 22.5921 12.9406 22.5335C12.882 22.4749 12.8491 22.3954 12.8491 22.3125V18.4316C12.8491 18.3487 12.882 18.2692 12.9406 18.2106C12.9993 18.152 13.0787 18.1191 13.1616 18.1191C13.2445 18.1191 13.324 18.152 13.3826 18.2106C13.4412 18.2692 13.4741 18.3487 13.4741 18.4316V22.3125C13.4741 22.3954 13.4412 22.4749 13.3826 22.5335C13.324 22.5921 13.2445 22.625 13.1616 22.625Z" fill="currentColor"/>
                <path d="M9.83887 22.51C9.75599 22.51 9.6765 22.4771 9.6179 22.4185C9.55929 22.3599 9.52637 22.2804 9.52637 22.1975V18.3153C9.52637 18.2324 9.55929 18.1529 9.6179 18.0943C9.6765 18.0357 9.75599 18.0028 9.83887 18.0028C9.92175 18.0028 10.0012 18.0357 10.0598 18.0943C10.1184 18.1529 10.1514 18.2324 10.1514 18.3153V22.1975C10.1514 22.2804 10.1184 22.3599 10.0598 22.4185C10.0012 22.4771 9.92175 22.51 9.83887 22.51Z" fill="currentColor"/>
                <path d="M6.51611 22.1272C6.43323 22.1272 6.35375 22.0943 6.29514 22.0357C6.23654 21.977 6.20361 21.8976 6.20361 21.8147V17.9325C6.20361 17.8496 6.23654 17.7701 6.29514 17.7115C6.35375 17.6529 6.43323 17.62 6.51611 17.62C6.59899 17.62 6.67848 17.6529 6.73708 17.7115C6.79569 17.7701 6.82861 17.8496 6.82861 17.9325V21.8147C6.82861 21.8976 6.79569 21.977 6.73708 22.0357C6.67848 22.0943 6.59899 22.1272 6.51611 22.1272Z" fill="currentColor"/>
                <path d="M3.19336 21.3438C3.11048 21.3438 3.03099 21.3108 2.97239 21.2522C2.91378 21.1936 2.88086 21.1141 2.88086 21.0313V17.1438C2.88086 17.0609 2.91378 16.9814 2.97239 16.9228C3.03099 16.8642 3.11048 16.8313 3.19336 16.8313C3.27624 16.8313 3.35573 16.8642 3.41433 16.9228C3.47294 16.9814 3.50586 17.0609 3.50586 17.1438V21.0313C3.50586 21.1141 3.47294 21.1936 3.41433 21.2522C3.35573 21.3108 3.27624 21.3438 3.19336 21.3438Z" fill="currentColor"/>
                <path d="M16.9389 11.7569C10.5579 11.7569 3.77637 10.4278 3.77637 7.96469C3.77637 5.50156 10.5576 4.17313 16.9389 4.17313C23.3201 4.17313 30.1014 5.50188 30.1014 7.96469C30.1014 10.4275 23.3198 11.7569 16.9389 11.7569ZM16.9389 4.79813C9.55043 4.79813 4.40137 6.46688 4.40137 7.96469C4.40137 9.4625 9.55043 11.1319 16.9389 11.1319C24.3273 11.1319 29.4764 9.46281 29.4764 7.96469C29.4764 6.46656 24.3276 4.79813 16.9389 4.79813Z" fill="currentColor"/>
                <path d="M16.9389 15.6403C10.5579 15.6403 3.77637 14.3112 3.77637 11.8484C3.77637 11.7656 3.80929 11.6861 3.8679 11.6275C3.9265 11.5689 4.00599 11.5359 4.08887 11.5359C4.17175 11.5359 4.25123 11.5689 4.30984 11.6275C4.36844 11.6861 4.40137 11.7656 4.40137 11.8484C4.40137 13.3462 9.55043 15.0153 16.9389 15.0153C24.3273 15.0153 29.4764 13.3462 29.4764 11.8484C29.4764 11.7656 29.5093 11.6861 29.5679 11.6275C29.6265 11.5689 29.706 11.5359 29.7889 11.5359C29.8717 11.5359 29.9512 11.5689 30.0098 11.6275C30.0684 11.6861 30.1014 11.7656 30.1014 11.8484C30.1014 14.3125 23.3198 15.6403 16.9389 15.6403Z" fill="currentColor"/>
                <path d="M29.7891 12.1609C29.7062 12.1609 29.6267 12.128 29.5681 12.0694C29.5095 12.0108 29.4766 11.9313 29.4766 11.8484V7.96469C29.4766 7.88181 29.5095 7.80233 29.5681 7.74372C29.6267 7.68512 29.7062 7.65219 29.7891 7.65219C29.8719 7.65219 29.9514 7.68512 30.01 7.74372C30.0686 7.80233 30.1016 7.88181 30.1016 7.96469V11.8484C30.1016 11.9313 30.0686 12.0108 30.01 12.0694C29.9514 12.128 29.8719 12.1609 29.7891 12.1609Z" fill="currentColor"/>
                <path d="M4.08887 12.1609C4.00599 12.1609 3.9265 12.128 3.8679 12.0694C3.80929 12.0108 3.77637 11.9313 3.77637 11.8484V7.96469C3.77637 7.88181 3.80929 7.80233 3.8679 7.74372C3.9265 7.68512 4.00599 7.65219 4.08887 7.65219C4.17175 7.65219 4.25123 7.68512 4.30984 7.74372C4.36844 7.80233 4.40137 7.88181 4.40137 7.96469V11.8484C4.40137 11.9313 4.36844 12.0108 4.30984 12.0694C4.25123 12.128 4.17175 12.1609 4.08887 12.1609Z" fill="currentColor"/>
                <path d="M26.9062 14.355C26.8234 14.355 26.7439 14.3221 26.6853 14.2635C26.6267 14.2049 26.5938 14.1254 26.5938 14.0425V10.1562C26.5938 10.0734 26.6267 9.99388 26.6853 9.93528C26.7439 9.87667 26.8234 9.84375 26.9062 9.84375C26.9891 9.84375 27.0686 9.87667 27.1272 9.93528C27.1858 9.99388 27.2188 10.0734 27.2188 10.1562V14.0425C27.2188 14.1254 27.1858 14.2049 27.1272 14.2635C27.0686 14.3221 26.9891 14.355 26.9062 14.355Z" fill="currentColor"/>
                <path d="M23.584 15.1394C23.5011 15.1394 23.4216 15.1065 23.363 15.0479C23.3044 14.9892 23.2715 14.9098 23.2715 14.8269V10.945C23.2715 10.8621 23.3044 10.7826 23.363 10.724C23.4216 10.6654 23.5011 10.6325 23.584 10.6325C23.6669 10.6325 23.7464 10.6654 23.805 10.724C23.8636 10.7826 23.8965 10.8621 23.8965 10.945V14.8269C23.8965 14.9098 23.8636 14.9892 23.805 15.0479C23.7464 15.1065 23.6669 15.1394 23.584 15.1394Z" fill="currentColor"/>
                <path d="M20.2607 15.5225C20.1779 15.5225 20.0984 15.4896 20.0398 15.431C19.9812 15.3724 19.9482 15.2929 19.9482 15.21V11.3278C19.9482 11.2449 19.9812 11.1655 20.0398 11.1068C20.0984 11.0482 20.1779 11.0153 20.2607 11.0153C20.3436 11.0153 20.4231 11.0482 20.4817 11.1068C20.5403 11.1655 20.5732 11.2449 20.5732 11.3278V15.21C20.5732 15.2929 20.5403 15.3724 20.4817 15.431C20.4231 15.4896 20.3436 15.5225 20.2607 15.5225Z" fill="currentColor"/>
                <path d="M16.9375 15.6391C16.8546 15.6391 16.7751 15.6061 16.7165 15.5475C16.6579 15.4889 16.625 15.4094 16.625 15.3266V11.4444C16.625 11.3615 16.6579 11.282 16.7165 11.2234C16.7751 11.1648 16.8546 11.1319 16.9375 11.1319C17.0204 11.1319 17.0999 11.1648 17.1585 11.2234C17.2171 11.282 17.25 11.3615 17.25 11.4444V15.3266C17.25 15.4094 17.2171 15.4889 17.1585 15.5475C17.0999 15.6061 17.0204 15.6391 16.9375 15.6391Z" fill="currentColor"/>
                <path d="M13.6157 15.5225C13.5328 15.5225 13.4534 15.4896 13.3948 15.431C13.3361 15.3724 13.3032 15.2929 13.3032 15.21V11.3278C13.3032 11.2449 13.3361 11.1655 13.3948 11.1068C13.4534 11.0482 13.5328 11.0153 13.6157 11.0153C13.6986 11.0153 13.7781 11.0482 13.8367 11.1068C13.8953 11.1655 13.9282 11.2449 13.9282 11.3278V15.21C13.9282 15.2929 13.8953 15.3724 13.8367 15.431C13.7781 15.4896 13.6986 15.5225 13.6157 15.5225Z" fill="currentColor"/>
                <path d="M10.293 15.1394C10.2101 15.1394 10.1306 15.1065 10.072 15.0479C10.0134 14.9892 9.98047 14.9098 9.98047 14.8269V10.945C9.98047 10.8621 10.0134 10.7826 10.072 10.724C10.1306 10.6654 10.2101 10.6325 10.293 10.6325C10.3758 10.6325 10.4553 10.6654 10.5139 10.724C10.5725 10.7826 10.6055 10.8621 10.6055 10.945V14.8269C10.6055 14.9098 10.5725 14.9892 10.5139 15.0479C10.4553 15.1065 10.3758 15.1394 10.293 15.1394Z" fill="currentColor"/>
                <path d="M6.97021 14.355C6.88733 14.355 6.80785 14.3221 6.74924 14.2635C6.69064 14.2049 6.65771 14.1254 6.65771 14.0425V10.1562C6.65771 10.0734 6.69064 9.99388 6.74924 9.93528C6.80785 9.87667 6.88733 9.84375 6.97021 9.84375C7.0531 9.84375 7.13258 9.87667 7.19119 9.93528C7.24979 9.99388 7.28271 10.0734 7.28271 10.1562V14.0425C7.28271 14.1254 7.24979 14.2049 7.19119 14.2635C7.13258 14.3221 7.0531 14.355 6.97021 14.355Z" fill="currentColor"/>
                <path d="M30.2383 35.8269C28.3075 35.8269 26.4201 35.2545 24.8147 34.1818C23.2094 33.1092 21.9581 31.5846 21.2192 29.8008C20.4803 28.0171 20.287 26.0543 20.6636 24.1606C21.0403 22.267 21.97 20.5275 23.3353 19.1623C24.7005 17.7971 26.4399 16.8673 28.3336 16.4907C30.2272 16.114 32.19 16.3074 33.9738 17.0463C35.7576 17.7852 37.2822 19.0364 38.3548 20.6418C39.4274 22.2472 39.9999 24.1346 39.9998 26.0653C39.9968 28.6533 38.9674 31.1345 37.1374 32.9645C35.3074 34.7945 32.8263 35.8239 30.2383 35.8269ZM30.2383 16.9284C28.4311 16.9284 26.6646 17.4642 25.162 18.4681C23.6594 19.4721 22.4883 20.899 21.7967 22.5686C21.1051 24.2381 20.9241 26.0752 21.2766 27.8476C21.6291 29.62 22.4993 31.2481 23.7771 32.5259C25.0549 33.8038 26.6829 34.674 28.4553 35.0266C30.2277 35.3792 32.0648 35.1982 33.7344 34.5067C35.404 33.8152 36.831 32.6441 37.835 31.1415C38.839 29.639 39.3748 27.8724 39.3748 26.0653C39.372 23.643 38.4085 21.3207 36.6957 19.6078C34.9829 17.8949 32.6606 16.9313 30.2383 16.9284Z" fill="currentColor"/>
                <path d="M30.2383 33.6687C28.7345 33.6688 27.2643 33.2229 26.0138 32.3874C24.7634 31.552 23.7887 30.3644 23.2132 28.975C22.6376 27.5856 22.487 26.0568 22.7803 24.5818C23.0737 23.1068 23.7979 21.7519 24.8613 20.6884C25.9246 19.625 27.2795 18.9008 28.7545 18.6074C30.2295 18.314 31.7584 18.4645 33.1478 19.04C34.5372 19.6155 35.7248 20.5901 36.5603 21.8405C37.3958 23.091 37.8418 24.5611 37.8418 26.065C37.8395 28.0809 37.0378 30.0136 35.6123 31.4391C34.1869 32.8646 32.2542 33.6664 30.2383 33.6687ZM30.2383 19.0866C28.8581 19.0865 27.5087 19.4957 26.361 20.2626C25.2133 21.0294 24.3188 22.1193 23.7906 23.3945C23.2623 24.6697 23.1241 26.0729 23.3934 27.4267C23.6626 28.7805 24.3273 30.024 25.3033 31C26.2793 31.976 27.5228 32.6407 28.8766 32.91C30.2304 33.1792 31.6336 33.041 32.9088 32.5128C34.184 31.9845 35.274 31.09 36.0408 29.9423C36.8076 28.7946 37.2168 27.4453 37.2168 26.065C37.2147 24.2148 36.4788 22.441 35.1706 21.1328C33.8623 19.8245 32.0885 19.0886 30.2383 19.0866Z" fill="currentColor"/>
</svg>
