<svg width="21" height="33" viewBox="0 0 21 33" fill="none" xmlns="http://www.w3.org/2000/svg">
<path d="M0 0.825001C0 0.369366 0.369365 0 0.825 0H20.625C21.0806 0 21.45 0.369365 21.45 0.825V31.1005C21.45 31.822 20.5891 32.1959 20.0619 31.7034L15.5381 27.4779C15.1653 27.1297 14.569 27.1998 14.2872 27.625L11.4405 31.9204C11.1071 32.4234 10.364 32.41 10.0491 31.8951L7.4552 27.6551C7.18671 27.2163 6.58642 27.1275 6.20241 27.4699L1.37403 31.7749C0.842266 32.249 0 31.8716 0 31.1591V0.825001Z" fill="#00B162"/>
<path d="M6.55375 18.2151L13.8412 8.59015H15.6975L8.41 18.2151H6.55375ZM8.14875 13.3751C7.41542 13.3751 6.82875 13.1689 6.38875 12.7564C5.94875 12.3347 5.72875 11.771 5.72875 11.0651V10.7489C5.72875 10.0431 5.94875 9.47932 6.38875 9.05765C6.82875 8.63598 7.41542 8.42515 8.14875 8.42515C8.89125 8.42515 9.4825 8.63598 9.9225 9.05765C10.3717 9.47932 10.5962 10.0431 10.5962 10.7489V11.0651C10.5962 11.7618 10.3717 12.321 9.9225 12.7426C9.4825 13.1643 8.89125 13.3751 8.14875 13.3751ZM8.14875 11.9451C8.42375 11.9451 8.63 11.8764 8.7675 11.7389C8.91417 11.5922 8.9875 11.386 8.9875 11.1201V10.7076C8.9875 10.121 8.70792 9.82765 8.14875 9.82765C7.88292 9.82765 7.67667 9.90557 7.53 10.0614C7.3925 10.2081 7.32375 10.4235 7.32375 10.7076V11.1201C7.32375 11.386 7.3925 11.5922 7.53 11.7389C7.67667 11.8764 7.88292 11.9451 8.14875 11.9451ZM14.0887 18.3664C13.3554 18.3664 12.7687 18.1601 12.3288 17.7476C11.8887 17.326 11.6687 16.7622 11.6687 16.0564V15.7401C11.6687 15.0343 11.8887 14.4706 12.3288 14.0489C12.7687 13.6272 13.3554 13.4164 14.0887 13.4164C14.8312 13.4164 15.4225 13.6272 15.8625 14.0489C16.3117 14.4706 16.5362 15.0343 16.5362 15.7401V16.0564C16.5362 16.7531 16.3117 17.3122 15.8625 17.7339C15.4225 18.1556 14.8312 18.3664 14.0887 18.3664ZM14.0887 16.9364C14.3637 16.9364 14.57 16.8676 14.7075 16.7301C14.8542 16.5835 14.9275 16.3772 14.9275 16.1114V15.6989C14.9275 15.1122 14.6479 14.8189 14.0887 14.8189C13.8229 14.8189 13.6167 14.8968 13.47 15.0526C13.3325 15.1993 13.2637 15.4147 13.2637 15.6989V16.1114C13.2637 16.3772 13.3325 16.5835 13.47 16.7301C13.6167 16.8676 13.8229 16.9364 14.0887 16.9364Z" fill="#F1F1F1"/>
</svg>
