<svg width="40"
        height="40"
        viewBox="0 0 40 40"
        fill="none"
        xmlns="http://www.w3.org/2000/svg">
        <path d="M33.8562 5.13125H6.69938V4.88124C6.69904 4.5427 6.56441 4.21811 6.32502 3.97872C6.08563 3.73933 5.76105 3.6047 5.4225 3.60437H2.52688C2.18833 3.6047 1.86374 3.73933 1.62435 3.97872C1.38496 4.21811 1.25033 4.5427 1.25 4.88124V12.1975C1.25033 12.5361 1.38494 12.8607 1.62432 13.1002C1.86369 13.3397 2.18827 13.4745 2.52688 13.475H5.4225C5.7611 13.4745 6.08569 13.3397 6.32506 13.1002C6.56443 12.8607 6.69904 12.5361 6.69938 12.1975V11.8625H32.0187V15.1387C30.3969 14.5494 28.6364 14.4556 26.9612 14.8694C25.2859 15.2832 23.7716 16.1858 22.6106 17.4625H12.775C11.4776 17.464 10.2337 17.9801 9.31624 18.8975C8.39881 19.8149 7.88274 21.0588 7.88125 22.3562V30.9462H7.47813C7.13952 30.9467 6.81494 31.0815 6.57557 31.321C6.33619 31.5605 6.20158 31.8851 6.20125 32.2237V35.1187C6.20158 35.4573 6.33621 35.7819 6.5756 36.0213C6.81499 36.2607 7.13958 36.3953 7.47813 36.3956H14.7944C15.1329 36.3953 15.4575 36.2607 15.6969 36.0213C15.9363 35.7819 16.0709 35.4573 16.0713 35.1187V32.2237C16.0709 31.8851 15.9363 31.5605 15.6969 31.321C15.4576 31.0815 15.133 30.9467 14.7944 30.9462H14.6125V24.1937H20.3269C20.4254 25.3614 20.7569 26.4974 21.3018 27.5348C21.8466 28.5721 22.5938 29.4898 23.4992 30.2337C24.4046 30.9775 25.4498 31.5324 26.5732 31.8657C27.6966 32.1989 28.8753 32.3036 30.0399 32.1738C31.2044 32.0439 32.3312 31.682 33.3535 31.1095C34.3759 30.537 35.2732 29.7655 35.9925 28.8404C36.7118 27.9154 37.2384 26.8556 37.5413 25.7237C37.8443 24.5918 37.9173 23.4106 37.7562 22.25C38.3997 21.4034 38.7487 20.3696 38.75 19.3062V10.0187C38.7477 8.72213 38.2312 7.47937 37.3137 6.56311C36.3963 5.64685 35.1529 5.1319 33.8562 5.13125ZM5.4225 12.225H2.52688L2.5 12.1975L2.52688 4.85437L5.44938 4.88124L5.4225 12.225ZM14.8213 32.225L14.7944 35.1469L7.45125 35.1187V32.2237L7.47813 32.1962L14.8213 32.225ZM13.9875 22.9437C13.8217 22.9437 13.6628 23.0096 13.5456 23.1268C13.4283 23.244 13.3625 23.403 13.3625 23.5687V30.9437H9.13125V22.3562C9.13241 21.3902 9.51667 20.4641 10.1998 19.781C10.8828 19.0979 11.809 18.7137 12.775 18.7125H21.65C20.8447 19.9833 20.3824 21.4411 20.3081 22.9437H13.9875ZM29.0625 30.9175C27.5739 30.9175 26.1188 30.4761 24.8811 29.6491C23.6435 28.8221 22.6788 27.6467 22.1091 26.2714C21.5395 24.8962 21.3905 23.3829 21.6809 21.9229C21.9713 20.463 22.6881 19.1219 23.7406 18.0694C24.7932 17.0168 26.1343 16.3 27.5942 16.0096C29.0542 15.7192 30.5674 15.8683 31.9427 16.4379C33.3179 17.0075 34.4934 17.9722 35.3204 19.2099C36.1473 20.4476 36.5887 21.9027 36.5887 23.3912C36.5864 25.3866 35.7927 27.2996 34.3818 28.7105C32.9709 30.1215 31.0579 30.9152 29.0625 30.9175ZM37.5 19.3062C37.4974 19.6888 37.4341 20.0685 37.3125 20.4312C36.5858 18.4132 35.1481 16.7295 33.2687 15.6956V11.2375C33.2687 11.0717 33.2029 10.9128 33.0857 10.7956C32.9685 10.6783 32.8095 10.6125 32.6437 10.6125H6.7V6.38125H33.8562C34.8215 6.38141 35.7473 6.7645 36.4304 7.44645C37.1135 8.1284 37.4982 9.0535 37.5 10.0187V19.3062Z"
            fill="currentColor" />
        <path d="M28.5731 18.2944C28.2162 18.7431 25.0881 22.7406 25.0881 24.7506C25.0881 25.8047 25.5068 26.8156 26.2522 27.5609C26.9975 28.3063 28.0084 28.725 29.0625 28.725C30.1166 28.725 31.1275 28.3063 31.8728 27.5609C32.6181 26.8156 33.0369 25.8047 33.0369 24.7506C33.0369 22.7406 29.9087 18.7431 29.5519 18.2944C29.4911 18.2242 29.4159 18.1679 29.3315 18.1294C29.2471 18.0908 29.1553 18.0709 29.0625 18.0709C28.9697 18.0709 28.8779 18.0908 28.7935 18.1294C28.7091 18.1679 28.6339 18.2242 28.5731 18.2944ZM29.0625 27.475C28.3401 27.474 27.6477 27.1866 27.1369 26.6757C26.6262 26.1649 26.3389 25.4723 26.3381 24.75C26.3381 23.7094 27.8519 21.3337 29.0625 19.7081C30.2731 21.3331 31.7869 23.7081 31.7869 24.75C31.786 25.4723 31.4988 26.1649 30.988 26.6757C30.4773 27.1866 29.7848 27.474 29.0625 27.475Z"
            fill="currentColor" />
</svg>