<svg width="20" height="20" viewBox="0 0 20 20" fill="none" xmlns="http://www.w3.org/2000/svg">
  <path d="M19.4 9.1C18.3 6.2 15.4 4.7 12.2 5.3C9.1 2.2 4.8 0.1 0.5 0C0.2 0 0 0.2 0 0.5C0.1 4.8 2.2 9.1 5.2 12.2C4.7 15.3 6.1 18.3 9 19.4C8.5 18.1 8.4 16.6 8.8 15.1C9.3 15.4 9.8 15.7 10.3 15.9C10.5 16 10.7 16 10.9 15.8L15.9 10.8C16 10.7 16 10.5 15.9 10.3C15.7 9.8 15.4 9.3 15.1 8.9C16.6 8.5 18.1 8.6 19.4 9.1ZM8.4 8.4C7.6 9.2 6.4 9.2 5.6 8.4C4.8 7.6 4.8 6.4 5.6 5.6C6.4 4.8 7.6 4.8 8.4 5.6C9.2 6.4 9.2 7.6 8.4 8.4Z" fill="currentColor"/>
  <path d="M19.7004 14.4L17.6004 12.3C17.2004 11.9 16.6004 11.9 16.2004 12.3C15.8004 12.7 15.8004 13.3 16.2004 13.7L18.3004 15.8C18.7004 16.2 19.3004 16.2 19.7004 15.8C20.1004 15.4 20.1004 14.8 19.7004 14.4Z" fill="currentColor"/>
  <path d="M15.8 18.3L13.7 16.2C13.3 15.8 12.7 15.8 12.3 16.2C11.9 16.6 11.9 17.2 12.3 17.6L14.4 19.7C14.8 20.1 15.4 20.1 15.8 19.7C16.2 19.3 16.2 18.7 15.8 18.3Z" fill="currentColor"/>
  <path d="M18.5004 17.2L15.6004 14.3C15.2004 13.9 14.6004 13.9 14.2004 14.3C13.8004 14.7 13.8004 15.3 14.2004 15.7L17.1004 18.6C17.5004 19 18.1004 19 18.5004 18.6C18.9004 18.2 18.9004 17.6 18.5004 17.2Z" fill="currentColor"/>
</svg>
