<svg width="60" height="60" viewBox="0 0 60 60" fill="none" xmlns="http://www.w3.org/2000/svg">
                        <path d="M54.5027 47.8711V53.8519C54.5027 54.1915 54.5246 54.5365 54.2288 54.7775C54.07 54.9089 53.8783 54.9418 53.6811 54.9473C53.4237 54.9473 53.1663 54.9473 52.9089 54.9473C51.6437 54.9473 50.3786 54.9473 49.1079 54.9473C47.076 54.9473 45.0441 54.9473 43.0122 54.9473C40.5093 54.9473 38.0063 54.9473 35.4979 54.9473C32.7869 54.9473 30.0758 54.9473 27.3648 54.9473C24.7359 54.9473 22.1125 54.9473 19.4836 54.9473C17.2326 54.9473 14.9816 54.9473 12.7251 54.9473C11.1094 54.9473 9.49922 54.9473 7.88354 54.9473C7.20988 54.9473 6.53623 54.9637 5.86805 54.9473C5.43538 54.9363 5.11224 54.6241 5.09581 54.1915C5.08486 53.9231 5.09581 53.6492 5.09581 53.3809C5.09581 52.1321 5.09581 50.8834 5.09581 49.6292C5.09581 49.1418 5.09581 48.6543 5.09581 48.1724C5.09581 47.8164 5.09581 47.4713 5.4299 47.2413C5.65993 47.0825 5.94473 47.1153 6.21309 47.1153H9.31848H14.9323H22.1946H30.2347H38.2802H45.3782H50.7565H53.5387H53.7249C54.1576 47.1318 54.4917 47.433 54.5027 47.8711C54.5246 48.5722 55.6199 48.5777 55.598 47.8711C55.5652 46.7539 54.6779 46.02 53.6045 46.02C53.2868 46.02 52.9746 46.02 52.657 46.02C51.2713 46.02 49.8857 46.02 48.5 46.02C46.364 46.02 44.2335 46.02 42.0976 46.02C39.507 46.02 36.9164 46.02 34.3259 46.02C31.5655 46.02 28.8052 46.02 26.0394 46.02C23.4214 46.02 20.8035 46.02 18.1855 46.02C15.9948 46.02 13.8095 46.02 11.6188 46.02C10.151 46.02 8.68316 46.02 7.21536 46.02C6.84841 46.02 6.48146 46.02 6.11451 46.02C5.43538 46.02 4.80006 46.2007 4.36739 46.7812C4.04973 47.2084 4.00592 47.6904 4.00592 48.1998V49.684V53.474C4.00592 53.7478 3.98948 54.0326 4.01139 54.3065C4.08807 55.2868 4.88221 56.0207 5.8571 56.0426C6.03236 56.0481 6.20762 56.0426 6.3774 56.0426H9.84974H15.8086H23.3064H31.5546H39.6165H46.5722H51.5725C52.29 56.0426 53.0075 56.0536 53.7304 56.0426C54.3603 56.0317 54.9299 55.7469 55.2859 55.2266C55.5761 54.8049 55.6035 54.3284 55.6035 53.8355C55.6035 52.647 55.6035 51.4585 55.6035 50.2755C55.6035 49.4759 55.6035 48.6708 55.6035 47.8711C55.598 47.1701 54.5027 47.1701 54.5027 47.8711Z" fill="currentColor" />
                        <path d="M51.545 19.4737V22.1683V28.6365V36.463V43.2324V45.4669C51.545 45.8175 51.5176 46.1789 51.545 46.5295V46.5787C51.7257 46.398 51.912 46.2118 52.0927 46.0311C51.6984 46.0311 51.2985 46.0311 50.9042 46.0311C49.8198 46.0311 48.7354 46.0311 47.651 46.0311C46.0572 46.0311 44.4579 46.0311 42.8642 46.0311C40.9089 46.0311 38.9537 46.0311 36.9984 46.0311C34.8625 46.0311 32.732 46.0311 30.596 46.0311C28.4436 46.0311 26.2857 46.0311 24.1333 46.0311C22.1178 46.0311 20.1023 46.0311 18.0813 46.0311C16.3835 46.0311 14.6857 46.0311 12.9878 46.0311C11.761 46.0311 10.5397 46.0311 9.31285 46.0311C8.73778 46.0311 8.15723 46.0037 7.58216 46.0311C7.56025 46.0311 7.53287 46.0311 7.50548 46.0311C7.68622 46.2118 7.87243 46.398 8.05317 46.5787C8.05317 45.1383 8.05317 43.6924 8.05317 42.252C8.05317 39.0973 8.05317 35.9372 8.05317 32.7825C8.05317 29.6662 8.05317 26.5553 8.05317 23.439C8.05317 22.4531 8.05317 21.4673 8.05317 20.4815C8.05317 19.994 7.99292 19.4299 8.12437 18.9534C8.35988 18.1154 9.12664 17.5623 9.98651 17.5513H10.2768H12.0129H19.0617H28.7557H38.7456H46.5172C47.5688 17.5513 48.6313 17.5185 49.6829 17.5513C50.729 17.5787 51.5286 18.455 51.545 19.4737C51.556 20.1802 52.6513 20.1802 52.6404 19.4737C52.6185 18.1538 51.7696 16.9763 50.5044 16.5819C50.1758 16.4779 49.8307 16.4505 49.4912 16.4505C48.9983 16.4505 48.5108 16.4505 48.0179 16.4505C45.756 16.4505 43.494 16.4505 41.2321 16.4505C37.9897 16.4505 34.742 16.4505 31.4997 16.4505C28.1149 16.4505 24.7357 16.4505 21.351 16.4505C18.6783 16.4505 16.0056 16.4505 13.3329 16.4505C12.2211 16.4505 11.1038 16.434 9.99198 16.4505C8.83636 16.4669 7.74647 17.1241 7.25902 18.1866C7.0509 18.6412 6.96875 19.1232 6.96875 19.6216V21.5823V30.066V40.1106V46.2775V46.5787C6.96875 46.8745 7.22069 47.1264 7.51644 47.1264H8.70492H11.9582H16.745H22.6107H29.0132H35.4759H41.5278H46.6213H50.2963C50.8713 47.1264 51.4519 47.1374 52.027 47.1264H52.1036C52.3994 47.1264 52.6513 46.8745 52.6513 46.5787C52.6513 45.6805 52.6513 44.7823 52.6513 43.8841C52.6513 41.7262 52.6513 39.5738 52.6513 37.4159C52.6513 34.809 52.6513 32.1965 52.6513 29.5895C52.6513 27.333 52.6513 25.0766 52.6513 22.8201C52.6513 21.7247 52.6897 20.6239 52.6513 19.5285C52.6513 19.512 52.6513 19.4956 52.6513 19.4792C52.6404 18.7672 51.545 18.7672 51.545 19.4737Z" fill="currentColor" />
                        <path d="M51.545 5.80929V8.25745V9.9279C51.545 10.1908 51.5724 10.4701 51.545 10.733C51.5012 11.1383 51.1562 11.4121 50.7618 11.4121C50.6304 11.4121 50.4989 11.4121 50.362 11.4121C49.7322 11.4121 49.0969 11.4121 48.467 11.4121C46.2872 11.4121 44.1129 11.4121 41.9331 11.4121C39.6876 11.4121 37.4366 11.4121 35.1911 11.4121C34.4572 11.4121 33.7233 11.4121 32.9894 11.4121C32.6827 11.4121 32.2445 11.4779 31.9543 11.3519C31.5599 11.1821 31.4942 10.8152 31.4942 10.4372C31.4942 9.98815 31.4942 9.53904 31.4942 9.08994C31.4942 8.06029 31.4942 7.02516 31.4942 5.99551C31.4942 5.60117 31.6037 5.22874 32.0254 5.09182C32.1569 5.04801 32.2938 5.05896 32.4307 5.05896H33.9862H40.2079H47.1635C48.363 5.05896 49.5679 5.02062 50.7618 5.05896C51.2 5.06444 51.5341 5.36567 51.545 5.80929C51.5669 6.51033 52.6623 6.51581 52.6404 5.80929C52.613 4.78512 51.8189 3.98549 50.7892 3.95811C50.7016 3.95811 50.614 3.95811 50.5318 3.95811C49.9403 3.95811 49.3488 3.95811 48.7628 3.95811C46.5501 3.95811 44.3375 3.95811 42.1248 3.95811C39.7917 3.95811 37.464 3.95811 35.1308 3.95811C34.3915 3.95811 33.6521 3.95811 32.9127 3.95811C32.3486 3.95811 31.779 3.91429 31.2806 4.23743C30.6836 4.61533 30.4043 5.24517 30.4043 5.92978V7.19494V10.4318C30.4043 11.0233 30.5412 11.5929 30.9958 12.0091C31.3682 12.3487 31.8283 12.502 32.3267 12.502H33.7123H39.9943H47.1854C48.3849 12.502 49.5843 12.5294 50.7837 12.502C51.6272 12.4801 52.4213 11.9105 52.5911 11.0561C52.6623 10.7166 52.6404 10.366 52.6404 10.021C52.6404 8.87634 52.6404 7.73715 52.6404 6.59248C52.6404 6.3296 52.6404 6.0667 52.6404 5.80382C52.6404 5.10278 51.545 5.10278 51.545 5.80929Z" fill="currentColor" />
                        <path d="M40.9746 11.9535V16.3623V16.9922C40.9746 17.6987 42.07 17.6987 42.07 16.9922C42.07 15.5244 42.07 14.0511 42.07 12.5833C42.07 12.3752 42.07 12.1616 42.07 11.9535C42.07 11.2524 40.9746 11.2524 40.9746 11.9535Z" fill="currentColor" />
                        <path d="M46.7582 22.1406V27.7872V28.5869C46.939 28.4061 47.1252 28.2199 47.3059 28.0392C45.4602 28.0392 43.6145 28.0392 41.7688 28.0392C38.8332 28.0392 35.8921 28.0392 32.9565 28.0392C32.2883 28.0392 31.6202 28.0392 30.952 28.0392C31.1327 28.2199 31.3189 28.4061 31.4997 28.5869C31.4997 26.7028 31.4997 24.8188 31.4997 22.9402C31.4997 22.6718 31.4997 22.4035 31.4997 22.1406C31.3189 22.3213 31.1327 22.5075 30.952 22.6883H36.4891H45.3014H47.3059C48.0124 22.6883 48.0124 21.5929 47.3059 21.5929C45.4602 21.5929 43.6145 21.5929 41.7688 21.5929C38.8332 21.5929 35.8921 21.5929 32.9565 21.5929C32.2883 21.5929 31.6202 21.5929 30.952 21.5929C30.6562 21.5929 30.4043 21.8448 30.4043 22.1406V27.7872V28.5869C30.4043 28.8826 30.6562 29.1345 30.952 29.1345H36.4891H45.3014H47.3059C47.6017 29.1345 47.8536 28.8826 47.8536 28.5869C47.8536 26.7028 47.8536 24.8188 47.8536 22.9402C47.8536 22.6718 47.8536 22.4035 47.8536 22.1406C47.8536 21.4341 46.7582 21.4341 46.7582 22.1406Z" fill="currentColor" />
                        <path d="M11.7828 22.6883H14.0612C14.7677 22.6883 14.7677 21.5929 14.0612 21.5929C13.2999 21.5929 12.5386 21.5929 11.7828 21.5929C11.0763 21.5929 11.0763 22.6883 11.7828 22.6883Z" fill="currentColor" />
                        <path d="M18.0104 22.6883H20.2887C20.9952 22.6883 20.9952 21.5929 20.2887 21.5929C19.5274 21.5929 18.7662 21.5929 18.0104 21.5929C17.3038 21.5929 17.3038 22.6883 18.0104 22.6883Z" fill="currentColor" />
                        <path d="M24.2379 22.6883H26.5163C27.2228 22.6883 27.2228 21.5929 26.5163 21.5929C25.755 21.5929 24.9937 21.5929 24.2379 21.5929C23.5314 21.5929 23.5314 22.6883 24.2379 22.6883Z" fill="currentColor" />
                        <path d="M11.7828 29.1344H14.0612C14.7677 29.1344 14.7677 28.039 14.0612 28.039C13.2999 28.039 12.5386 28.039 11.7828 28.039C11.0763 28.039 11.0763 29.1344 11.7828 29.1344Z" fill="currentColor" />
                        <path d="M18.0104 29.1344H20.2887C20.9952 29.1344 20.9952 28.039 20.2887 28.039C19.5274 28.039 18.7662 28.039 18.0104 28.039C17.3038 28.039 17.3038 29.1344 18.0104 29.1344Z" fill="currentColor" />
                        <path d="M24.2379 29.1346H26.5163C27.2228 29.1346 27.2228 28.0392 26.5163 28.0392C25.755 28.0392 24.9937 28.0392 24.2379 28.0392C23.5314 28.0392 23.5314 29.1346 24.2379 29.1346Z" fill="currentColor" />
                        <path d="M11.7828 35.5589H14.0612C14.7677 35.5589 14.7677 34.4635 14.0612 34.4635C13.2999 34.4635 12.5386 34.4635 11.7828 34.4635C11.0763 34.4635 11.0763 35.5589 11.7828 35.5589Z" fill="currentColor" />
                        <path d="M18.0104 35.5589H20.2887C20.9952 35.5589 20.9952 34.4635 20.2887 34.4635C19.5274 34.4635 18.7662 34.4635 18.0104 34.4635C17.3038 34.4635 17.3038 35.5589 18.0104 35.5589Z" fill="currentColor" />
                        <path d="M24.2379 35.5591H26.5163C27.2228 35.5591 27.2228 34.4637 26.5163 34.4637C25.755 34.4637 24.9937 34.4637 24.2379 34.4637C23.5314 34.4637 23.5314 35.5591 24.2379 35.5591Z" fill="currentColor" />
                        <path d="M11.7828 42.0052H14.0612C14.7677 42.0052 14.7677 40.9098 14.0612 40.9098C13.2999 40.9098 12.5386 40.9098 11.7828 40.9098C11.0763 40.9098 11.0763 42.0052 11.7828 42.0052Z" fill="currentColor" />
                        <path d="M18.0104 42.0052H20.2887C20.9952 42.0052 20.9952 40.9098 20.2887 40.9098C19.5274 40.9098 18.7662 40.9098 18.0104 40.9098C17.3038 40.9098 17.3038 42.0052 18.0104 42.0052Z" fill="currentColor" />
                        <path d="M24.2379 42.005H26.5163C27.2228 42.005 27.2228 40.9097 26.5163 40.9097C25.755 40.9097 24.9937 40.9097 24.2379 40.9097C23.5314 40.9097 23.5314 42.005 24.2379 42.005Z" fill="currentColor" />
                        <path d="M47.3057 34.4635C45.46 34.4635 43.6143 34.4635 41.7686 34.4635C38.833 34.4635 35.8919 34.4635 32.9563 34.4635C32.2881 34.4635 31.6199 34.4635 30.9518 34.4635C30.2452 34.4635 30.2452 35.5589 30.9518 35.5589H36.4889H45.3012H47.3057C48.0067 35.5589 48.0067 34.4635 47.3057 34.4635Z" fill="currentColor" />
                        <path d="M47.3057 40.9098C45.46 40.9098 43.6143 40.9098 41.7686 40.9098C38.833 40.9098 35.8919 40.9098 32.9563 40.9098C32.2881 40.9098 31.6199 40.9098 30.9518 40.9098C30.2452 40.9098 30.2452 42.0052 30.9518 42.0052H36.4889H45.3012H47.3057C48.0067 42.0052 48.0067 40.9098 47.3057 40.9098Z" fill="currentColor" />
                        <path d="M35.2684 50.4399C34.0361 50.4399 32.8092 50.4399 31.577 50.4399C29.6162 50.4399 27.65 50.4399 25.6893 50.4399C25.2402 50.4399 24.7856 50.4399 24.3365 50.4399C23.63 50.4399 23.63 51.5353 24.3365 51.5353H28.0279H33.9156H35.2684C35.9749 51.5353 35.9749 50.4399 35.2684 50.4399Z" fill="currentColor" />
                    </svg>