<svg width="20" height="20" viewBox="0 0 20 20" fill="none" xmlns="http://www.w3.org/2000/svg">
  <path d="M19.403 13.0584H18.9055V2.01361C18.9055 1.5161 18.5075 1.11809 17.9104 1.11809H11.0448L10.9453 0.720077C10.8458 0.322067 10.4478 0.0235596 9.95025 0.0235596C9.45274 0.0235596 9.15423 0.222565 8.95522 0.720077L8.85572 1.11809H1.99005C1.39303 1.11809 0.995025 1.5161 0.995025 2.01361V13.0584H0.497512C0.199005 13.0584 0 13.2574 0 13.5559V14.5509C0 14.8494 0.199005 15.0484 0.497512 15.0484H4.27861L3.08458 18.73C2.88557 19.2275 3.28358 19.8246 3.78109 19.9241C4.27861 20.1231 4.87562 19.7251 4.97512 19.2275L6.36816 14.9489H13.6318L15.0249 19.2275C15.3234 20.1231 16.1194 19.9241 16.2189 19.9241C16.7164 19.7251 17.0149 19.2275 16.9154 18.73L15.7214 15.0484H19.5025C19.801 15.0484 20 14.8494 20 14.5509V13.5559C19.9005 13.2574 19.7015 13.0584 19.403 13.0584ZM12.9353 10.0733H3.9801C3.38308 10.0733 2.98507 9.6753 2.98507 9.07829C2.98507 8.48127 3.38308 8.08326 3.9801 8.08326H12.9353C13.5323 8.08326 13.9303 8.48127 13.9303 9.07829C13.9303 9.5758 13.4328 10.0733 12.9353 10.0733ZM15.9204 6.09321H3.9801C3.38308 6.09321 2.98507 5.6952 2.98507 5.09819C2.98507 4.50117 3.38308 4.10316 3.9801 4.10316H15.9204C16.5174 4.10316 16.9154 4.50117 16.9154 5.09819C16.9154 5.5957 16.4179 6.09321 15.9204 6.09321Z" fill="currentColor"/>
</svg>
