<svg class="footer__card" width="57" height="19" viewBox="0 0 57 19" fill="none" xmlns="http://www.w3.org/2000/svg">
    <g clip-path="url(#clip0_100_5045)">
        <path
            d="M0.429443 2.05814H5.76174C6.2465 2.05814 7.70076 1.8998 8.3471 4.11647C8.83185 5.54147 9.47819 7.75814 10.4477 11.0831H10.7709C11.7404 7.5998 12.5483 5.2248 12.8715 4.11647C13.5178 1.8998 15.1337 2.05814 15.78 2.05814H20.7891V17.2581H15.6184V8.23314H15.2952L12.5483 17.2581H8.67027L5.92333 8.23314H5.43857V17.2581H0.429443M22.8897 2.05814H28.0604V11.0831H28.5452L31.9385 3.64147C32.5848 2.21647 34.0391 2.05814 34.0391 2.05814H38.8866V17.2581H33.7159V8.23314H33.3927L29.9995 15.6748C29.3531 17.0998 27.7373 17.2581 27.7373 17.2581H22.8897M45.8348 12.6665V17.2581H40.9872V9.34147H56.8225C56.1762 11.2415 53.914 12.6665 51.3287 12.6665"
            fill="#0F754E" />
        <path
            d="M57.1442 8.39193C57.7905 5.54193 55.8515 2.05859 51.6503 2.05859H40.6625C40.9857 5.38359 43.8942 8.39193 46.9643 8.39193"
            fill="url(#paint0_linear_100_5045)" />
    </g>
    <defs>
        <linearGradient id="paint0_linear_100_5045" x1="55.2052" y1="0.000260286" x2="42.2784" y2="0.000260286"
            gradientUnits="userSpaceOnUse">
            <stop stop-color="#1F5CD7" />
            <stop offset="1" stop-color="#02AEFF" />
        </linearGradient>
        <clipPath id="clip0_100_5045">
            <rect width="57" height="19" fill="white" />
        </clipPath>
    </defs>
</svg>