<svg width="12" height="12" fill="none" xmlns="http://www.w3.org/2000/svg"><path d="M8.854 4.854a.5.5 0 10-.708-.708L8.5 4.5l.354.354zM5 8l-.354.354a.5.5 0 00.708 0L5 8zM3.854 6.146a.5.5 0 10-.708.708L3.5 6.5l.354-.354zM8.5 4.5l-.354-.354-3.5 3.5L5 8l.354.354 3.5-3.5L8.5 4.5zm-5 2l-.354.354 1.5 1.5L5 8l.354-.354-1.5-1.5L3.5 6.5zm7-.5H10a4 4 0 01-4 4v1a5 5 0 005-5h-.5zM6 10.5V10a4 4 0 01-4-4H1a5 5 0 005 5v-.5zM1.5 6H2a4 4 0 014-4V1a5 5 0 00-5 5h.5zM6 1.5V2a4 4 0 014 4h1a5 5 0 00-5-5v.5z" fill="#00B162"/></svg>