<svg class="footer__card" width="36" height="29" viewBox="0 0 36 29" fill="none" xmlns="http://www.w3.org/2000/svg">
    <g clip-path="url(#clip0_100_5050)">
        <path
            d="M6.52496 28.9364V27.0117C6.52496 26.2755 6.09261 25.7934 5.35042 25.7934C4.97932 25.7934 4.5758 25.9205 4.29838 26.3391C4.0822 25.9878 3.77236 25.7934 3.30758 25.7934C2.99774 25.7934 2.68789 25.8906 2.44289 26.2419V25.857H1.79437V28.9364H2.44289V27.236C2.44289 26.6903 2.72031 26.4325 3.15266 26.4325C3.58501 26.4325 3.80118 26.7202 3.80118 27.236V28.9364H4.4497V27.236C4.4497 26.6903 4.75954 26.4325 5.15946 26.4325C5.59181 26.4325 5.80798 26.7202 5.80798 27.236V28.9364H6.52496ZM16.1447 25.857H15.0926V24.9264H14.4441V25.857H13.8568V26.4661H14.4441V27.8787C14.4441 28.5851 14.7215 28.9999 15.4637 28.9999C15.7411 28.9999 16.051 28.9027 16.2672 28.7757L16.0798 28.1964C15.8925 28.3235 15.6763 28.3571 15.5214 28.3571C15.2115 28.3571 15.089 28.1628 15.089 27.8451V26.4661H16.1411V25.857H16.1447ZM21.6499 25.7897C21.2788 25.7897 21.0302 25.984 20.8752 26.2382V25.8532H20.2267V28.9326H20.8752V27.1986C20.8752 26.6866 21.0914 26.3951 21.4949 26.3951C21.6174 26.3951 21.7724 26.4287 21.8985 26.4586L22.0858 25.8159C21.9561 25.7897 21.7724 25.7897 21.6499 25.7897ZM13.3308 26.1111C13.021 25.8869 12.5886 25.7897 12.1238 25.7897C11.3816 25.7897 10.888 26.1746 10.888 26.7838C10.888 27.2958 11.2591 27.5873 11.9077 27.6807L12.2175 27.7143C12.5562 27.7778 12.7435 27.875 12.7435 28.0357C12.7435 28.2599 12.4949 28.4206 12.0626 28.4206C11.6302 28.4206 11.288 28.2599 11.0718 28.0992L10.7619 28.6112C11.1006 28.8691 11.5654 28.9961 12.0302 28.9961C12.8949 28.9961 13.3921 28.5776 13.3921 28.0021C13.3921 27.4565 12.9885 27.1687 12.3724 27.0715L12.0626 27.0379C11.7852 27.0043 11.569 26.9407 11.569 26.7501C11.569 26.5259 11.7852 26.3989 12.1274 26.3989C12.4985 26.3989 12.8696 26.5595 13.057 26.6567L13.3308 26.1111ZM30.585 25.7897C30.2139 25.7897 29.9653 25.984 29.8104 26.2382V25.8532H29.1619V28.9326H29.8104V27.1986C29.8104 26.6866 30.0266 26.3951 30.4301 26.3951C30.5526 26.3951 30.7075 26.4287 30.8336 26.4586L31.021 25.8233C30.8949 25.7897 30.7111 25.7897 30.585 25.7897ZM22.2984 27.3967C22.2984 28.3272 22.9181 28.9999 23.8764 28.9999C24.3088 28.9999 24.6186 28.9027 24.9285 28.6486L24.6186 28.103C24.37 28.2973 24.125 28.3907 23.844 28.3907C23.318 28.3907 22.9469 28.0058 22.9469 27.3967C22.9469 26.8174 23.318 26.4325 23.844 26.4026C24.1214 26.4026 24.37 26.4998 24.6186 26.6903L24.9285 26.1447C24.6186 25.8869 24.3088 25.7934 23.8764 25.7934C22.9181 25.7897 22.2984 26.4661 22.2984 27.3967ZM28.2972 27.3967V25.857H27.6487V26.2419C27.4325 25.9541 27.1226 25.7934 26.7191 25.7934C25.8832 25.7934 25.2347 26.4661 25.2347 27.3967C25.2347 28.3272 25.8832 28.9999 26.7191 28.9999C27.1515 28.9999 27.4613 28.8392 27.6487 28.5514V28.9364H28.2972V27.3967ZM25.9157 27.3967C25.9157 26.851 26.2543 26.4026 26.8128 26.4026C27.3388 26.4026 27.7099 26.8211 27.7099 27.3967C27.7099 27.9423 27.3388 28.3907 26.8128 28.3907C26.2579 28.3571 25.9157 27.9385 25.9157 27.3967ZM18.1551 25.7897C17.2904 25.7897 16.6707 26.4325 16.6707 27.3929C16.6707 28.3571 17.2904 28.9961 18.1875 28.9961C18.6198 28.9961 19.0522 28.8691 19.3945 28.5776L19.0846 28.0955C18.836 28.2898 18.5262 28.4169 18.2199 28.4169C17.8164 28.4169 17.4165 28.2226 17.3228 27.6807H19.517C19.517 27.5835 19.517 27.52 19.517 27.4228C19.5458 26.4325 18.9873 25.7897 18.1551 25.7897ZM18.1551 26.369C18.5586 26.369 18.836 26.6268 18.8973 27.1052H17.3516C17.4129 26.6903 17.6903 26.369 18.1551 26.369ZM34.2672 27.3967V24.6387H33.6186V26.2419C33.4025 25.9541 33.0926 25.7934 32.6891 25.7934C31.8532 25.7934 31.2047 26.4661 31.2047 27.3967C31.2047 28.3272 31.8532 28.9999 32.6891 28.9999C33.1214 28.9999 33.4313 28.8392 33.6186 28.5514V28.9364H34.2672V27.3967ZM31.8856 27.3967C31.8856 26.851 32.2243 26.4026 32.7828 26.4026C33.3088 26.4026 33.6799 26.8211 33.6799 27.3967C33.6799 27.9423 33.3088 28.3907 32.7828 28.3907C32.2243 28.3571 31.8856 27.9385 31.8856 27.3967ZM10.1747 27.3967V25.857H9.52616V26.2419C9.30999 25.9541 9.00014 25.7934 8.59661 25.7934C7.76075 25.7934 7.11223 26.4661 7.11223 27.3967C7.11223 28.3272 7.76075 28.9999 8.59661 28.9999C9.02896 28.9999 9.33881 28.8392 9.52616 28.5514V28.9364H10.1747V27.3967ZM7.76435 27.3967C7.76435 26.851 8.10302 26.4026 8.66147 26.4026C9.18749 26.4026 9.55858 26.8211 9.55858 27.3967C9.55858 27.9423 9.18749 28.3907 8.66147 28.3907C8.10302 28.3571 7.76435 27.9385 7.76435 27.3967Z"
            fill="white" />
        <path d="M22.8568 2.47021H13.1146V20.6251H22.8568V2.47021Z" fill="#FF5A00" />
        <path
            d="M13.763 11.5477C13.763 7.85915 15.4347 4.58544 18 2.47023C16.1121 0.930541 13.7306 0 11.1329 0C4.97918 0 0 5.16469 0 11.5477C0 17.9307 4.97918 23.0954 11.1329 23.0954C13.7306 23.0954 16.1121 22.1648 18 20.6251C15.4311 18.5398 13.763 15.2362 13.763 11.5477Z"
            fill="#EB001B" />
        <path
            d="M36.0001 11.5477C36.0001 17.9307 31.0209 23.0954 24.8672 23.0954C22.2695 23.0954 19.888 22.1648 18.0001 20.6251C20.5977 18.5062 22.2371 15.2362 22.2371 11.5477C22.2371 7.85915 20.5653 4.58544 18.0001 2.47023C19.8844 0.930541 22.2659 0 24.8636 0C31.0209 0 36.0001 5.19832 36.0001 11.5477Z"
            fill="#F79E1B" />
    </g>
    <defs>
        <clipPath id="clip0_100_5050">
            <rect width="36" height="29" fill="white" />
        </clipPath>
    </defs>
</svg>