<svg class="footer__card" width="59" height="19" viewBox="0 0 59 19" fill="none" xmlns="http://www.w3.org/2000/svg">
    <g clip-path="url(#clip0_100_5048)">
        <path
            d="M38.4201 0.0292969C34.2353 0.0292969 30.4952 2.18105 30.4952 6.15567C30.4952 10.7143 37.128 11.0291 37.128 13.3196C37.128 14.284 36.0141 15.1471 34.1108 15.1471C31.4103 15.1471 29.3919 13.9411 29.3919 13.9411L28.5282 17.9525C28.5282 17.9525 30.8534 18.9714 33.9403 18.9714C38.5157 18.9714 42.1165 16.7143 42.1165 12.6712C42.1165 7.85389 35.456 7.54842 35.456 5.42301C35.456 4.66753 36.3705 3.84006 38.2679 3.84006C40.409 3.84006 42.1554 4.71727 42.1554 4.71727L43.0009 0.843298C43.0009 0.843298 41.0999 0.0292969 38.4195 0.0292969H38.4201ZM0.130899 0.321893L0.0294189 0.906499C0.0294189 0.906499 1.78998 1.22601 3.3759 1.86387C5.41789 2.59478 5.56303 3.0208 5.907 4.34216L9.65409 18.6694H14.6773L22.4158 0.321893H17.4043L12.4318 12.7964L10.4028 2.22201C10.2169 1.01183 9.27413 0.321307 8.12068 0.321307H0.131489L0.130899 0.321893ZM24.4312 0.321893L20.5001 18.6694H25.2791L29.1961 0.321893H24.4312ZM51.0851 0.321893C49.9328 0.321893 49.3221 0.934003 48.8743 2.00315L41.8728 18.6694H46.8843L47.8536 15.8915H53.959L54.5484 18.6694H58.9704L55.113 0.321893H51.0851ZM51.737 5.27905L53.2226 12.1638H49.2431L51.7376 5.27905H51.737Z"
            fill="#1434CB" />
    </g>
    <defs>
        <clipPath id="clip0_100_5048">
            <rect width="59" height="19" fill="white" />
        </clipPath>
    </defs>
</svg>