<svg width="117" height="35" viewBox="0 0 117 35" fill="none" xmlns="http://www.w3.org/2000/svg">
    <g clip-path="url(#clip0_134_903)">
        <path
            d="M43.6207 14.1516C45.2771 14.1516 46.4762 13.7154 47.2845 12.6687L47.3971 13.8295H49.716V6.14316H43.359V8.72987H46.9798V8.78691C46.9798 10.4644 45.8534 11.4709 43.8825 11.4709C41.6299 11.4709 40.202 9.93096 40.202 7.03895C40.202 4.22409 41.6861 2.72106 43.9387 2.72106C45.2903 2.72106 46.3239 3.17734 47.8443 4.5294L49.7624 2.5164C48.9764 1.70046 48.0459 1.0415 47.0194 0.573845C46.0407 0.176464 44.993 -0.0175006 43.9387 0.00349208C39.7317 -0.0535431 37.0651 3.04649 37.1048 7.04901C37.0882 11.1656 39.5462 14.1516 43.6207 14.1516ZM57.4443 6.61958L57.9677 4.11003C57.4565 3.91315 56.9174 3.7999 56.3711 3.77452C55.8552 3.76082 55.3472 3.90364 54.9121 4.18463C54.4771 4.46561 54.135 4.87193 53.9297 5.35138V3.94563H51.3193V13.8362H54.1384V9.13919C54.1384 7.46168 54.9069 6.40149 56.1656 6.40149C56.598 6.43147 57.0262 6.50452 57.4443 6.61958ZM73.4973 11.7192C72.0696 11.7192 71.2084 10.5382 71.2084 8.86407C71.2084 7.18992 72.0895 6.01231 73.5272 6.01231C74.2593 6.01231 74.9151 6.2975 75.9686 7.23019L77.6746 5.44196C76.3495 4.09995 75.0841 3.59671 73.4874 3.59671C70.4829 3.59671 68.3429 5.60971 68.3429 8.86407C68.3429 12.1184 70.4464 14.1516 73.4311 14.1516C75.1769 14.1516 76.5318 13.5443 77.8999 11.803L76.0249 10.2228C75.0378 11.2998 74.3983 11.7192 73.4973 11.7192ZM104.709 7.00204C104.239 8.65606 103.844 10.0618 103.563 11.2595C103.281 10.0618 102.9 8.65606 102.417 7.00204L101.535 3.93892H98.5541L101.82 13.8295H105.219L108.505 3.93892H105.577L104.709 7.00204ZM84.1276 3.59671C83.6211 3.57403 83.116 3.66651 82.6493 3.8674C82.1828 4.06827 81.7665 4.37243 81.4311 4.75754V0.325573H78.6154V13.8295H81.4311V7.95151C81.4311 6.81081 82.1268 6.06936 83.1603 6.06936C84.1938 6.06936 84.7934 6.74035 84.7934 7.89447V13.8295H87.6092V7.05908C87.6191 4.94542 86.3239 3.59671 84.1276 3.59671ZM62.3636 7.81731C59.677 8.25682 58.1566 9.22641 58.1566 11.2998C58.1566 13.2021 59.6009 14.1717 61.6316 14.1717C63.056 14.1717 64.0895 13.7321 64.7288 12.8297V13.8362H67.263V7.23019C67.263 5.00246 65.7624 3.59671 62.9268 3.59671C61.0286 3.59671 59.528 4.35829 58.193 5.87811L59.9785 7.51536C60.8033 6.73365 61.1809 6.39144 61.8369 6.14316C62.1965 6.00422 62.5783 5.9337 62.9632 5.93515C63.9967 5.93515 64.5963 6.43169 64.5963 7.32413V7.4382L62.3636 7.81731ZM64.5963 9.79676C64.5963 11.2998 63.5098 11.9474 62.2311 11.9474C61.3499 11.9474 60.8596 11.6118 60.8596 11.0717C60.8596 10.4007 61.5222 10.0048 62.983 9.72967L64.5963 9.42772V9.79676ZM98.362 8.6158C98.362 5.47887 96.7256 3.58329 93.7243 3.58329C90.5706 3.58329 88.7123 5.8647 88.7123 8.90768C88.7123 12.0647 90.7396 14.1382 93.9495 14.1382C95.6058 14.1382 96.9574 13.6249 98.3653 12.256L96.825 10.4678C95.7549 11.3803 95.0791 11.7225 94.0258 11.7225C92.598 11.7225 91.7069 10.9609 91.4353 9.68941H98.3255C98.3421 9.41765 98.362 9.05531 98.362 8.6158ZM91.4882 7.70324C91.7698 6.56254 92.4821 5.82108 93.6647 5.82108C94.8472 5.82108 95.5429 6.49208 95.6754 7.70324H91.4882ZM51.3325 20.0899H54.1516V17.7146H51.3325V20.0899ZM43.9553 17.7146H38.3967V31.2185H43.9553C47.7682 31.2185 50.1135 28.4405 50.1135 24.4649C50.1135 20.4892 47.7682 17.7146 43.9553 17.7146ZM43.5048 28.6452H41.4178V20.3013H43.5048C45.552 20.3013 46.9599 21.6433 46.9599 24.4649C46.9599 27.2864 45.552 28.6452 43.5048 28.6452ZM51.3325 31.2319H54.1516V21.3279H51.3325V31.2319ZM88.8348 31.2319H91.6506V17.7146H88.8348V31.2319ZM76.1044 28.9807C75.5015 28.9807 75.1835 28.7727 75.1835 28.0849V23.4584H77.3798V21.3279H75.1835V18.4359H72.3644V21.3279H70.6584V23.4584H72.3644V28.5915C72.3644 30.6045 73.1926 31.4667 75.2962 31.4667C76.0538 31.4577 76.8062 31.3355 77.5289 31.1044L77.1975 28.823C76.8386 28.9088 76.4727 28.9616 76.1044 28.9807ZM82.9184 20.9925C81.0236 20.9925 79.5197 21.754 78.1881 23.2739L79.9703 24.9111C80.7984 24.1293 81.1727 23.7871 81.8286 23.5422C82.1887 23.4005 82.572 23.3288 82.9582 23.3308C83.9885 23.3308 84.5913 23.8274 84.5913 24.7199V24.8339L82.3554 25.2131C79.6688 25.6525 78.1483 26.6221 78.1483 28.6956C78.1483 30.5978 79.5959 31.5674 81.6232 31.5674C83.051 31.5674 84.0845 31.1279 84.7205 30.2254V31.2151H87.2581V24.6192C87.2581 22.3914 85.7541 20.9857 82.9184 20.9857V20.9925ZM84.5913 27.1925C84.5913 28.6956 83.5015 29.3431 82.2229 29.3431C81.3417 29.3431 80.8547 29.0076 80.8547 28.4674C80.8547 27.7964 81.5173 27.4004 82.9748 27.1254L84.5913 26.8234V27.1925ZM67.0146 20.0899H69.8369V17.7146H67.0211L67.0146 20.0899ZM67.0146 31.2185H69.8369V21.3279H67.0211L67.0146 31.2185ZM62.4696 22.2975C61.8502 21.4219 60.8729 20.9857 59.5776 20.9857C57.1562 20.9857 55.2712 22.9987 55.2712 25.9478C55.2712 28.8969 57.1495 30.9131 59.5776 30.9131C60.7801 30.9131 61.6812 30.5341 62.3007 29.7926V30.363C62.3007 31.9029 61.4559 32.5873 60.1043 32.5873C59.0709 32.5873 58.1698 32.282 56.7619 31.4667L55.4103 33.5368C56.8219 34.4571 58.4623 34.9527 60.1408 34.9661C62.9201 34.9661 65.0601 33.4798 65.0601 30.628V21.3279H62.4696V22.2975ZM60.2534 28.4976C58.9946 28.4976 58.1135 27.4709 58.1135 25.9478C58.1135 24.4246 58.9946 23.4181 60.2534 23.4181C61.5123 23.4181 62.4133 24.4246 62.4133 25.9478C62.4133 27.4709 61.5123 28.4976 60.2534 28.4976ZM112.868 0.651009H110.112V1.46963H111.02V3.94563H111.96V1.46963H112.868V0.651009ZM116.843 3.44573C116.82 3.27463 116.797 3.0901 116.774 2.8888L116.627 1.77158C116.601 1.56693 116.578 1.3757 116.555 1.19452C116.531 1.01335 116.509 0.835534 116.485 0.651009H115.551L115.388 1.12071L115.22 1.53673L114.922 2.39226H114.889L114.557 1.53338C114.504 1.38911 114.451 1.24485 114.395 1.10058C114.339 0.956316 114.283 0.798631 114.223 0.634235H113.265C113.239 0.818761 113.216 1.00329 113.196 1.1811C113.176 1.35892 113.152 1.55351 113.126 1.75145L112.987 2.86867C112.964 3.06997 112.941 3.2545 112.921 3.42896C112.901 3.60342 112.878 3.76446 112.858 3.93892H113.729C113.753 3.74433 113.777 3.55645 113.798 3.37528C113.821 3.19411 113.841 3.02636 113.858 2.87203L113.938 2.20102H113.997L114.249 2.91564C114.293 3.02971 114.332 3.14378 114.372 3.25115C114.412 3.3585 114.454 3.48264 114.494 3.58664C114.535 3.69065 114.571 3.80807 114.607 3.92214H115.22C115.266 3.76781 115.316 3.60677 115.366 3.43231C115.416 3.25785 115.469 3.09681 115.522 2.90894L115.731 2.19432H115.793L115.876 2.86532C115.892 3.01964 115.916 3.20082 115.935 3.36522C115.955 3.52961 115.981 3.72756 116.005 3.9255H116.899C116.876 3.76782 116.876 3.59671 116.843 3.42896V3.44573Z"
            fill="white" />
        <path
            d="M25.0667 0H5.75404C2.57617 0 0 2.60912 0 5.82765V25.3874C0 28.6059 2.57617 31.215 5.75404 31.215H25.0667C28.2445 31.215 30.8207 28.6059 30.8207 25.3874V5.82765C30.8207 2.60912 28.2445 0 25.0667 0Z"
            fill="url(#paint0_linear_134_903)" />
        <path
            d="M20.0613 17.9124L22.9367 26.8737L15.4104 21.3345L7.8841 26.8737L10.7595 17.9124L3.23315 12.3734H12.5351L15.4104 3.41211L18.2858 12.3734H27.5909L20.0613 17.9124Z"
            fill="white" />
    </g>
    <defs>
        <linearGradient id="paint0_linear_134_903" x1="2.66004" y1="2.69742" x2="27.8407" y2="27.5567"
            gradientUnits="userSpaceOnUse">
            <stop stop-color="#00E2FF" />
            <stop offset="1" stop-color="#0038FF" />
        </linearGradient>
        <clipPath id="clip0_134_903">
            <rect width="117" height="35" fill="white" />
        </clipPath>
    </defs>
</svg>