<svg width="16" height="16" fill="none" xmlns="http://www.w3.org/2000/svg"><path d="M8 11.333a.646.646 0 00.476-.192.643.643 0 00.191-.475V8a.643.643 0 00-.192-.475.648.648 0 00-.474-.192.641.641 0 00-.475.192.646.646 0 00-.192.475v2.666c0 .19.064.348.192.476a.642.642 0 00.475.191zM8 6a.646.646 0 00.476-.192.643.643 0 00.191-.475.648.648 0 00-.192-.475.643.643 0 00-.474-.192.643.643 0 00-.475.192.648.648 0 00-.192.475c0 .188.064.347.192.475A.64.64 0 008.001 6zm0 8.666a6.489 6.489 0 01-2.6-.525 6.742 6.742 0 01-2.116-1.425A6.717 6.717 0 011.859 10.6 6.507 6.507 0 011.334 8c0-.922.175-1.789.525-2.6a6.747 6.747 0 011.425-2.117c.6-.6 1.305-1.074 2.117-1.425A6.494 6.494 0 018 1.333c.921 0 1.788.175 2.6.525.812.35 1.517.825 2.116 1.425.6.6 1.074 1.305 1.426 2.117.35.811.526 1.678.524 2.6a6.536 6.536 0 01-.525 2.6 6.688 6.688 0 01-1.425 2.116c-.6.6-1.306 1.075-2.116 1.426a6.46 6.46 0 01-2.6.524z" fill="currentColor"/></svg>