<svg width="20" height="20" viewBox="0 0 20 20" fill="none" xmlns="http://www.w3.org/2000/svg">
    <mask id="mask0_847_63721" style="mask-type:luminance" maskUnits="userSpaceOnUse" x="1" y="1" width="18"
        height="18">
        <path d="M1.25 1.25H18.75V18.75H1.25V1.25Z" fill="white" />
    </mask>
    <g mask="url(#mask0_847_63721)">
        <path d="M17.1351 8.9032L16.5859 8.9005" stroke="currentColor" stroke-width="1.5" stroke-miterlimit="10"
            stroke-linecap="round" stroke-linejoin="round" />
        <path d="M3.40851 8.90308L2.85938 8.90038" stroke="currentColor" stroke-width="1.5" stroke-miterlimit="10"
            stroke-linecap="round" stroke-linejoin="round" />
    </g>
    <path d="M15.0211 3.82998L14.6328 4.21826" stroke="currentColor" stroke-width="1.5" stroke-miterlimit="10"
        stroke-linecap="round" stroke-linejoin="round" />
    <path d="M5.36488 13.5851L4.97656 13.9734" stroke="currentColor" stroke-width="1.5" stroke-miterlimit="10"
        stroke-linecap="round" stroke-linejoin="round" />
    <path d="M4.97656 3.82998L5.36488 4.21826" stroke="currentColor" stroke-width="1.5" stroke-miterlimit="10"
        stroke-linecap="round" stroke-linejoin="round" />
    <path d="M14.6328 13.5851L15.0211 13.9734" stroke="currentColor" stroke-width="1.5" stroke-miterlimit="10"
        stroke-linecap="round" stroke-linejoin="round" />
    <mask id="mask1_847_63721" style="mask-type:luminance" maskUnits="userSpaceOnUse" x="1" y="1" width="18"
        height="18">
        <path d="M1.25 1.25H18.75V18.75H1.25V1.25Z" fill="white" />
    </mask>
    <g mask="url(#mask1_847_63721)">
        <path
            d="M12.1979 14.9424H7.80469V16.0407C7.80469 16.6473 8.29643 17.139 8.90298 17.139H11.0996C11.7062 17.139 12.1979 16.6473 12.1979 16.0407V14.9424Z"
            stroke="currentColor" stroke-width="1.5" stroke-miterlimit="10" stroke-linecap="round" stroke-linejoin="round" />
        <path d="M10 2.31177V1.76264" stroke="currentColor" stroke-width="1.5" stroke-miterlimit="10" stroke-linecap="round"
            stroke-linejoin="round" />
        <path d="M10 14.9424V11.6475" stroke="currentColor" stroke-width="1.5" stroke-miterlimit="10" stroke-linecap="round"
            stroke-linejoin="round" />
        <path d="M10 18.2373V17.139" stroke="currentColor" stroke-width="1.5" stroke-miterlimit="10" stroke-linecap="round"
            stroke-linejoin="round" />
        <path
            d="M7.806 14.9423C7.806 13.7621 7.39017 12.6197 6.63155 11.7156C5.99318 10.954 5.60938 9.97228 5.60938 8.9017C5.60938 6.47703 7.57792 4.50845 10.0026 4.50845C12.4273 4.50845 14.3958 6.47703 14.3958 8.9017C14.3958 9.97228 14.012 10.954 13.3747 11.7165C12.6163 12.6203 12.2006 13.7624 12.2006 14.9423L12.1992 14.9424H7.806V14.9423Z"
            stroke="currentColor" stroke-width="1.5" stroke-miterlimit="10" stroke-linecap="round" stroke-linejoin="round" />
    </g>
</svg>