<svg width="32" height="32" fill="none" xmlns="http://www.w3.org/2000/svg"><path d="M13.333 5.333c0-.736.597-1.333 1.334-1.333h2.666c.737 0 1.334.597 1.334 1.333v.759c0 .57.382 1.066.91 1.284.526.22 1.14.136 1.543-.268l.537-.536c.52-.52 1.365-.52 1.885 0l1.886 1.885c.52.521.52 1.365 0 1.886l-.536.537c-.404.403-.487 1.017-.268 1.544.218.527.714.91 1.284.91h.759c.736 0 1.333.596 1.333 1.333v2.666c0 .737-.597 1.334-1.333 1.334h-.759c-.57 0-1.066.382-1.284.91-.22.526-.136 1.14.268 1.543l.536.537c.52.52.52 1.365 0 1.885l-1.886 1.886c-.52.52-1.365.52-1.885 0l-.537-.536c-.403-.404-1.017-.487-1.544-.268-.527.218-.91.714-.91 1.284v.759c0 .736-.596 1.333-1.333 1.333h-2.666a1.333 1.333 0 01-1.334-1.333v-.759c0-.57-.383-1.066-.91-1.284-.526-.22-1.14-.136-1.543.268l-.537.536c-.52.52-1.365.52-1.886 0l-1.885-1.886a1.333 1.333 0 010-1.885l.536-.537c.404-.403.487-1.017.268-1.544-.218-.527-.714-.91-1.284-.91h-.759A1.333 1.333 0 014 17.334v-2.666c0-.737.597-1.334 1.333-1.334h.759c.57 0 1.066-.383 1.284-.91.22-.526.136-1.14-.268-1.543l-.536-.537a1.333 1.333 0 010-1.886l1.885-1.885c.521-.52 1.365-.52 1.886 0l.537.536c.403.404 1.017.487 1.544.268.527-.218.91-.714.91-1.284v-.759z" stroke="#333" stroke-opacity=".8"/><path d="M18.667 16a2.667 2.667 0 11-5.334 0 2.667 2.667 0 015.334 0z" stroke="#333" /></svg>