<svg width="16"
    height="16"
    viewBox="0 0 16 16"
    fill="none"
    xmlns="http://www.w3.org/2000/svg">
<path d="M12.803 13.8637C13.0959 14.1566 13.5708 14.1566 13.8637 13.8637C14.1566 13.5708 14.1566 13.0959 13.8637 12.803L13.3333 13.3333L12.803 13.8637ZM12 7H11.25C11.25 9.34721 9.34721 11.25 7 11.25V12V12.75C10.1756 12.75 12.75 10.1756 12.75 7H12ZM7 12V11.25C4.65279 11.25 2.75 9.34721 2.75 7H2H1.25C1.25 10.1756 3.82436 12.75 7 12.75V12ZM2 7H2.75C2.75 4.65279 4.65279 2.75 7 2.75V2V1.25C3.82436 1.25 1.25 3.82436 1.25 7H2ZM7 2V2.75C9.34721 2.75 11.25 4.65279 11.25 7H12H12.75C12.75 3.82436 10.1756 1.25 7 1.25V2ZM13.3333 13.3333L13.8637 12.803L11.0719 10.0113L10.5416 10.5416L10.0113 11.0719L12.803 13.8637L13.3333 13.3333Z"
        fill="#333333" />
</svg>