<svg width="16" height="16" viewBox="0 0 16 16" fill="none" xmlns="http://www.w3.org/2000/svg">
<path d="M8 3C5.0186 3 2 4.14697 2 6.33853C2 8.53008 5.0186 9.67705 8 9.67705C10.9814 9.67705 14 8.53008 14 6.33853C14 4.14697 10.982 3 8 3ZM5 10.3729V12.5986C5.7422 12.8205 6.563 12.9562 7.4 13V10.7743C6.59143 10.7361 5.78772 10.6017 5 10.3729ZM8.6 10.7736V12.9993C9.40857 12.9611 10.2123 12.8267 11 12.5979V10.3722C10.2123 10.601 9.40857 10.7354 8.6 10.7736ZM12.2 9.8974V12.1231C13.2806 11.563 14 10.7454 14 9.67705V7.45137C14 8.5197 13.2806 9.33726 12.2 9.8974ZM3.8 12.1231V9.8974C2.72 9.33726 2 8.51896 2 7.45137V9.67705C2 10.7446 2.72 11.563 3.8 12.1231Z" fill="#00B162"/>
</svg>
