<svg width="40" height="40" viewBox="0 0 40 40" fill="none" xmlns="http://www.w3.org/2000/svg">
<path d="M4.1543 33.0388V13.3337V10.5964C4.1543 10.4103 4.2576 10.2396 4.42245 10.1534L19.7693 2.12134C19.9145 2.04534 20.0878 2.04534 20.233 2.12134L35.5799 10.1534C35.7447 10.2396 35.848 10.4103 35.848 10.5964V33.0388" stroke="#333333" stroke-miterlimit="22.9256" stroke-linecap="round"/>
<path d="M31.4516 14.8613V33.0393M8.56055 33.0393V14.8613" stroke="#333333" stroke-miterlimit="22.9256"/>
<path d="M31.968 12.8242H8.04102C7.76487 12.8242 7.54102 13.0481 7.54102 13.3242V14.3602C7.54102 14.6364 7.76487 14.8602 8.04102 14.8602H31.968C32.2441 14.8602 32.468 14.6364 32.468 14.3602V13.3242C32.468 13.0481 32.2441 12.8242 31.968 12.8242Z" stroke="#333333" stroke-miterlimit="22.9256"/>
<path d="M8.56055 16.8965H31.4516" stroke="#333333" stroke-miterlimit="22.9256"/>
<path fill-rule="evenodd" clip-rule="evenodd" d="M33.3035 35.0751H3.63672C3.36058 35.0751 3.13672 34.8512 3.13672 34.5751V33.5391C3.13672 33.2629 3.36058 33.0391 3.63672 33.0391H36.3665C36.6426 33.0391 36.8665 33.2629 36.8665 33.5391V34.5751C36.8665 34.8512 36.6426 35.0751 36.3665 35.0751H33.3035Z" stroke="#333333" stroke-miterlimit="22.9256" stroke-linecap="round"/>
<path fill-rule="evenodd" clip-rule="evenodd" d="M33.3015 38.8368H3.63477C3.35862 38.8368 3.13477 38.6129 3.13477 38.3368V37.3008C3.13477 37.0246 3.35862 36.8008 3.63477 36.8008H36.3645C36.6406 36.8008 36.8645 37.0246 36.8645 37.3008V38.3368C36.8645 38.6129 36.6406 38.8368 36.3645 38.8368H33.3015Z" stroke="#333333" stroke-miterlimit="22.9256" stroke-linecap="round"/>
<path d="M8.56055 26.9303H26.3845C26.6607 26.9303 26.8845 27.1541 26.8845 27.4303V33.0383M8.56055 20.8223H20.2765C20.5527 20.8223 20.7765 21.0461 20.7765 21.3223V33.0383" stroke="#333333" stroke-miterlimit="22.9256"/>
<path d="M14.668 20.8223V33.0383" stroke="#333333" stroke-miterlimit="22.9256"/>
<path d="M21.5388 8.24414H18.4668C18.1907 8.24414 17.9668 8.468 17.9668 8.74414V9.78014C17.9668 10.0563 18.1907 10.2801 18.4668 10.2801H21.5388C21.8149 10.2801 22.0388 10.0563 22.0388 9.78014V8.74414C22.0388 8.468 21.8149 8.24414 21.5388 8.24414Z" stroke="#333333" stroke-miterlimit="22.9256"/>
<path d="M27.4863 8.64832L27.4863 8M29.5223 9.64832V9.01807" stroke="#333333" stroke-miterlimit="22.9256" stroke-linecap="round"/>
<path d="M12.6317 26.9316V28.4676C12.6317 28.7438 12.4078 28.9676 12.1317 28.9676H11.0957C10.8196 28.9676 10.5957 28.7438 10.5957 28.4676V26.9316" stroke="#333333" stroke-miterlimit="22.9256"/>
<path d="M18.7391 26.9316V28.4676C18.7391 28.7438 18.5153 28.9676 18.2391 28.9676H17.2031C16.927 28.9676 16.7031 28.7438 16.7031 28.4676V26.9316" stroke="#333333" stroke-miterlimit="22.9256"/>
<path d="M24.7587 26.9316V28.4676C24.7587 28.7438 24.5348 28.9676 24.2587 28.9676H23.2227C22.9465 28.9676 22.7227 28.7438 22.7227 28.4676V26.9316" stroke="#333333" stroke-miterlimit="22.9256"/>
<path d="M12.6317 20.8223V22.3583C12.6317 22.6344 12.4078 22.8583 12.1317 22.8583H11.0957C10.8196 22.8583 10.5957 22.6344 10.5957 22.3583V20.8223" stroke="#333333" stroke-miterlimit="22.9256"/>
<path d="M18.7391 20.8223V22.3583C18.7391 22.6344 18.5153 22.8583 18.2391 22.8583H17.2031C16.927 22.8583 16.7031 22.6344 16.7031 22.3583V20.8223" stroke="#333333" stroke-miterlimit="22.9256"/>
</svg>
