<svg width="60" height="60" viewBox="0 0 60 60" fill="none" xmlns="http://www.w3.org/2000/svg">
<path d="M52.8803 16.6314V13.716C52.8803 13.608 52.7723 13.5 52.6643 13.5H10.8761C10.7681 13.5 10.6602 13.608 10.6602 13.716V16.6314" stroke="#333333" stroke-miterlimit="10"/>
<path d="M21.4581 47.1897H52.6643C52.7723 47.1897 52.8803 47.0818 52.8803 46.9738V19.7628C52.8803 19.6549 52.7723 19.5469 52.6643 19.5469H10.8761C10.7681 19.5469 10.6602 19.6549 10.6602 19.7628V23.4342" stroke="#333333" stroke-miterlimit="10"/>
<path d="M47.9115 40.9277H43.4844" stroke="#333333" stroke-miterlimit="10"/>
<path d="M41.3256 40.9277H36.8984" stroke="#333333" stroke-miterlimit="10"/>
<path d="M34.6317 40.9277H31.8242" stroke="#333333" stroke-miterlimit="10"/>
<path d="M38.0859 32.7204V27.3214C38.0859 27.2134 38.1939 27.1055 38.3019 27.1055H46.7243C46.8323 27.1055 46.9403 27.2134 46.9403 27.3214V32.7204C46.9403 32.8284 46.8323 32.9364 46.7243 32.9364H38.3019C38.0859 32.9364 38.0859 32.8284 38.0859 32.7204Z" stroke="#333333" stroke-miterlimit="10"/>
<path d="M10.8711 34.0162L13.5706 36.7157L18.6456 31.6406" stroke="#333333" stroke-miterlimit="10"/>
<path d="M21.1289 43.1942L15.298 47.1895H15.19L9.3591 43.1942C6.33566 41.1426 4.5 37.6872 4.5 34.0159V25.5935C4.5 25.3775 4.60798 25.2695 4.82394 25.2695H25.6641C25.88 25.2695 25.988 25.3775 25.988 25.5935V34.0159C25.988 37.6872 24.1523 41.1426 21.1289 43.1942Z" stroke="#333333" stroke-miterlimit="10"/>
<path d="M15.1908 40.9266C18.8883 40.9266 21.8856 37.9293 21.8856 34.2319C21.8856 30.5345 18.8883 27.5371 15.1908 27.5371C11.4934 27.5371 8.49609 30.5345 8.49609 34.2319C8.49609 37.9293 11.4934 40.9266 15.1908 40.9266Z" stroke="#333333" stroke-miterlimit="10"/>
</svg>
