<svg width="40"
    height="40"
    viewBox="0 0 40 40"
    fill="none"
    xmlns="http://www.w3.org/2000/svg">
    <path d="M38.125 2.5625H1.875C1.70924 2.5625 1.55027 2.62835 1.43306 2.74556C1.31585 2.86277 1.25 3.02174 1.25 3.1875V36.8125C1.25 36.9783 1.31585 37.1372 1.43306 37.2544C1.55027 37.3716 1.70924 37.4375 1.875 37.4375H38.125C38.2908 37.4375 38.4497 37.3716 38.5669 37.2544C38.6842 37.1372 38.75 36.9783 38.75 36.8125V3.1875C38.75 3.02174 38.6842 2.86277 38.5669 2.74556C38.4497 2.62835 38.2908 2.5625 38.125 2.5625ZM37.5 36.1875H2.5V3.8125H37.5V36.1875Z"
        fill="currentColor" />
    <path d="M4.89188 34.3243H18.625C18.7908 34.3243 18.9497 34.2585 19.0669 34.1413C19.1842 34.0241 19.25 33.8651 19.25 33.6993V6.3006C19.25 6.13484 19.1842 5.97587 19.0669 5.85866C18.9497 5.74145 18.7908 5.6756 18.625 5.6756H4.89188C4.72612 5.6756 4.56714 5.74145 4.44993 5.85866C4.33272 5.97587 4.26688 6.13484 4.26688 6.3006V33.6993C4.26688 33.8651 4.33272 34.0241 4.44993 34.1413C4.56714 34.2585 4.72612 34.3243 4.89188 34.3243ZM5.51688 6.9256H18V33.0743H5.51688V6.9256Z"
        fill="currentColor" />
    <path d="M21.375 34.3243H35.1081C35.2739 34.3243 35.4329 34.2585 35.5501 34.1413C35.6673 34.0241 35.7331 33.8651 35.7331 33.6993V6.3006C35.7331 6.13484 35.6673 5.97587 35.5501 5.85866C35.4329 5.74145 35.2739 5.6756 35.1081 5.6756H21.375C21.2092 5.6756 21.0503 5.74145 20.9331 5.85866C20.8158 5.97587 20.75 6.13484 20.75 6.3006V33.6993C20.75 33.8651 20.8158 34.0241 20.9331 34.1413C21.0503 34.2585 21.2092 34.3243 21.375 34.3243ZM22 6.9256H34.4831V33.0743H22V6.9256Z"
        fill="currentColor" />
    <path d="M9.55499 14.9581L11.2887 13.2244C11.3484 13.1667 11.3961 13.0978 11.4288 13.0215C11.4616 12.9453 11.4788 12.8633 11.4795 12.7803C11.4802 12.6973 11.4644 12.615 11.433 12.5382C11.4016 12.4614 11.3552 12.3916 11.2965 12.3329C11.2378 12.2742 11.168 12.2278 11.0912 12.1964C11.0144 12.165 10.9321 12.1491 10.8491 12.1499C10.7661 12.1506 10.6841 12.1678 10.6079 12.2006C10.5316 12.2333 10.4626 12.281 10.405 12.3406L8.67124 14.0744C8.61155 14.1321 8.56394 14.201 8.53118 14.2773C8.49842 14.3535 8.48118 14.4355 8.48046 14.5185C8.47974 14.6015 8.49555 14.6838 8.52698 14.7606C8.55841 14.8374 8.60481 14.9072 8.6635 14.9659C8.72218 15.0246 8.79196 15.071 8.86877 15.1024C8.94558 15.1338 9.02788 15.1496 9.11087 15.1489C9.19386 15.1482 9.27587 15.131 9.35212 15.0982C9.42837 15.0655 9.49734 15.0178 9.55499 14.9581Z"
        fill="currentColor" />
    <path d="M13.5725 12.8875L9.06251 17.3981C9.00282 17.4558 8.9552 17.5248 8.92245 17.601C8.88969 17.6773 8.87245 17.7593 8.87173 17.8423C8.87101 17.9253 8.88682 18.0076 8.91825 18.0844C8.94967 18.1612 8.99608 18.231 9.05476 18.2896C9.11345 18.3483 9.18323 18.3947 9.26004 18.4262C9.33685 18.4576 9.41915 18.4734 9.50214 18.4727C9.58512 18.472 9.66713 18.4547 9.74339 18.422C9.81964 18.3892 9.8886 18.3416 9.94626 18.2819L14.4569 13.7713C14.5166 13.7136 14.5642 13.6447 14.5969 13.5684C14.6297 13.4921 14.6469 13.4101 14.6477 13.3271C14.6484 13.2442 14.6326 13.1619 14.6011 13.0851C14.5697 13.0082 14.5233 12.9385 14.4646 12.8798C14.4059 12.8211 14.3362 12.7747 14.2594 12.7433C14.1825 12.7118 14.1002 12.696 14.0173 12.6967C13.9343 12.6975 13.8523 12.7147 13.776 12.7475C13.6998 12.7802 13.6302 12.8278 13.5725 12.8875Z"
        fill="currentColor" />
    <path d="M26.0625 14.9581L27.7962 13.2244C27.9101 13.1065 27.9731 12.9486 27.9717 12.7847C27.9702 12.6209 27.9045 12.4641 27.7886 12.3482C27.6728 12.2323 27.516 12.1666 27.3521 12.1652C27.1883 12.1638 27.0304 12.2268 26.9125 12.3406L25.1787 14.0744C25.1191 14.132 25.0714 14.201 25.0387 14.2772C25.0059 14.3535 24.9887 14.4355 24.988 14.5185C24.9872 14.6015 25.0031 14.6838 25.0345 14.7606C25.0659 14.8374 25.1123 14.9072 25.171 14.9659C25.2297 15.0245 25.2995 15.0709 25.3763 15.1024C25.4531 15.1338 25.5354 15.1496 25.6184 15.1489C25.7014 15.1482 25.7834 15.1309 25.8596 15.0982C25.9359 15.0654 26.0048 15.0178 26.0625 14.9581Z"
        fill="currentColor" />
    <path d="M30.0825 12.8875L25.5712 17.3981C25.5115 17.4558 25.4639 17.5248 25.4312 17.601C25.3984 17.6773 25.3812 17.7593 25.3805 17.8423C25.3797 17.9253 25.3955 18.0076 25.427 18.0844C25.4584 18.1612 25.5048 18.231 25.5635 18.2896C25.6222 18.3483 25.692 18.3947 25.7688 18.4262C25.8456 18.4576 25.9279 18.4734 26.0109 18.4727C26.0939 18.472 26.1759 18.4547 26.2521 18.422C26.3284 18.3892 26.3973 18.3416 26.455 18.2819L30.9662 13.7713C31.0259 13.7136 31.0735 13.6447 31.1063 13.5684C31.1391 13.4921 31.1563 13.4101 31.157 13.3271C31.1577 13.2442 31.1419 13.1619 31.1105 13.0851C31.0791 13.0082 31.0327 12.9385 30.974 12.8798C30.9153 12.8211 30.8455 12.7747 30.7687 12.7433C30.6919 12.7118 30.6096 12.696 30.5266 12.6967C30.4436 12.6975 30.3616 12.7147 30.2854 12.7475C30.2091 12.7802 30.1401 12.8278 30.0825 12.8875Z"
        fill="currentColor" />
</svg>