<svg width="16" height="16" viewBox="0 0 16 16" fill="none" xmlns="http://www.w3.org/2000/svg">
<path d="M6.50807 3.53012C6.97633 3.40483 7.47358 3.33333 7.9987 3.33333C12.2411 3.33333 14.6654 8 14.6654 8C14.6654 8 14.1127 9.06385 13.0734 10.1757M2.89811 5.85215C1.8755 6.95382 1.33203 8 1.33203 8C1.33203 8 3.75627 12.6667 7.9987 12.6667C8.53341 12.6667 9.03924 12.5925 9.51498 12.463M7.66536 9.97235C6.94258 9.85109 6.35125 9.34215 6.1125 8.66667M8.33203 6.02765C9.16953 6.16816 9.83054 6.82917 9.97104 7.66667M1.9987 2L13.9987 14" stroke="#333333" stroke-opacity="0.6" stroke-width="1.5" stroke-linecap="round" stroke-linejoin="round"/>
</svg>
